<svg width="77" height="75" viewBox="0 0 77 75" fill="none" xmlns="http://www.w3.org/2000/svg">
<rect x="2" width="75" height="75" rx="20" fill="white"/>
<g clip-path="url(#clip0_3277_923)">
<path fill-rule="evenodd" clip-rule="evenodd" d="M43.75 21.7812H40.1875V18.2188H37.8125V21.7812H34.25V18.2188H31.875V21.7812H29.5C27.9266 21.7812 26.4125 22.4071 25.3022 23.5203C24.186 24.6336 23.5625 26.1441 23.5625 27.7188V30.0938H20V32.4688H23.5625V36.0312H20V38.4062H23.5625V41.9688H20V44.3438H23.5625V46.7188C23.5625 48.2934 24.186 49.8039 25.3022 50.9172C26.4125 52.0304 27.9266 52.6562 29.5 52.6562H31.875V56.2188H34.25V52.6562H37.8125V56.2188H40.1875V52.6562H43.75V56.2188H46.125V52.6562H48.5C50.0734 52.6562 51.5875 52.0304 52.6978 50.9172C53.814 49.8039 54.4375 48.2934 54.4375 46.7188V44.3438H58V41.9688H54.4375V38.4062H58V36.0312H54.4375V32.4688H58V30.0938H54.4375V27.7188C54.4375 26.1441 53.814 24.6336 52.6978 23.5203C51.5875 22.4071 50.0734 21.7812 48.5 21.7812H46.125V18.2188H43.75V21.7812ZM43.75 30.0938V44.3438H46.125V30.0938H43.75ZM31.875 34.25V44.3438H34.25V40.1875H37.8125V44.3438H40.1875V34.25C40.1875 31.9546 38.3291 30.0938 36.0312 30.0938C33.7334 30.0938 31.875 31.9546 31.875 34.25ZM37.8125 37.8125V34.25C37.8125 33.2662 37.0169 32.4688 36.0312 32.4688C35.0456 32.4688 34.25 33.2662 34.25 34.25V37.8125H37.8125Z" fill="#1485BD"/>
</g>
<defs>
<clipPath id="clip0_3277_923">
<rect width="44" height="38" fill="white" transform="translate(18 18.5)"/>
</clipPath>
</defs>
</svg>
