<svg width="1440" height="650" viewBox="0 0 1440 650" fill="none" xmlns="http://www.w3.org/2000/svg">
<rect width="1440" height="650" fill="url(#paint0_linear_3345_183)"/>
<g opacity="0.25" clip-path="url(#clip0_3345_183)">
<path d="M1436.08 316.663C1430.22 308.551 1424.68 300.856 1419.48 293.523C1418.77 282.964 1418.41 272.672 1418.41 262.382C1432.55 262.391 1448.24 262.399 1465.85 262.411C1486.82 271.138 1510.91 281.175 1538.19 292.81L1535.2 290.819C1509.51 279.913 1486.72 270.445 1466.72 262.151C1486.72 253.855 1509.51 244.389 1535.2 233.479L1538.17 231.5C1510.9 243.132 1486.82 253.17 1465.84 261.894C1448.24 261.902 1432.55 261.911 1418.4 261.919C1418.41 251.629 1418.77 241.338 1419.48 230.779C1419.53 230.704 1419.58 230.63 1419.63 230.556C1424.79 223.288 1430.28 215.666 1436.07 207.634C1470.38 188.588 1513.38 164.552 1563.74 135.809L1563.59 135.156C1513.64 163.721 1470.93 187.657 1436.76 206.677C1450.53 187.606 1466.14 166.109 1483.08 142.075C1497.06 139.331 1512.12 136.365 1528.33 133.197L1525.37 133.155C1510.48 136.078 1496.55 138.827 1483.57 141.382C1493.47 127.317 1503.83 112.387 1514.39 96.8102L1516.4 92.6621C1478.77 148.441 1444.6 194.441 1419.55 229.686C1419.66 228.175 1419.79 226.646 1419.91 225.123C1421.68 224.787 1423.05 223.299 1423.05 221.426C1423.05 219.308 1421.33 217.589 1419.21 217.589C1417.59 217.589 1416.22 218.603 1415.66 220.024C1414.07 219.635 1412.45 219.242 1410.9 218.86C1409.43 218.497 1407.99 218.135 1406.56 217.778C1424.2 190.465 1446.33 157.295 1471.68 117.402C1471.9 117.439 1472.1 117.534 1472.33 117.534C1474.45 117.534 1476.17 115.816 1476.17 113.697C1476.17 113.1 1476.01 112.553 1475.76 112.046C1490.11 102.788 1505.27 93.0659 1521.08 83.0124L1521.12 82.9263L1520.64 82.5833C1504.88 92.6165 1489.75 102.334 1475.45 111.58C1475 110.914 1474.38 110.392 1473.61 110.118C1473.53 109.941 1473.44 109.77 1473.36 109.596C1463.12 88.3061 1455.49 64.5224 1449.16 34.9448C1466.25 50.8243 1484.84 63.0879 1507.65 73.2428L1503.97 70.6018C1482.69 60.6395 1465.09 48.6649 1448.82 33.3582C1448.8 33.2551 1448.78 33.1521 1448.75 33.0507C1448.71 33.0912 1448.66 33.1301 1448.62 33.1707C1448.56 33.1115 1448.49 33.0507 1448.43 32.9932L1448.01 33.2636C1448.04 33.3836 1448.06 33.5035 1448.09 33.6235C1415.22 61.7936 1386.01 88.1203 1361.42 110.495C1358.65 83.4669 1355.9 51.2332 1352.36 11.423L1351.48 8.63671C1355.19 49.9778 1358.04 83.205 1360.91 110.966C1351.11 119.876 1342.04 128.165 1333.51 135.892C1332.95 135.09 1332.11 134.546 1331.11 134.356C1334.2 96.4875 1338.27 48.2019 1343.31 -17.0445L1342.81 -18.6311C1337.78 47.3622 1333.72 96.104 1330.64 134.262C1330.57 134.258 1330.51 134.219 1330.43 134.219C1328.31 134.219 1326.59 135.938 1326.59 138.057C1326.59 139.63 1327.55 140.976 1328.9 141.568C1316.31 166.1 1306.14 185.845 1297.09 202.693C1296.57 202.423 1295.99 202.23 1295.36 202.23C1294.61 202.23 1293.95 202.504 1293.35 202.877C1284.22 185.873 1273.95 165.933 1261.19 141.078C1262.13 140.378 1262.78 139.314 1262.78 138.055C1262.78 136.212 1261.45 134.742 1259.72 134.375C1256.64 96.2003 1252.58 47.4264 1247.54 -18.6328L1247.04 -17.0462C1252.08 48.1529 1256.14 96.4182 1259.23 134.277C1259.13 134.268 1259.05 134.218 1258.94 134.218C1257.89 134.218 1256.93 134.645 1256.23 135.34C1247.88 127.77 1239.01 119.665 1229.45 110.965C1232.31 83.2067 1235.17 49.9795 1238.87 8.6384L1237.98 11.4331C1234.45 51.2518 1231.7 83.4957 1228.93 110.522C1204.34 88.1389 1175.13 61.7987 1142.26 33.6133C1142.29 33.4934 1142.32 33.3734 1142.34 33.2535L1141.93 32.9848C1141.86 33.0439 1141.8 33.1081 1141.73 33.1673C1141.69 33.1267 1141.64 33.0879 1141.6 33.0473C1141.58 33.1504 1141.55 33.2534 1141.53 33.3548C1125.26 48.6615 1107.66 60.6396 1086.37 70.6052L1082.7 73.2428C1105.51 63.0862 1124.1 50.826 1141.19 34.9431C1135.16 63.1521 1127.94 86.0893 1118.41 106.62C1117.9 107.725 1117.36 108.81 1116.83 109.9C1115.79 109.958 1114.88 110.414 1114.22 111.139C1100.12 102.025 1085.22 92.4577 1069.71 82.5816L1069.23 82.9246L1069.28 83.0107C1084.84 92.9105 1099.76 102.479 1113.91 111.608C1113.5 112.217 1113.2 112.908 1113.2 113.695C1113.2 115.814 1114.92 117.532 1117.04 117.532C1117.58 117.532 1118.09 117.417 1118.55 117.215C1143.95 157.194 1166.12 190.418 1183.79 217.777C1180.55 218.59 1177.19 219.417 1173.76 220.254C1173.26 218.718 1171.86 217.588 1170.16 217.588C1168.04 217.588 1166.32 219.306 1166.32 221.425C1166.32 223.544 1168.04 225.262 1170.16 225.262C1170.26 225.262 1170.35 225.211 1170.45 225.203C1170.57 226.698 1170.7 228.204 1170.8 229.684C1165.97 222.881 1160.87 215.773 1155.48 208.299V208.303C1155.27 208.004 1155.05 207.701 1154.84 207.397C1154.82 207.38 1154.81 207.363 1154.8 207.348C1154.8 207.345 1154.79 207.348 1154.79 207.345C1149.95 200.625 1144.89 193.615 1139.61 186.292C1120.16 159.318 1097.58 127.638 1073.9 92.5607L1075.96 96.8052C1086.52 112.382 1096.88 127.312 1106.79 141.377C1093.8 138.822 1079.87 136.073 1064.98 133.15L1062.01 133.192C1078.23 136.364 1093.29 139.327 1107.28 142.07C1120.99 161.538 1133.86 179.362 1145.56 195.554C1148.3 199.346 1150.97 203.048 1153.59 206.667C1144.98 201.874 1135.87 196.796 1126.26 191.415C1097.63 175.4 1064.15 156.526 1026.77 135.154L1026.62 135.811C1041.21 144.134 1055.27 152.125 1068.59 159.656C1101.27 178.125 1129.84 194.059 1154.27 207.63C1160.14 215.746 1165.67 223.442 1170.88 230.775C1171.59 241.334 1171.94 251.628 1171.95 261.916C1157.81 261.907 1142.12 261.902 1124.51 261.891C1103.54 253.163 1079.45 243.127 1052.17 231.495L1055.15 233.474C1080.84 244.384 1103.63 253.853 1123.63 262.149C1103.63 270.445 1080.84 279.916 1055.14 290.826L1052.16 292.81C1079.44 281.171 1103.53 271.135 1124.51 262.408C1142.12 262.399 1157.8 262.387 1171.95 262.379C1171.94 272.671 1171.58 282.961 1170.87 293.519C1165.67 300.853 1160.13 308.544 1154.27 316.659C1119.97 335.705 1076.97 359.739 1026.61 388.482L1026.77 389.136C1076.71 360.576 1119.42 336.645 1153.58 317.626C1139.81 336.695 1124.21 358.19 1107.28 382.22C1093.28 384.964 1078.22 387.93 1062 391.098L1064.98 391.143C1079.87 388.22 1093.8 385.468 1106.78 382.913C1096.88 396.981 1086.52 411.911 1075.96 427.485L1073.9 431.736C1085.49 414.56 1096.87 398.115 1107.69 382.737C1124.95 358.205 1140.83 336.319 1154.79 316.95L1154.8 316.947C1159.7 310.141 1164.38 303.63 1168.83 297.384C1169.49 296.453 1170.15 295.525 1170.8 294.609C1170.71 295.976 1170.59 297.363 1170.48 298.741C1168.55 298.935 1167.01 300.516 1167.01 302.503C1167.01 304.622 1168.73 306.341 1170.85 306.341C1172.36 306.341 1173.64 305.445 1174.27 304.168C1177.52 304.958 1180.71 305.746 1183.79 306.523C1165.97 334.102 1143.59 367.652 1117.93 408.064C1117.73 408.031 1117.55 407.947 1117.35 407.947C1115.23 407.947 1113.51 409.665 1113.51 411.784C1113.51 412.149 1113.63 412.479 1113.72 412.812C1099.63 421.9 1084.77 431.43 1069.28 441.281L1069.24 441.372L1069.71 441.715C1085.1 431.915 1099.88 422.426 1113.88 413.378C1114.49 414.694 1115.8 415.621 1117.35 415.621C1117.37 415.621 1117.39 415.608 1117.41 415.608C1127.44 436.666 1134.95 460.191 1141.19 489.352C1124.1 473.474 1105.51 461.214 1082.71 451.061L1086.38 453.698C1107.66 463.667 1125.26 475.642 1141.53 490.95C1141.55 491.05 1141.57 491.148 1141.6 491.248C1141.64 491.207 1141.69 491.168 1141.73 491.128C1141.8 491.187 1141.86 491.251 1141.93 491.31L1142.34 491.041C1142.32 490.921 1142.29 490.801 1142.26 490.681C1175.13 462.51 1204.34 436.181 1228.92 413.803C1231.69 440.828 1234.45 473.062 1237.98 512.87L1238.87 515.665C1235.16 474.324 1232.31 441.093 1229.44 413.335C1238.17 405.397 1246.36 397.917 1254.07 390.919C1254.73 390.319 1255.37 389.743 1256.03 389.149C1256.72 390.109 1257.8 390.777 1259.08 390.777C1259.11 390.777 1259.14 390.76 1259.17 390.76C1256.08 428.503 1252.04 476.569 1247.03 541.343L1247.54 542.936C1252.54 477.299 1256.58 428.727 1259.65 390.66C1261.49 390.371 1262.91 388.854 1262.91 386.941C1262.91 385.522 1262.11 384.336 1260.96 383.67C1273.76 358.741 1284.05 338.75 1293.2 321.701C1293.83 322.136 1294.54 322.45 1295.36 322.45C1296.06 322.45 1296.68 322.213 1297.24 321.884C1306.33 338.811 1316.54 358.646 1329.21 383.323C1327.63 383.8 1326.46 385.207 1326.46 386.941C1326.46 389.06 1328.18 390.778 1330.3 390.778C1330.44 390.778 1330.56 390.712 1330.7 390.699C1333.77 428.757 1337.81 477.325 1342.81 542.938L1343.32 541.344C1338.3 476.48 1334.25 428.37 1331.17 390.601C1332.29 390.332 1333.22 389.619 1333.72 388.6C1342.18 396.273 1351.2 404.5 1360.91 413.339C1358.04 441.097 1355.19 474.327 1351.48 515.668L1352.36 512.882C1355.9 473.057 1358.65 440.811 1361.42 413.781C1386.01 436.164 1415.22 462.501 1448.09 490.685C1448.06 490.805 1448.04 490.925 1448.01 491.045L1448.42 491.31C1448.48 491.251 1448.55 491.19 1448.61 491.131C1448.66 491.171 1448.7 491.21 1448.75 491.251C1448.77 491.151 1448.8 491.053 1448.82 490.954C1465.09 475.643 1482.68 463.669 1503.96 453.703L1507.64 451.057C1484.83 461.214 1466.25 473.474 1449.16 489.355C1455.34 460.414 1462.79 437.018 1472.69 416.083C1472.8 415.86 1472.91 415.647 1473.01 415.427C1474.29 415.072 1475.27 414.119 1475.64 412.852C1489.88 422.057 1504.95 431.732 1520.63 441.723L1521.11 441.379L1521.07 441.284C1505.26 431.236 1490.1 421.513 1475.76 412.259C1475.78 412.099 1475.85 411.957 1475.85 411.791C1475.85 409.804 1474.32 408.222 1472.39 408.028C1446.73 367.635 1424.36 334.097 1406.55 306.53C1409.36 305.819 1412.28 305.102 1415.23 304.377C1415.9 305.533 1417.09 306.347 1418.52 306.347C1420.63 306.347 1422.35 304.629 1422.35 302.51C1422.35 300.875 1421.32 299.501 1419.88 298.948C1419.77 297.504 1419.64 296.054 1419.54 294.618C1424.57 301.709 1429.91 309.137 1435.54 316.955C1458.16 348.298 1486.3 387.068 1516.41 431.665L1514.39 427.491C1503.82 411.916 1493.47 396.988 1483.56 382.923C1496.54 385.478 1510.48 388.23 1525.37 391.153L1528.34 391.108C1512.12 387.94 1497.06 384.976 1483.07 382.232C1466.13 358.196 1450.52 336.701 1436.76 317.629C1445.13 322.294 1453.98 327.232 1463.32 332.451C1492.12 348.562 1525.86 367.583 1563.58 389.149L1563.73 388.496C1549.43 380.331 1535.62 372.489 1522.53 365.09C1489.53 346.433 1460.7 330.349 1436.07 316.671L1436.08 316.663ZM1415.56 220.539C1415.49 220.833 1415.38 221.114 1415.38 221.426C1415.38 222.077 1415.58 222.66 1415.87 223.196C1387.47 238.399 1365.52 250.149 1347.11 260.483C1346.54 259.081 1345.18 258.089 1343.57 258.089C1342.21 258.089 1341.08 258.834 1340.4 259.895C1325.2 252.462 1312.11 245.67 1298.88 238.298C1299.08 237.83 1299.2 237.316 1299.2 236.774C1299.2 234.655 1297.48 232.936 1295.37 232.936C1295.37 225.669 1295.37 218.059 1295.37 209.905C1297.26 209.9 1298.76 208.509 1299.07 206.713C1313.57 205.947 1328.33 204.395 1345.1 202C1345.59 203.562 1346.99 204.717 1348.71 204.717C1350.34 204.717 1351.71 203.695 1352.27 202.266C1354.19 202.96 1356.11 203.656 1358.09 204.329C1374.44 209.918 1392.86 214.982 1415.56 220.538L1415.56 220.539ZM1249.39 260.62C1265.01 252.967 1278.41 246.021 1291.96 238.462C1292.54 239.612 1293.66 240.4 1295 240.535C1295 255.396 1295 269.274 1295 284.154C1293.78 284.277 1292.77 284.949 1292.16 285.941C1278.48 278.318 1265 271.317 1249.23 263.601C1249.48 263.09 1249.65 262.533 1249.65 261.924C1249.65 261.461 1249.54 261.031 1249.39 260.62H1249.39ZM1295.37 284.079C1295.36 269.252 1295.36 255.416 1295.37 240.609C1296.8 240.609 1298.01 239.785 1298.66 238.61C1311.9 245.981 1324.99 252.78 1340.17 260.226C1339.91 260.743 1339.73 261.306 1339.73 261.924C1339.73 262.69 1340.02 263.362 1340.4 263.962C1325.05 271.485 1311.84 278.341 1298.47 285.791C1297.78 284.78 1296.68 284.078 1295.37 284.078V284.079ZM1424.98 188.498C1418.2 198.863 1411.88 208.543 1406.02 217.642C1385.04 212.355 1367.89 207.377 1352.37 201.784C1352.44 201.487 1352.55 201.201 1352.55 200.882C1352.55 200.41 1352.44 199.971 1352.28 199.554C1368.83 187.811 1388.08 174.036 1410.88 157.831C1428.42 145.356 1448.05 131.445 1469.57 116.324C1469.97 116.752 1470.48 117.066 1471.04 117.269C1454.14 143.888 1438.6 167.656 1424.98 188.497L1424.98 188.498ZM1329.38 141.681C1329.72 141.781 1330.06 141.896 1330.43 141.896C1332.55 141.896 1334.27 140.177 1334.27 138.058C1334.27 137.43 1334.08 136.862 1333.82 136.337C1342.42 128.549 1351.6 120.185 1361.5 111.188V111.184C1386.1 88.8299 1415.33 62.5168 1448.24 34.3348C1454.5 63.8634 1462.01 87.6303 1472.06 108.869C1472.23 109.217 1472.4 109.56 1472.56 109.905C1472.48 109.902 1472.41 109.86 1472.34 109.86C1470.22 109.86 1468.5 111.578 1468.5 113.697C1468.5 114.521 1468.82 115.244 1469.26 115.87C1461.08 121.625 1453.11 127.248 1445.5 132.638C1407.03 159.862 1376.47 181.839 1352.1 199.17C1351.46 197.923 1350.2 197.046 1348.71 197.046C1346.59 197.046 1344.87 198.765 1344.87 200.884C1344.87 201.123 1344.97 201.331 1345.01 201.559C1328.31 203.952 1313.61 205.501 1299.16 206.267C1299.16 206.198 1299.2 206.138 1299.2 206.069C1299.2 204.733 1298.47 203.611 1297.44 202.923C1306.52 186.047 1316.72 166.269 1329.38 141.679L1329.38 141.681ZM1142.12 34.3365C1175.03 62.5168 1204.26 88.8333 1228.86 111.191C1238.53 119.974 1247.5 128.155 1255.94 135.789C1255.45 136.431 1255.11 137.193 1255.11 138.058C1255.11 140.177 1256.83 141.896 1258.95 141.896C1259.64 141.896 1260.25 141.664 1260.81 141.348C1264.03 147.603 1267.11 153.6 1270.04 159.267C1278.72 176.093 1286.18 190.399 1293.02 203.11C1292.13 203.815 1291.53 204.853 1291.53 206.071C1291.53 206.149 1291.57 206.211 1291.57 206.285C1283.78 205.88 1275.94 205.261 1267.75 204.39C1260.32 203.602 1252.59 202.605 1244.4 201.424C1244.42 201.242 1244.5 201.076 1244.5 200.885C1244.5 198.766 1242.79 197.048 1240.67 197.048C1239.38 197.048 1238.29 197.724 1237.6 198.7C1208.42 177.948 1169.92 150.229 1120.44 115.403C1120.7 114.885 1120.88 114.322 1120.88 113.698C1120.88 111.82 1119.5 110.328 1117.72 109.998C1128.05 88.465 1135.75 64.4041 1142.12 34.3365H1142.12ZM1119.07 116.877C1119.49 116.606 1119.84 116.272 1120.13 115.863C1169.67 150.66 1208.18 178.328 1237.37 199.047C1237.06 199.601 1236.84 200.206 1236.84 200.882C1236.84 201.316 1236.95 201.718 1237.08 202.109C1221.8 207.57 1204.91 212.459 1184.34 217.64C1166.68 190.244 1144.51 156.962 1119.07 116.875L1119.07 116.877ZM1234.65 203.514C1235.53 203.203 1236.39 202.886 1237.27 202.572C1237.9 203.83 1239.17 204.717 1240.67 204.717C1242.44 204.717 1243.87 203.492 1244.31 201.865C1247.82 202.37 1251.28 202.854 1254.63 203.286C1267.78 204.988 1279.79 206.101 1291.66 206.718C1291.96 208.386 1293.28 209.653 1294.98 209.827C1294.99 218.04 1294.99 225.698 1294.99 233.009C1293.06 233.207 1291.53 234.785 1291.53 236.772C1291.53 237.249 1291.64 237.695 1291.8 238.117C1282.94 243.056 1274.16 247.743 1264.78 252.516C1259.82 255.041 1254.62 257.612 1249.23 260.252C1248.6 258.981 1247.32 258.087 1245.81 258.087C1244.3 258.087 1243.17 258.91 1242.52 260.078C1241.1 259.283 1239.71 258.501 1238.25 257.692C1220.75 247.958 1199.94 236.819 1173.73 222.785C1173.89 222.359 1174 221.908 1174 221.426C1174 221.192 1173.91 220.991 1173.87 220.769C1198.1 214.854 1217.47 209.504 1234.64 203.513L1234.65 203.514ZM1172.62 262.382C1172.63 252.275 1172.29 242.165 1171.61 231.806C1171.59 231.463 1171.57 231.122 1171.54 230.775C1171.42 228.888 1171.26 226.979 1171.11 225.074C1172.15 224.804 1173.01 224.142 1173.51 223.212C1201.9 238.376 1223.87 250.1 1242.3 260.409C1242.1 260.873 1241.98 261.385 1241.98 261.924C1241.98 262.604 1242.2 263.212 1242.52 263.766C1224.2 274.019 1202.37 285.678 1174.2 300.723C1173.59 299.597 1172.48 298.827 1171.14 298.724C1171.3 296.64 1171.48 294.547 1171.61 292.487C1172.28 282.29 1172.61 272.336 1172.62 262.382H1172.62ZM1174.46 303.674C1174.58 303.298 1174.69 302.917 1174.69 302.503C1174.69 302.02 1174.58 301.571 1174.42 301.145C1202.59 286.061 1224.43 274.374 1242.74 264.101C1243.44 265.079 1244.52 265.762 1245.82 265.762C1247.18 265.762 1248.33 265.005 1249 263.932C1264.78 271.637 1278.27 278.63 1291.94 286.256C1291.7 286.764 1291.53 287.315 1291.53 287.917C1291.53 289.904 1293.06 291.482 1294.99 291.679C1294.99 298.987 1294.99 306.638 1294.99 314.85C1293.42 315.01 1292.17 316.087 1291.74 317.558C1276.68 318.336 1261.37 319.963 1243.82 322.502C1243.45 320.767 1241.98 319.439 1240.14 319.439C1238.66 319.439 1237.41 320.307 1236.77 321.539C1234.47 320.72 1232.14 319.909 1229.75 319.109C1213.95 313.826 1196.15 308.973 1174.46 303.671V303.674ZM1165.54 335.568C1172.25 325.289 1178.53 315.686 1184.35 306.657C1204.68 311.781 1221.42 316.617 1236.56 322C1236.42 322.403 1236.31 322.823 1236.31 323.276C1236.31 324.104 1236.63 324.829 1237.07 325.457C1220.85 336.976 1202.06 350.419 1179.9 366.173C1161.94 378.946 1141.78 393.23 1119.64 408.783C1119.32 408.535 1118.98 408.329 1118.58 408.192C1135.83 380.999 1151.68 356.769 1165.54 335.568H1165.54ZM1260.58 383.403C1260.12 383.209 1259.62 383.1 1259.08 383.1C1256.97 383.1 1255.25 384.819 1255.25 386.938C1255.25 387.587 1255.45 388.168 1255.73 388.702C1250.56 393.384 1245.24 398.221 1239.61 403.338C1212.82 427.725 1179.98 457.549 1142.12 489.962C1135.92 460.69 1128.48 437.085 1118.56 415.988C1118.47 415.802 1118.38 415.62 1118.29 415.434C1119.95 415.006 1121.19 413.57 1121.19 411.786C1121.19 410.752 1120.77 409.824 1120.11 409.135C1129.24 402.709 1138.06 396.481 1146.5 390.506C1183.71 364.166 1213.44 342.792 1237.31 325.812C1238.01 326.6 1239 327.117 1240.14 327.117C1242.26 327.117 1243.98 325.398 1243.98 323.28C1243.98 323.163 1243.92 323.065 1243.91 322.952C1261.38 320.417 1276.65 318.792 1291.65 318.013C1291.62 318.216 1291.53 318.401 1291.53 318.613C1291.53 319.767 1292.07 320.77 1292.87 321.473C1283.71 338.512 1273.4 358.492 1260.57 383.406L1260.58 383.403ZM1448.24 489.96C1415.34 461.781 1386.1 435.465 1361.5 413.114C1351.63 404.15 1342.49 395.815 1333.91 388.051C1334.02 387.691 1334.14 387.331 1334.14 386.938C1334.14 384.819 1332.42 383.1 1330.3 383.1C1330.08 383.1 1329.9 383.188 1329.69 383.224C1326.43 376.898 1323.31 370.84 1320.36 365.111C1311.76 348.457 1304.37 334.269 1297.59 321.652C1298.54 320.953 1299.2 319.88 1299.2 318.609C1299.2 318.403 1299.11 318.227 1299.08 318.03C1306.87 318.44 1314.71 319.066 1322.91 319.939C1330.1 320.71 1337.59 321.671 1345.5 322.811C1345.48 322.972 1345.41 323.111 1345.41 323.276C1345.41 325.395 1347.13 327.113 1349.24 327.113C1350.59 327.113 1351.71 326.382 1352.39 325.338C1381.58 346.097 1420.14 373.86 1469.75 408.778C1468.83 409.478 1468.19 410.537 1468.19 411.784C1468.19 413.9 1469.91 415.615 1472.02 415.621C1462.01 436.817 1454.48 460.507 1448.24 489.962V489.96ZM1471.67 408.018C1471.15 408.069 1470.68 408.209 1470.25 408.447C1420.5 373.498 1381.86 345.74 1352.63 324.989C1352.89 324.467 1353.08 323.901 1353.08 323.276C1353.08 322.94 1352.97 322.637 1352.89 322.325C1368.28 316.806 1385.28 311.883 1406.02 306.657C1423.77 334.183 1446.08 367.66 1471.68 408.018H1471.67ZM1358.26 319.902C1356.4 320.539 1354.6 321.193 1352.79 321.843C1352.22 320.436 1350.85 319.439 1349.24 319.439C1347.45 319.439 1346.01 320.698 1345.59 322.362C1342.27 321.889 1339.01 321.434 1335.84 321.024C1322.75 319.327 1310.8 318.212 1298.99 317.592C1298.54 315.982 1297.12 314.777 1295.37 314.772C1295.37 306.619 1295.37 299.014 1295.36 291.752C1297.48 291.752 1299.2 290.034 1299.2 287.915C1299.2 287.249 1298.98 286.653 1298.69 286.109C1307.7 281.087 1316.63 276.325 1326.2 271.464C1330.81 269.124 1335.64 266.735 1340.62 264.293C1341.33 265.167 1342.36 265.76 1343.57 265.76C1345.03 265.76 1346.26 264.907 1346.91 263.697C1348.57 264.628 1350.21 265.555 1351.93 266.508C1369.14 276.085 1389.57 287.024 1415.18 300.733C1414.89 301.27 1414.69 301.851 1414.69 302.502C1414.69 302.998 1414.8 303.463 1414.97 303.901C1392.63 309.379 1374.43 314.385 1358.26 319.9L1358.26 319.902ZM1418.53 298.668C1417.23 298.668 1416.14 299.352 1415.45 300.336C1387.24 285.277 1365.42 273.622 1347.11 263.357C1347.29 262.915 1347.4 262.435 1347.4 261.928C1347.4 261.563 1347.29 261.233 1347.2 260.9C1365.64 250.561 1387.64 238.808 1416.14 223.599C1416.83 224.581 1417.92 225.267 1419.22 225.267C1419.22 225.267 1419.23 225.262 1419.24 225.262C1419.07 227.452 1418.89 229.647 1418.75 231.811C1418.08 242.013 1417.75 251.971 1417.74 261.924C1417.74 272.032 1418.07 282.138 1418.75 292.492C1418.77 292.837 1418.8 293.183 1418.82 293.531C1418.94 295.275 1419.09 297.051 1419.22 298.811C1418.99 298.769 1418.77 298.671 1418.53 298.671L1418.53 298.668Z" fill="white"/>
<path d="M1580.8 316.108C1579.38 316.108 1578.13 316.807 1577.35 317.869L1498.63 265.477C1499.29 264.492 1499.67 263.313 1499.67 262.044C1499.67 260.839 1499.31 259.725 1498.73 258.772L1577.1 206.604C1577.87 207.76 1579.18 208.522 1580.68 208.522C1583.05 208.522 1584.97 206.597 1584.97 204.223C1584.97 201.849 1583.05 199.925 1580.68 199.925C1580.4 199.925 1580.13 199.957 1579.87 200.004L1564.97 137.323C1566.4 136.623 1567.39 135.17 1567.39 133.475C1567.39 131.1 1565.47 129.177 1563.09 129.177C1560.94 129.177 1559.18 130.758 1558.86 132.82L1498.33 131.934L1520.17 86.8337C1520.73 87.1075 1521.36 87.2764 1522.04 87.2764C1524.41 87.2764 1526.33 85.3519 1526.33 82.9779C1526.33 80.6039 1524.41 78.6794 1522.04 78.6794C1520.72 78.6794 1519.56 79.2809 1518.77 80.2102L1454.34 33.905C1454.69 33.2848 1454.9 32.5887 1454.9 31.8317C1454.9 29.4561 1452.97 27.5332 1450.6 27.5332C1448.23 27.5332 1446.3 29.4578 1446.3 31.8317C1446.3 32.3251 1446.4 32.7932 1446.56 33.2392L1374.93 79.629L1342.79 -21.4789C1344.19 -22.1869 1345.16 -23.6248 1345.16 -25.3043C1345.16 -27.68 1343.24 -29.6028 1340.87 -29.6028C1339.08 -29.6028 1337.56 -28.5181 1336.9 -26.9686L1299.36 -36.2567C1299.44 -36.5879 1299.49 -36.9309 1299.49 -37.2874C1299.49 -39.6631 1297.57 -41.5859 1295.2 -41.5859C1292.82 -41.5859 1290.9 -39.6614 1290.9 -37.2874C1290.9 -36.9309 1290.96 -36.5913 1291.04 -36.2601L1254.11 -27.1224C1253.42 -28.584 1251.95 -29.6028 1250.23 -29.6028C1247.85 -29.6028 1245.93 -27.6783 1245.93 -25.3043C1245.93 -23.8715 1246.64 -22.6127 1247.71 -21.8304L1215.46 79.651L1144.4 33.5974C1144.65 33.0584 1144.79 32.462 1144.79 31.83C1144.79 29.4544 1142.87 27.5315 1140.5 27.5315C1138.12 27.5315 1136.2 29.4561 1136.2 31.83C1136.2 32.4383 1136.33 33.0145 1136.55 33.54L1072.06 79.901C1071.28 79.1441 1070.23 78.676 1069.06 78.676C1066.68 78.676 1064.76 80.6006 1064.76 82.9745C1064.76 85.3485 1066.69 87.2731 1069.06 87.2731C1069.51 87.2731 1069.93 87.1852 1070.34 87.0568L1092.07 131.931L1032.23 132.804C1031.91 130.75 1030.15 129.173 1028 129.173C1025.63 129.173 1023.71 131.098 1023.71 133.472C1023.71 134.917 1024.43 136.189 1025.51 136.966L1010.54 199.933C1010.5 199.933 1010.46 199.921 1010.42 199.921C1008.04 199.921 1006.12 201.846 1006.12 204.22C1006.12 206.594 1008.05 208.518 1010.42 208.518C1011.77 208.518 1012.97 207.88 1013.75 206.9L1092.19 259.107C1091.72 259.986 1091.42 260.974 1091.42 262.039C1091.42 263.172 1091.75 264.217 1092.28 265.132L1013.51 317.566C1012.72 316.676 1011.58 316.101 1010.3 316.101C1007.92 316.101 1006 318.026 1006 320.4C1006 322.774 1007.92 324.698 1010.3 324.698C1010.41 324.698 1010.51 324.674 1010.62 324.666L1025.58 387.591C1024.18 388.299 1023.2 389.737 1023.2 391.416C1023.2 393.792 1025.13 395.715 1027.5 395.715C1029.87 395.715 1031.75 393.827 1031.79 391.487L1092.07 392.364L1070.13 437.678C1069.85 437.62 1069.56 437.592 1069.27 437.592C1066.89 437.592 1064.97 439.516 1064.97 441.89C1064.97 444.264 1066.89 446.189 1069.27 446.189C1070.56 446.189 1071.7 445.606 1072.49 444.703L1137.04 491.105C1136.86 491.573 1136.75 492.075 1136.75 492.604C1136.75 494.979 1138.68 496.902 1141.05 496.902C1143.42 496.902 1145.35 494.978 1145.35 492.604C1145.35 491.821 1145.12 491.1 1144.76 490.468L1215.46 444.668L1247.89 546.683C1246.71 547.448 1245.93 548.773 1245.93 550.282C1245.93 552.658 1247.85 554.581 1250.22 554.581C1252.18 554.581 1253.82 553.261 1254.33 551.472L1290.96 560.535C1290.88 560.866 1290.83 561.206 1290.83 561.562C1290.83 563.938 1292.75 565.861 1295.12 565.861C1297.5 565.861 1299.42 563.936 1299.42 561.562C1299.42 561.218 1299.37 560.886 1299.29 560.565L1336.71 551.308C1337.17 553.183 1338.85 554.579 1340.87 554.579C1343.24 554.579 1345.16 552.654 1345.16 550.28C1345.16 548.528 1344.11 547.026 1342.61 546.355L1374.94 444.642L1446.15 490.796C1445.9 491.347 1445.74 491.955 1445.74 492.6C1445.74 494.976 1447.67 496.899 1450.04 496.899C1452.41 496.899 1454.34 494.974 1454.34 492.6C1454.34 491.924 1454.17 491.291 1453.89 490.721L1518.34 444.389C1519.12 445.47 1520.39 446.185 1521.82 446.185C1524.2 446.185 1526.12 444.261 1526.12 441.887C1526.12 439.513 1524.2 437.588 1521.82 437.588C1521.31 437.588 1520.82 437.693 1520.36 437.862L1498.33 392.359L1559.3 391.474C1559.34 393.821 1561.24 395.71 1563.59 395.71C1565.95 395.71 1567.89 393.785 1567.89 391.411C1567.89 389.49 1566.62 387.883 1564.89 387.332L1579.8 324.568C1580.12 324.642 1580.45 324.693 1580.8 324.693C1583.17 324.693 1585.09 322.769 1585.09 320.395C1585.09 318.021 1583.17 316.096 1580.8 316.096L1580.8 316.108ZM1579.3 200.17C1577.6 200.749 1576.38 202.334 1576.38 204.223C1576.38 204.889 1576.54 205.514 1576.81 206.073L1498.38 258.281C1497.24 256.779 1495.46 255.794 1493.43 255.794C1490.04 255.794 1487.3 258.494 1487.2 261.856H1454.77V221.88L1454.9 221.612L1455.65 220.055C1460.6 219.919 1464.57 215.885 1464.57 210.906C1464.57 208.851 1463.87 206.972 1462.73 205.445L1467.57 195.457L1559.71 136.099C1560.5 137.11 1561.71 137.772 1563.09 137.772C1563.56 137.772 1563.99 137.681 1564.41 137.547L1579.3 200.17H1579.3ZM1481.98 418.731L1382.76 355.724C1383.66 354.303 1384.2 352.63 1384.2 350.82C1384.2 349.462 1383.89 348.186 1383.36 347.027L1441.07 320.732L1484.41 416.822C1483.44 417.241 1482.62 417.91 1481.98 418.731ZM1385.91 345.202L1383.07 346.495C1381.52 343.621 1378.52 341.645 1375.03 341.645C1370.2 341.645 1366.28 345.405 1365.93 350.155L1355.7 349.769L1295.72 347.492L1295.75 347.451L1295.5 347.463V313.355C1300.56 313.355 1304.67 309.248 1304.67 304.181C1304.67 302.591 1304.23 301.117 1303.51 299.813L1345.12 277.148L1361.66 268.143C1363.79 272.055 1367.89 274.738 1372.66 274.738C1376.9 274.738 1380.64 272.619 1382.92 269.397L1446.11 309.364C1445.21 310.785 1444.67 312.453 1444.67 314.258C1444.67 315.616 1444.99 316.892 1445.51 318.051L1385.91 345.201L1385.91 345.202ZM1340.87 429.153V545.995C1338.73 545.995 1336.97 547.565 1336.64 549.615H1254.45C1254.13 547.565 1252.36 545.995 1250.22 545.995C1249.98 545.995 1249.75 546.029 1249.52 546.066V429.167C1249.62 429.172 1249.71 429.196 1249.81 429.196C1253.26 429.196 1256.06 426.397 1256.06 422.947C1256.06 420.533 1254.67 418.463 1252.67 417.424L1295.2 348.348L1337.89 417.707C1336.18 418.821 1335.03 420.747 1335.03 422.949C1335.03 426.257 1337.61 428.937 1340.86 429.155L1340.87 429.153ZM1106.08 416.624L1134.77 353.007L1149.32 320.732L1207.6 347.284C1207.15 348.372 1206.89 349.568 1206.89 350.82C1206.89 352.497 1207.37 354.046 1208.16 355.396L1153.17 390.311L1108.87 418.441C1108.13 417.599 1107.17 416.971 1106.08 416.626L1106.08 416.624ZM1216.06 341.645C1212.46 341.645 1209.39 343.736 1207.88 346.75L1201.41 343.805L1145.44 318.308C1146.05 317.083 1146.42 315.721 1146.42 314.259C1146.42 312.325 1145.81 310.532 1144.79 309.052L1207.95 269.098C1210.21 272.494 1214.06 274.738 1218.44 274.738C1223.08 274.738 1227.1 272.187 1229.28 268.436L1287.35 300.068C1286.72 301.31 1286.33 302.694 1286.33 304.182C1286.33 309.043 1290.12 312.98 1294.9 313.296V347.463L1294.65 347.451L1294.67 347.492L1225.16 350.126C1224.8 345.39 1220.89 341.645 1216.06 341.645H1216.06ZM1108.61 105.699L1208.08 168.86C1207 170.362 1206.35 172.194 1206.35 174.188C1206.35 175.296 1206.58 176.344 1206.93 177.325L1149.32 203.576L1105.93 107.353C1106.96 107.03 1107.89 106.468 1108.61 105.701V105.699ZM1207.14 177.893C1208.57 181.11 1211.77 183.363 1215.52 183.363C1220.58 183.363 1224.69 179.255 1224.69 174.188C1224.69 174.179 1224.68 174.171 1224.68 174.162L1234.84 174.548L1285.77 176.477C1285.76 176.602 1285.73 176.721 1285.73 176.849C1285.73 181.916 1289.83 186.024 1294.9 186.024V210.63C1289.83 210.63 1285.73 214.738 1285.73 219.805C1285.73 221.498 1286.22 223.063 1287.02 224.425L1246.23 246.639L1229.27 255.876C1227.1 252.125 1223.08 249.574 1218.43 249.574C1214.06 249.574 1210.21 251.818 1207.95 255.214L1143.99 214.758C1144.54 213.586 1144.86 212.29 1144.86 210.911C1144.86 209.404 1144.46 208 1143.82 206.743L1207.14 177.893H1207.14ZM1250.23 95.5254C1249.99 95.5254 1249.76 95.571 1249.53 95.5963V-21.0768C1249.75 -21.0396 1249.99 -21.0058 1250.23 -21.0058C1252.6 -21.0058 1254.52 -22.9303 1254.52 -25.3043H1336.57C1336.57 -22.9286 1338.49 -21.0058 1340.87 -21.0058V95.5254C1337.42 95.5254 1334.62 98.3235 1334.62 101.774C1334.62 104.023 1335.82 105.979 1337.6 107.078L1299.51 168.96C1298.15 168.164 1296.59 167.672 1294.9 167.672C1293.39 167.672 1291.99 168.073 1290.74 168.715L1252.97 107.363C1255.04 106.344 1256.47 104.237 1256.47 101.774C1256.47 98.3218 1253.67 95.5254 1250.23 95.5254ZM1484.56 107.159L1455.74 171.059L1441.07 203.576L1384.07 177.604C1384.49 176.545 1384.74 175.398 1384.74 174.188C1384.74 172.059 1383.99 170.126 1382.77 168.57L1437.58 133.766L1482.24 105.412C1482.87 106.157 1483.65 106.77 1484.56 107.159H1484.56ZM1375.57 183.363C1379.21 183.363 1382.33 181.222 1383.81 178.147L1385.67 178.995L1447.13 206.999C1446.57 208.191 1446.23 209.505 1446.23 210.911C1446.23 212.156 1446.48 213.341 1446.93 214.425L1382.92 254.915C1380.64 251.693 1376.9 249.574 1372.66 249.574C1367.89 249.574 1363.79 252.257 1361.66 256.169L1302.92 224.171C1303.63 222.867 1304.07 221.397 1304.07 219.807C1304.07 214.946 1300.28 211.009 1295.5 210.693V185.966C1300.28 185.649 1304.07 181.714 1304.07 176.852C1304.07 176.732 1304.03 176.621 1304.03 176.504L1366.41 174.137C1366.41 174.157 1366.41 174.174 1366.41 174.191C1366.41 179.258 1370.51 183.366 1375.58 183.366L1375.57 183.363ZM1287.63 299.539L1229.56 267.91C1230.46 266.177 1231.01 264.239 1231.01 262.155C1231.01 260.072 1230.46 258.134 1229.56 256.4L1287.31 224.949C1288.95 227.38 1291.74 228.979 1294.9 228.979V295.066C1291.79 295.273 1289.13 297.005 1287.63 299.539ZM1295.5 295.006V228.919C1298.5 228.72 1301.1 227.101 1302.63 224.697L1361.37 256.694C1360.57 258.353 1360.08 260.188 1360.08 262.155C1360.08 264.122 1360.57 265.957 1361.37 267.616L1303.23 299.286C1301.6 296.719 1298.76 295.006 1295.5 295.006H1295.5ZM1135.63 220.079V220.505L1135.41 220.057C1135.48 220.061 1135.55 220.077 1135.63 220.081V220.079ZM1136.22 301.183V220.03C1139.47 219.841 1142.23 217.984 1143.7 215.289L1207.66 255.745C1206.54 257.629 1205.86 259.803 1205.86 262.157C1205.86 264.511 1206.54 266.683 1207.66 268.569L1144.4 308.586C1142.73 306.467 1140.16 305.086 1137.25 305.086C1136.9 305.086 1136.57 305.152 1136.22 305.189V301.186V301.183ZM1135.63 305.248C1135.36 305.297 1135.1 305.373 1134.83 305.448L1135.63 303.804V305.248ZM1454.77 305.177V303.804L1455.47 305.248C1455.24 305.206 1455.01 305.199 1454.77 305.177ZM1454.17 223.121V305.117C1454.06 305.112 1453.95 305.083 1453.84 305.083C1450.8 305.083 1448.12 306.585 1446.45 308.868L1383.25 268.895C1384.49 266.942 1385.24 264.642 1385.24 262.155C1385.24 259.668 1384.49 257.368 1383.25 255.415L1447.21 214.956C1448.53 217.627 1451.1 219.543 1454.17 219.957V223.121H1454.17ZM1454.99 220.044L1454.77 220.503V220.02C1454.84 220.025 1454.92 220.037 1454.99 220.042V220.044ZM1558.8 133.418C1558.8 133.438 1558.79 133.455 1558.79 133.475C1558.79 134.253 1559.02 134.971 1559.38 135.603L1468.07 194.425L1498.04 132.531L1558.8 133.418H1558.8ZM1462.31 204.938C1460.63 202.995 1458.17 201.734 1455.4 201.734C1451.96 201.734 1448.99 203.659 1447.42 206.467L1445.91 205.776L1441.62 203.823L1485.14 107.34C1485.73 107.529 1486.35 107.656 1487.01 107.656C1490.46 107.656 1493.25 104.857 1493.25 101.407C1493.25 100.605 1493.09 99.8459 1492.81 99.1413L1518.29 85.0444C1518.62 85.6442 1519.08 86.1629 1519.64 86.5431L1462.31 204.935V204.938ZM1518.41 80.6901C1517.99 81.3525 1517.74 82.1348 1517.74 82.9762C1517.74 83.5152 1517.85 84.0289 1518.03 84.5071L1492.56 98.5972C1491.52 96.5645 1489.44 95.1604 1487.01 95.1604C1486.07 95.1604 1485.2 95.3767 1484.4 95.745L1452.74 35.5355C1453.24 35.2466 1453.67 34.8647 1454.02 34.4085L1518.41 80.6901ZM1375.12 80.2255V80.2221L1446.8 33.7951C1447.51 35.1773 1448.94 36.1302 1450.6 36.1302C1451.17 36.1302 1451.71 36.0137 1452.21 35.8126L1483.87 96.0306C1482.02 97.112 1480.76 99.1058 1480.76 101.409C1480.76 102.722 1481.17 103.938 1481.86 104.945L1465.92 115.061L1382.39 168.103C1380.71 166.219 1378.29 165.011 1375.57 165.011C1370.74 165.011 1366.81 168.774 1366.47 173.529L1303.97 175.901C1303.68 173.139 1302.22 170.729 1300.03 169.247L1338.13 107.365C1338.96 107.774 1339.88 108.022 1340.87 108.022C1344.32 108.022 1347.11 105.224 1347.11 101.774C1347.11 100.714 1346.83 99.7293 1346.36 98.854L1375.12 80.2255ZM1374.41 79.9686L1346.07 98.3269C1345.06 96.7994 1343.39 95.7721 1341.47 95.5862V-21.0649C1341.73 -21.1021 1341.99 -21.1646 1342.24 -21.2474L1374.41 79.9686ZM1291.22 -35.6839C1291.85 -34.1058 1293.39 -32.9889 1295.2 -32.9889C1297 -32.9889 1298.54 -34.1058 1299.18 -35.6839L1336.73 -26.3958C1336.69 -26.2353 1336.66 -26.0765 1336.63 -25.9075H1254.47C1254.43 -26.1306 1254.38 -26.3435 1254.32 -26.5547L1291.22 -35.6839H1291.22ZM1248.24 -21.5127C1248.46 -21.3961 1248.69 -21.3015 1248.93 -21.2272V95.6656C1247.17 96.0374 1245.71 97.1559 1244.84 98.6597L1215.99 79.9669L1248.24 -21.5144V-21.5127ZM1215.27 80.2255L1244.55 99.192C1244.19 99.9794 1243.98 100.851 1243.98 101.775C1243.98 105.227 1246.77 108.024 1250.22 108.024C1251 108.024 1251.73 107.863 1252.41 107.61L1260.74 121.132L1290.21 169.004C1287.8 170.445 1286.13 172.949 1285.82 175.877L1253.64 174.656L1224.62 173.558C1224.29 168.791 1220.36 165.013 1215.52 165.013C1212.66 165.013 1210.14 166.346 1208.46 168.396L1108.99 105.238C1109.82 104.175 1110.33 102.86 1110.33 101.409C1110.33 98.8828 1108.83 96.7217 1106.68 95.7366L1138.34 35.527C1138.97 35.9005 1139.7 36.1286 1140.49 36.1286C1142.02 36.1286 1143.35 35.326 1144.11 34.128L1215.27 80.2238L1215.27 80.2255ZM1137.83 35.1857L1106.12 95.5271C1105.48 95.3074 1104.8 95.1621 1104.09 95.1621C1101.53 95.1621 1099.35 96.698 1098.38 98.8963L1072.93 84.818C1073.19 84.2587 1073.35 83.642 1073.35 82.9796C1073.35 81.9895 1073 81.0906 1072.44 80.364L1136.84 34.0739C1137.1 34.5014 1137.44 34.8765 1137.83 35.1874L1137.83 35.1857ZM1070.9 86.8456C1071.61 86.5059 1072.21 85.9923 1072.64 85.3435L1098.18 99.4707C1097.98 100.084 1097.84 100.726 1097.84 101.409C1097.84 104.861 1100.64 107.657 1104.09 107.657C1104.52 107.657 1104.94 107.615 1105.34 107.532L1148.78 203.825L1143.53 206.214C1141.93 203.542 1139.03 201.734 1135.69 201.734C1132.68 201.734 1130.02 203.216 1128.35 205.472L1123.8 196.086V196.089L1123.33 195.101L1123.3 195.05H1123.3L1112.7 173.169L1070.9 86.8456ZM1092.36 132.531L1116.65 182.683L1122.33 194.422L1101.7 181.136L1031.52 135.927C1032.01 135.231 1032.3 134.388 1032.3 133.475C1032.3 133.452 1032.29 133.43 1032.29 133.406L1092.36 132.529V132.531ZM1014.09 206.413C1014.48 205.771 1014.71 205.029 1014.71 204.223C1014.71 202.099 1013.17 200.344 1011.15 199.999L1026.06 137.289C1026.64 137.588 1027.3 137.774 1028 137.774C1029.25 137.774 1030.36 137.236 1031.14 136.392L1064.05 157.595L1122.83 195.459L1127.95 206.035C1127.06 207.451 1126.52 209.111 1126.52 210.908C1126.52 215.635 1130.11 219.483 1134.71 219.983L1135.63 221.88V261.856H1103.9C1103.8 258.494 1101.06 255.794 1097.67 255.794C1095.5 255.794 1093.59 256.902 1092.47 258.583L1014.1 206.413H1014.09ZM1011.21 324.604C1013.15 324.181 1014.59 322.466 1014.59 320.408C1014.59 319.535 1014.33 318.72 1013.88 318.044L1092.59 265.656C1093.72 267.25 1095.57 268.294 1097.67 268.294C1100.98 268.294 1103.66 265.714 1103.87 262.459H1135.63V302.43L1134.05 305.693C1130.57 306.997 1128.09 310.326 1128.09 314.259C1128.09 315.229 1128.28 316.148 1128.56 317.029L1122.83 328.846L1030.48 388.339C1029.71 387.591 1028.66 387.126 1027.5 387.126C1027.02 387.126 1026.57 387.224 1026.14 387.366L1011.21 324.605L1011.21 324.604ZM1031.74 390.889C1031.65 390.103 1031.34 389.39 1030.88 388.794L1122.33 329.889L1092.36 391.776L1031.74 390.889H1031.74ZM1092.73 392.383L1123.3 329.262H1123.3L1128.82 317.86C1130.22 321.138 1133.47 323.433 1137.25 323.433C1140.64 323.433 1143.57 321.571 1145.16 318.837L1148.78 320.486L1105.5 416.444C1105.08 416.356 1104.65 416.307 1104.21 416.307C1100.76 416.307 1097.96 419.105 1097.96 422.555C1097.96 423.322 1098.12 424.051 1098.37 424.73L1072.47 439.056C1071.99 438.519 1071.39 438.109 1070.71 437.864L1092.73 392.381V392.383ZM1072.86 444.245C1073.3 443.571 1073.56 442.767 1073.56 441.898C1073.56 441.03 1073.3 440.211 1072.85 439.531L1098.61 425.284C1099.63 427.362 1101.74 428.804 1104.21 428.804C1104.83 428.804 1105.41 428.687 1105.98 428.521L1138.05 489.535C1137.75 489.833 1137.5 490.182 1137.3 490.561L1072.86 444.245H1072.86ZM1144.42 489.98C1143.64 488.973 1142.42 488.315 1141.05 488.315C1140.11 488.315 1139.24 488.63 1138.53 489.147L1106.55 428.341C1108.84 427.413 1110.45 425.178 1110.45 422.557C1110.45 421.19 1110 419.936 1109.26 418.909L1125.74 408.443L1208.44 355.93C1210.09 358.38 1212.89 359.995 1216.06 359.995C1221.12 359.995 1225.23 355.888 1225.23 350.82C1225.23 350.788 1225.22 350.76 1225.22 350.733L1294.65 348.098L1252.13 417.157C1251.41 416.868 1250.63 416.7 1249.81 416.7C1246.36 416.7 1243.56 419.499 1243.56 422.949C1243.56 423.831 1243.75 424.667 1244.08 425.426L1226.44 436.853L1144.42 489.98H1144.42ZM1215.99 444.342L1242.54 427.146L1244.37 425.958C1245.3 427.631 1246.96 428.824 1248.93 429.106V546.217C1248.76 546.271 1248.59 546.325 1248.43 546.399L1215.99 444.342H1215.99ZM1299.12 560.006C1298.49 558.411 1296.94 557.277 1295.12 557.277C1293.31 557.277 1291.78 558.394 1291.14 559.976L1254.46 550.9C1254.49 550.701 1254.52 550.503 1254.52 550.296C1254.52 550.267 1254.51 550.245 1254.51 550.216H1336.58C1336.58 550.245 1336.57 550.267 1336.57 550.296C1336.57 550.444 1336.6 550.586 1336.61 550.732L1299.12 560.006H1299.12ZM1342.04 546.178C1341.85 546.124 1341.66 546.083 1341.47 546.055V429.179C1343.6 429.113 1345.47 427.982 1346.54 426.289L1374.41 444.342L1342.04 546.178H1342.04ZM1375.12 444.085L1346.83 425.759C1347.26 424.911 1347.53 423.966 1347.53 422.947C1347.53 419.495 1344.73 416.699 1341.28 416.699C1340.25 416.699 1339.28 416.976 1338.43 417.42L1329.7 403.259L1295.75 348.097L1337.19 349.666L1365.87 350.756C1365.87 350.776 1365.86 350.797 1365.86 350.819C1365.86 355.886 1369.97 359.994 1375.03 359.994C1378.07 359.994 1380.74 358.498 1382.41 356.221L1481.62 419.213C1481.01 420.181 1480.64 421.323 1480.64 422.555C1480.64 424.956 1482 427.014 1483.99 428.062L1452.03 488.826C1451.43 488.508 1450.76 488.315 1450.04 488.315C1448.53 488.315 1447.21 489.101 1446.44 490.282L1375.12 444.087V444.085ZM1453.6 490.201C1453.32 489.784 1452.96 489.427 1452.55 489.136L1484.52 428.334C1485.25 428.633 1486.04 428.805 1486.88 428.805C1489.23 428.805 1491.25 427.496 1492.32 425.583L1518.08 439.83C1517.74 440.447 1517.53 441.147 1517.53 441.9C1517.53 442.654 1517.72 443.291 1518.04 443.887L1453.6 490.203L1453.6 490.201ZM1519.81 438.122C1519.26 438.416 1518.78 438.825 1518.4 439.322L1492.6 425.054C1492.94 424.289 1493.13 423.447 1493.13 422.557C1493.13 419.105 1490.33 416.309 1486.88 416.309C1486.21 416.309 1485.58 416.44 1484.98 416.635L1441.62 320.489L1445.8 318.582C1447.35 321.459 1450.35 323.434 1453.84 323.434C1457.33 323.434 1460.36 321.439 1461.9 318.539L1467.09 329.264L1519.81 438.124L1519.81 438.122ZM1498.04 391.778L1468.07 329.884L1488.14 342.815L1559.99 389.096C1559.65 389.622 1559.43 390.23 1559.35 390.877L1498.04 391.776V391.778ZM1564.3 387.195C1564.07 387.158 1563.84 387.125 1563.59 387.125C1562.29 387.125 1561.14 387.713 1560.36 388.623L1526.81 367.011L1467.56 328.845L1462.26 317.885C1462.74 316.772 1463.01 315.547 1463.01 314.258C1463.01 310.022 1460.12 306.494 1456.23 305.438L1454.77 302.428V262.458H1487.22C1487.44 265.712 1490.12 268.292 1493.43 268.292C1495.39 268.292 1497.12 267.368 1498.26 265.952L1577.03 318.38C1576.7 318.985 1576.5 319.671 1576.5 320.408C1576.5 322.23 1577.64 323.777 1579.24 324.401L1564.3 387.197L1564.3 387.195Z" fill="white"/>
</g>
<defs>
<linearGradient id="paint0_linear_3345_183" x1="168.804" y1="62.731" x2="396.364" y2="815.367" gradientUnits="userSpaceOnUse">
<stop stop-color="#0C84BC"/>
<stop offset="1" stop-color="#1658A5"/>
</linearGradient>
<clipPath id="clip0_3345_183">
<rect width="434" height="566" fill="white" transform="translate(1006)"/>
</clipPath>
</defs>
</svg>
