<svg width="75" height="75" viewBox="0 0 75 75" fill="none" xmlns="http://www.w3.org/2000/svg">
<rect width="75" height="75" rx="20" fill="#F8FBFD"/>
<path fill-rule="evenodd" clip-rule="evenodd" d="M36.7906 52.4943C36.9948 52.5025 37.2007 52.5065 37.4077 52.5065C39.7991 52.5065 42.0638 51.9589 44.0821 50.9822C43.8614 50.7692 43.6221 50.5259 43.364 50.248C41.9484 48.7235 41.0273 46.8314 40.5186 45.1362C40.2109 44.111 40.2199 41.9904 39.7381 40.1919C39.5311 39.4191 39.2521 38.6966 38.6634 38.3101C38.3194 38.0838 37.8705 38.0066 37.2954 38.0738C35.867 38.2403 35.4036 39.2901 35.2703 40.507C35.0863 42.1895 35.4685 44.1805 35.6892 45.6514C35.8412 46.6647 36.1293 48.6704 36.4367 50.7258C36.5405 51.4192 36.6669 52.011 36.7906 52.4943ZM31.9252 51.4978C32.6891 51.7898 33.4812 52.0227 34.2965 52.1908C34.2264 51.8477 34.1595 51.4759 34.0997 51.0755C33.7923 49.0204 33.5042 47.0152 33.3522 46.0022C33.0501 43.9902 32.5612 41.1203 33.1514 39.0343C33.6442 37.2931 34.7667 35.9892 37.0217 35.7263C39.4934 35.4382 40.8382 36.6451 41.6078 38.3869C42.0771 39.4492 42.3003 40.7486 42.4429 41.9541C42.5621 42.9625 42.6122 43.8918 42.7818 44.4567C43.1976 45.842 43.9388 47.3943 45.0959 48.6401C45.5479 49.1267 45.929 49.4798 46.22 49.7256C46.8864 49.2575 47.5142 48.7379 48.0973 48.1725C47.7729 47.9402 47.4584 47.7003 47.1762 47.4615C46.0169 46.4806 45.3275 45.01 44.9648 43.8016C44.5724 42.494 44.6013 39.5224 43.6924 37.4655C42.5303 34.835 40.4908 33.0272 36.758 33.4625C33.3802 33.8561 31.6963 35.8057 30.9584 38.4136C30.2869 40.7863 30.7548 44.0523 31.0982 46.3405C31.1893 46.9477 31.3285 47.9022 31.4919 49.0116C31.643 50.039 31.7961 50.8705 31.9252 51.4978ZM26.6384 48.0948C27.4386 48.8823 28.3251 49.5827 29.2819 50.1808C29.2394 49.9205 29.1965 49.6451 29.1537 49.3556C28.991 48.249 28.852 47.2971 28.7612 46.691C28.3747 44.1164 27.9289 40.44 28.6844 37.7704C29.6767 34.2639 31.9428 31.6447 36.4843 31.1153C41.525 30.5277 44.2845 32.9586 45.8542 36.5104C46.8036 38.6597 46.8183 41.7559 47.2284 43.1222C47.4771 43.9511 47.9076 44.9847 48.7027 45.6577C48.9962 45.9061 49.3292 46.1556 49.6698 46.3938C50.0517 45.8888 50.4031 45.3588 50.7216 44.8072C50.2423 44.2945 49.8138 43.6491 49.4627 42.8238C49.4094 42.6985 49.3663 42.5819 49.3385 42.4886C48.9117 41.0676 48.857 37.8555 47.8693 35.62C45.9202 31.2092 42.4889 28.1972 36.2291 28.9269C30.6025 29.5828 27.7937 32.8261 26.5646 37.1703C26.0062 39.1435 26.0221 41.6214 26.2104 43.8875C26.2717 44.6266 26.494 46.7404 26.6384 48.0948ZM23.887 44.4374C23.874 44.2993 23.8632 44.1796 23.8553 44.0829C23.6434 41.5332 23.6624 38.7471 24.2906 36.5269C25.774 31.2843 29.1651 27.3712 35.9554 26.5797C43.5231 25.6975 47.6745 29.3324 50.0308 34.6649C51.0596 36.9928 51.1577 40.3292 51.6018 41.8092C51.6095 41.8344 51.6231 41.865 51.6375 41.8991C51.707 42.0624 51.7813 42.215 51.8601 42.3576C52.4477 40.7307 52.7682 38.9753 52.7682 37.1459C52.7682 28.668 45.8854 21.7852 37.4077 21.7852C28.9297 21.7852 22.0469 28.668 22.0469 37.1459C22.0469 39.7841 22.7136 42.268 23.887 44.4374Z" fill="#0C84BC"/>
</svg>
