<svg width="38" height="38" viewBox="0 0 38 38" fill="none" xmlns="http://www.w3.org/2000/svg">
<path fill-rule="evenodd" clip-rule="evenodd" d="M18.2906 34.256C18.4948 34.2642 18.7007 34.2682 18.9077 34.2682C21.2991 34.2682 23.5638 33.7206 25.5821 32.7439C25.3614 32.531 25.1221 32.2876 24.864 32.0097C23.4484 30.4852 22.5273 28.5931 22.0186 26.8979C21.7109 25.8727 21.7199 23.7521 21.2381 21.9536C21.0311 21.1809 20.7521 20.4583 20.1634 20.0718C19.8194 19.8455 19.3705 19.7683 18.7954 19.8355C17.367 20.002 16.9036 21.0518 16.7703 22.2687C16.5863 23.9512 16.9685 25.9422 17.1892 27.4131C17.3412 28.4264 17.6293 30.4322 17.9367 32.4876C18.0405 33.1809 18.1669 33.7728 18.2906 34.256ZM13.4252 33.2595C14.1891 33.5516 14.9812 33.7844 15.7965 33.9525C15.7264 33.6094 15.6595 33.2376 15.5997 32.8372C15.2923 30.7821 15.0042 28.7769 14.8522 27.7639C14.5501 25.7519 14.0612 22.8821 14.6514 20.796C15.1442 19.0548 16.2667 17.7509 18.5217 17.4881C20.9934 17.1999 22.3382 18.4069 23.1078 20.1486C23.5771 21.2109 23.8003 22.5103 23.9429 23.7158C24.0621 24.7242 24.1122 25.6535 24.2818 26.2184C24.6976 27.6037 25.4388 29.156 26.5959 30.4018C27.0479 30.8884 27.429 31.2415 27.72 31.4874C28.3864 31.0192 29.0142 30.4997 29.5973 29.9342C29.2729 29.7019 28.9584 29.462 28.6762 29.2232C27.5169 28.2423 26.8275 26.7717 26.4648 25.5633C26.0724 24.2557 26.1013 21.2841 25.1924 19.2273C24.0303 16.5968 21.9908 14.7889 18.258 15.2242C14.8802 15.6178 13.1963 17.5675 12.4584 20.1753C11.7869 22.548 12.2548 25.814 12.5982 28.1022C12.6893 28.7094 12.8285 29.6639 12.9919 30.7733C13.143 31.8007 13.2961 32.6322 13.4252 33.2595ZM8.13835 29.8565C8.93862 30.644 9.8251 31.3444 10.7819 31.9425C10.7394 31.6822 10.6965 31.4068 10.6537 31.1173C10.491 30.0108 10.352 29.0588 10.2612 28.4528C9.87473 25.8781 9.42893 22.2018 10.1844 19.5321C11.1767 16.0256 13.4428 13.4065 17.9843 12.877C23.025 12.2894 25.7845 14.7203 27.3542 18.2722C28.3036 20.4214 28.3183 23.5176 28.7284 24.8839C28.9771 25.7128 29.4076 26.7464 30.2027 27.4194C30.4962 27.6678 30.8292 27.9174 31.1698 28.1556C31.5517 27.6505 31.9031 27.1205 32.2216 26.5689C31.7423 26.0562 31.3138 25.4108 30.9627 24.5855C30.9094 24.4602 30.8663 24.3437 30.8385 24.2504C30.4117 22.8293 30.357 19.6172 29.3693 17.3817C27.4202 12.9709 23.9889 9.95895 17.7291 10.6886C12.1025 11.3445 9.29367 14.5879 8.06462 18.9321C7.50625 20.9052 7.52213 23.3832 7.71043 25.6493C7.77168 26.3883 7.99401 28.5021 8.13835 29.8565ZM5.38704 26.1991C5.37399 26.061 5.36322 25.9414 5.35528 25.8447C5.14344 23.295 5.16244 20.5088 5.79058 18.2886C7.27399 13.046 10.6651 9.13287 17.4554 8.3414C25.0231 7.45917 29.1745 11.0941 31.5308 16.4266C32.5596 18.7545 32.6577 22.0909 33.1018 23.5709C33.1095 23.5961 33.1231 23.6268 33.1375 23.6608C33.207 23.8241 33.2813 23.9767 33.3601 24.1193C33.9477 22.4924 34.2682 20.7371 34.2682 18.9077C34.2682 10.4297 27.3854 3.54688 18.9077 3.54688C10.4297 3.54688 3.54688 10.4297 3.54688 18.9077C3.54688 21.5458 4.21358 24.0297 5.38704 26.1991Z" fill="#0C84BC"/>
</svg>
