<svg width="77" height="76" viewBox="0 0 77 76" fill="none" xmlns="http://www.w3.org/2000/svg">
<rect width="75" height="75" rx="20" fill="white"/>
<g clip-path="url(#clip0_3277_966)">
<path d="M21.3398 32.3359H19.1133C18.4979 32.3359 18 32.8339 18 33.4492C18 34.0646 18.4979 34.5625 19.1133 34.5625H21.3398C21.9552 34.5625 22.4531 34.0646 22.4531 33.4492C22.4531 32.8339 21.9552 32.3359 21.3398 32.3359Z" fill="#EF6A24"/>
<path d="M21.8731 26.7675L20.2988 25.1933C19.864 24.7585 19.1594 24.7585 18.7246 25.1933C18.2897 25.6282 18.2897 26.3327 18.7246 26.7676L20.2988 28.3418C20.7337 28.7767 21.4382 28.7767 21.8731 28.3418C22.3079 27.9069 22.3079 27.2024 21.8731 26.7675Z" fill="#EF6A24"/>
<path d="M21.8731 38.5527C21.4382 38.1179 20.7337 38.1178 20.2988 38.5527L18.7246 40.127C18.2897 40.5618 18.2897 41.2664 18.7246 41.7012C19.1595 42.1362 19.8639 42.1362 20.2988 41.7012L21.8731 40.127C22.3079 39.6921 22.3079 38.9876 21.8731 38.5527Z" fill="#EF6A24"/>
<path d="M54.8867 32.3359H52.6602C52.0448 32.3359 51.5469 32.8339 51.5469 33.4492C51.5469 34.0646 52.0448 34.5625 52.6602 34.5625H54.8867C55.5021 34.5625 56 34.0646 56 33.4492C56 32.8339 55.5021 32.3359 54.8867 32.3359Z" fill="#EF6A24"/>
<path d="M55.2715 25.1933C54.8367 24.7585 54.1321 24.7585 53.6973 25.1933L52.123 26.7676C51.6882 27.2024 51.6882 27.907 52.123 28.3418C52.5579 28.7768 53.2623 28.7768 53.6973 28.3418L55.2715 26.7676C55.7064 26.3327 55.7064 25.6282 55.2715 25.1933Z" fill="#EF6A24"/>
<path d="M55.2715 40.1269L53.6973 38.5527C53.2624 38.1179 52.5579 38.1179 52.123 38.5527C51.6882 38.9875 51.6882 39.6921 52.123 40.127L53.6973 41.7011C54.1322 42.1361 54.8366 42.1361 55.2715 41.7011C55.7064 41.2663 55.7064 40.5617 55.2715 40.1269Z" fill="#EF6A24"/>
<path d="M45.4199 21.8917C42.2801 19.339 38.1608 18.3562 34.1305 19.2041C29.1056 20.2533 25.0134 24.4066 23.948 29.4295C23.0423 33.7032 24.1599 37.9933 27.0127 41.2005C28.1661 42.4984 28.8697 44.0648 29.1004 45.6971H32.5465V35.6776C32.5465 35.2464 35.8109 28.8855 36.0038 28.5C36.3821 27.7454 37.6171 27.7454 37.9955 28.5C38.1974 28.9039 41.4527 35.268 41.4527 35.6776V45.6971H44.9027C45.1413 44.0726 45.8655 42.4812 47.0517 41.1277C49.1849 38.6956 50.359 35.5732 50.359 32.3377C50.359 28.2966 48.5586 24.4422 45.4199 21.8917Z" fill="#EF6A24"/>
<path d="M37 37.8042C36.2473 37.8042 35.4975 37.673 34.7734 37.4336V45.695H39.2266V37.4336C38.5025 37.673 37.7527 37.8042 37 37.8042Z" fill="#EF6A24"/>
<path d="M29.2031 47.9219V49.0352C29.2031 50.8768 30.7013 52.375 32.543 52.375H41.4492C43.2909 52.375 44.7891 50.8768 44.7891 49.0352V47.9219H29.2031Z" fill="#EF6A24"/>
<path d="M37.0039 31.4844L35.1641 35.164C36.353 35.6511 37.6547 35.6511 38.8437 35.164L37.0039 31.4844Z" fill="#EF6A24"/>
<path d="M31.6406 54.6016C32.1017 55.8946 33.3259 56.9023 34.7754 56.9023H39.2285C40.678 56.9023 41.9022 55.8946 42.3633 54.6016H31.6406Z" fill="#EF6A24"/>
</g>
<defs>
<clipPath id="clip0_3277_966">
<rect width="48" height="38" fill="white" transform="translate(19.1172 18.6211)"/>
</clipPath>
</defs>
</svg>
