<svg width="75" height="76" viewBox="0 0 75 76" fill="none" xmlns="http://www.w3.org/2000/svg">
<rect width="75" height="75" rx="20" fill="#FCF7F5"/>
<path d="M26.9141 38.0878C26.9146 40.0824 27.5067 42.032 28.6153 43.6902C29.7239 45.3483 31.2994 46.6404 33.1423 47.4032C34.9853 48.1659 37.0131 48.365 38.9693 47.9753C40.9254 47.5856 42.7221 46.6246 44.1321 45.2138C45.542 43.803 46.502 42.0058 46.8906 40.0494C47.2791 38.093 47.0788 36.0653 46.3149 34.2228C45.5511 32.3803 44.258 30.8056 42.5993 29.698C40.9405 28.5903 38.9905 27.9994 36.9959 28C34.3221 28.0036 31.7589 29.0677 29.8688 30.959C27.9787 32.8502 26.9161 35.414 26.9141 38.0878ZM30.6487 38.1116L32.43 36.3303C32.5423 36.2218 32.6924 36.1611 32.8486 36.1611C33.0048 36.1611 33.1549 36.2218 33.2672 36.3303L35.3156 38.3787L40.7306 32.9697C40.842 32.8594 40.9924 32.7975 41.1492 32.7975C41.306 32.7975 41.4564 32.8594 41.5678 32.9697L43.3491 34.7509C43.4041 34.8059 43.4478 34.8711 43.4776 34.9429C43.5074 35.0148 43.5227 35.0918 43.5227 35.1695C43.5227 35.2473 43.5074 35.3243 43.4776 35.3961C43.4478 35.468 43.4041 35.5332 43.3491 35.5881L35.7372 43.2C35.683 43.2563 35.618 43.3011 35.5461 43.3318C35.4741 43.3624 35.3968 43.3781 35.3186 43.3781C35.2404 43.3781 35.1631 43.3624 35.0911 43.3318C35.0192 43.3011 34.9542 43.2563 34.9 43.2L30.6487 38.9487C30.5937 38.8938 30.55 38.8286 30.5202 38.7568C30.4904 38.6849 30.4751 38.6079 30.4751 38.5302C30.4751 38.4524 30.4904 38.3754 30.5202 38.3036C30.55 38.2317 30.5937 38.1665 30.6487 38.1116Z" fill="#EF6A24"/>
<path d="M42.0891 35.1706L41.145 34.2266L35.7359 39.6356C35.681 39.6907 35.6158 39.7344 35.5439 39.7642C35.4721 39.794 35.3951 39.8093 35.3173 39.8093C35.2396 39.8093 35.1626 39.794 35.0907 39.7642C35.0189 39.7344 34.9537 39.6907 34.8987 39.6356L32.8444 37.5872L31.9062 38.5313L35.3144 41.9453L42.0891 35.1706Z" fill="#EF6A24"/>
<path d="M40.8 23.0116C40.1327 22.8601 39.4564 22.7512 38.7753 22.6858L39.6749 21.9309C39.7918 21.8287 39.8641 21.6847 39.8761 21.5299C39.8882 21.375 39.839 21.2217 39.7392 21.1027C39.6394 20.9837 39.4969 20.9085 39.3423 20.8934C39.1877 20.8783 39.0334 20.9244 38.9124 21.0219L36.8603 22.7443C36.8006 22.7943 36.7514 22.8557 36.7154 22.9248C36.6795 22.9939 36.6575 23.0694 36.6507 23.147C36.6439 23.2246 36.6525 23.3028 36.6759 23.3771C36.6994 23.4514 36.7372 23.5203 36.7873 23.58L38.5092 25.6323C38.5648 25.6989 38.6344 25.7524 38.713 25.7891C38.7916 25.8257 38.8773 25.8446 38.964 25.8444C39.0762 25.8428 39.1857 25.8096 39.2799 25.7486C39.3741 25.6875 39.4492 25.6012 39.4965 25.4995C39.5439 25.3977 39.5616 25.2847 39.5476 25.1734C39.5337 25.062 39.4886 24.9568 39.4176 24.8699L38.568 23.857C47.8171 24.4833 54.1871 34.4379 51.0057 43.1224C50.9541 43.271 50.9637 43.434 51.0322 43.5756C51.1008 43.7172 51.2229 43.8257 51.3715 43.8773C51.5201 43.9289 51.6831 43.9194 51.8247 43.8508C51.9663 43.7822 52.0748 43.6602 52.1264 43.5116C52.8473 41.4245 53.1217 39.2093 52.9318 37.0095C52.742 34.8096 52.0921 32.6742 51.0243 30.7416C49.9564 28.8089 48.4945 27.1221 46.7332 25.7905C44.9719 24.4589 42.9505 23.5122 40.8 23.0116Z" fill="#EF6A24"/>
<path d="M25.2349 42.8557C25.0871 42.8023 24.9241 42.8097 24.7817 42.8761C24.6392 42.9425 24.5289 43.0627 24.4748 43.2103L24.02 44.4594C23.0929 42.4532 22.6346 40.2623 22.6797 38.0527C22.7249 35.8431 23.2724 33.6728 24.2808 31.7062C25.2892 29.7395 26.7319 28.0282 28.4998 26.7019C30.2676 25.3756 32.3141 24.469 34.4843 24.051C34.6386 24.0212 34.7748 23.9314 34.863 23.8013C34.9512 23.6713 34.9842 23.5115 34.9548 23.3571C34.9253 23.2027 34.8358 23.0663 34.7059 22.9779C34.576 22.8894 34.4163 22.8561 34.2618 22.8853C25.2228 24.5024 19.3227 34.1913 22.172 42.9479C22.3731 43.599 22.6158 44.2366 22.8984 44.8568L21.8005 44.457C21.6535 44.4069 21.4928 44.4163 21.3527 44.4834C21.2126 44.5504 21.1045 44.6697 21.0514 44.8156C20.9983 44.9615 21.0045 45.1224 21.0688 45.2638C21.133 45.4052 21.2501 45.5157 21.3949 45.5717L23.9128 46.4882C24.0606 46.5418 24.2237 46.5345 24.3662 46.4681C24.5087 46.4016 24.619 46.2813 24.6729 46.1337L25.5895 43.6158C25.6162 43.5426 25.6282 43.4649 25.6248 43.387C25.6215 43.3092 25.6028 43.2328 25.5698 43.1622C25.5369 43.0916 25.4904 43.0282 25.4329 42.9756C25.3754 42.923 25.3081 42.8823 25.2349 42.8557Z" fill="#EF6A24"/>
<path d="M50.7074 45.4433C50.6437 45.3984 50.5717 45.3666 50.4956 45.3498C50.4195 45.3329 50.3409 45.3315 50.2642 45.3454L47.6258 45.8106C47.4736 45.8408 47.3393 45.9295 47.2518 46.0575C47.1642 46.1855 47.1302 46.3428 47.1572 46.4956C47.1842 46.6484 47.27 46.7845 47.3961 46.8748C47.5223 46.9651 47.6788 47.0023 47.8321 46.9786L49.1191 46.7517C47.846 48.5551 46.1793 50.0452 44.2452 51.1092C42.311 52.1732 40.1601 52.7831 37.9554 52.8928C35.7506 53.0026 33.5498 52.6092 31.5196 51.7425C29.4894 50.8758 27.6829 49.5586 26.2371 47.8905C26.1331 47.7756 25.9883 47.7059 25.8336 47.6963C25.6789 47.6867 25.5265 47.738 25.4091 47.8392C25.2918 47.9405 25.2186 48.0836 25.2053 48.238C25.192 48.3924 25.2397 48.546 25.338 48.6657C26.826 50.3705 28.6599 51.7388 30.7179 52.6796C32.7758 53.6204 35.0105 54.1121 37.2733 54.122C39.7757 54.1186 42.2409 53.5157 44.4625 52.3638C46.684 51.2119 48.5973 49.5445 50.042 47.5012L50.2486 48.6715C50.2788 48.8237 50.3674 48.9579 50.4955 49.0455C50.6235 49.1331 50.7808 49.1671 50.9336 49.1401C51.0863 49.1131 51.2225 49.0273 51.3127 48.9012C51.403 48.775 51.4403 48.6185 51.4165 48.4652L50.9513 45.8262C50.9378 45.7495 50.9093 45.6762 50.8675 45.6105C50.8256 45.5448 50.7712 45.488 50.7074 45.4433Z" fill="#EF6A24"/>
</svg>
