<svg width="75" height="75" viewBox="0 0 75 75" fill="none" xmlns="http://www.w3.org/2000/svg">
<rect width="75" height="75" rx="20" fill="white"/>
<path d="M38.3012 33.0597C36.5693 33.3045 35.0566 34.9304 35.0419 34.945C35.0202 34.9676 34.9956 34.9872 34.9689 35.0035C32.6158 36.5308 31.2894 35.3689 31.2346 35.2995C29.7293 33.9439 31.1104 31.6712 31.1689 31.5762C31.7855 30.5513 32.5322 29.6105 33.3904 28.7773H26.9998L24.2266 37.9266C24.2563 37.9431 24.2835 37.964 24.3069 37.9887C28.6112 42.8556 34.3258 47.1745 36.5802 48.8041C36.8148 48.9776 37.1066 49.0555 37.3965 49.022C37.6863 48.9886 37.9527 48.8463 38.1416 48.6239C38.3306 48.4015 38.428 48.1157 38.4142 47.8242C38.4004 47.5328 38.2764 47.2574 38.0673 47.0539L34.9652 43.9518C34.8972 43.8833 34.859 43.7907 34.859 43.6942C34.859 43.5976 34.8972 43.505 34.9652 43.4366C34.9992 43.4023 35.0396 43.3751 35.0841 43.3566C35.1286 43.338 35.1764 43.3285 35.2246 43.3285C35.2729 43.3285 35.3206 43.338 35.3652 43.3566C35.4097 43.3751 35.4501 43.4023 35.4841 43.4366L37.1356 45.0881L38.5971 46.5497L39.3279 47.2987C39.5901 47.554 39.9418 47.6965 40.3077 47.6956C40.6737 47.6947 41.0247 47.5505 41.2856 47.2939C41.5465 47.0373 41.6965 46.6887 41.7035 46.3229C41.7105 45.957 41.5738 45.6029 41.3229 45.3366L38.4766 42.366L37.9358 41.807C37.9015 41.773 37.8744 41.7326 37.8558 41.6881C37.8373 41.6435 37.8277 41.5958 37.8277 41.5475C37.8277 41.4993 37.8373 41.4515 37.8558 41.407C37.8744 41.3625 37.9015 41.3221 37.9358 41.2881C37.9698 41.2539 38.0102 41.2267 38.0547 41.2081C38.0992 41.1896 38.147 41.18 38.1952 41.18C38.2435 41.18 38.2912 41.1896 38.3357 41.2081C38.3803 41.2267 38.4207 41.2539 38.4546 41.2881L42.6091 45.5997C42.8102 45.7988 43.0649 45.9352 43.3421 45.9923C43.6193 46.0494 43.9071 46.0249 44.1707 45.9215C44.4342 45.8182 44.662 45.6406 44.8265 45.4103C44.991 45.18 45.0851 44.9068 45.0973 44.6241C45.1034 44.4249 45.0675 44.2266 44.992 44.0422C44.9164 43.8577 44.8029 43.6912 44.6589 43.5535L42.1669 41.142L40.4314 39.4575C40.3927 39.4253 40.3612 39.3854 40.3387 39.3404C40.3162 39.2954 40.3032 39.2463 40.3006 39.196C40.2979 39.1458 40.3057 39.0955 40.3234 39.0484C40.3411 39.0013 40.3684 38.9584 40.4034 38.9223C40.4385 38.8862 40.4807 38.8578 40.5272 38.8387C40.5738 38.8197 40.6238 38.8105 40.6741 38.8117C40.7244 38.8129 40.7739 38.8245 40.8196 38.8457C40.8652 38.8669 40.9059 38.8973 40.9393 38.935L45.8719 43.7106C46.0013 43.8435 46.1562 43.9488 46.3274 44.0202C46.4985 44.0916 46.6824 44.1276 46.8678 44.126C47.0533 44.1245 47.2365 44.0854 47.4064 44.0112C47.5763 43.9369 47.7295 43.829 47.8566 43.694C47.9837 43.559 48.0822 43.3996 48.1461 43.2255C48.21 43.0514 48.2379 42.8662 48.2283 42.681C48.2187 42.4958 48.1717 42.3145 48.0901 42.1479C48.0085 41.9814 47.8941 41.8331 47.7537 41.712L38.3012 33.0597Z" fill="url(#paint0_linear_3270_1938)"/>
<path d="M25.8872 26.6355C23.9904 25.7827 21.922 25.38 19.8438 25.4589V39.7893H22.0763C22.3145 39.7899 22.5465 39.7128 22.737 39.5697C22.9276 39.4267 23.0663 39.2254 23.1322 38.9964L26.4864 27.9509C26.5631 27.6962 26.5446 27.4224 26.4344 27.1804C26.3241 26.9384 26.1297 26.7447 25.8872 26.6355Z" fill="url(#paint1_linear_3270_1938)"/>
<path d="M39.4902 27.3403C38.7022 27.016 37.8218 26.9964 37.0202 27.2855C35.6208 27.7971 33.5783 29.0247 31.7842 31.9551C31.7842 31.9771 30.6625 33.7821 31.7185 34.754C31.755 34.7869 32.6977 35.5761 34.5246 34.4105C34.7877 34.1365 36.4356 32.4849 38.3831 32.3059C38.4334 32.3017 38.4841 32.3079 38.5319 32.3243C38.5797 32.3406 38.6236 32.3667 38.6608 32.4009L48.2375 41.1701C48.2814 41.2103 48.3216 41.2542 48.3617 41.298C49.4579 41.1299 50.1887 40.1288 50.4006 39.7634L46.9294 30.3036L39.4902 27.3403Z" fill="url(#paint2_linear_3270_1938)"/>
<path d="M54.1892 27.1996C52.1051 27.1857 50.038 27.5753 48.1019 28.3469C47.8415 28.4585 47.6344 28.6665 47.5241 28.9274C47.4137 29.1883 47.4087 29.4818 47.5099 29.7463L51.5767 40.8138C51.6561 41.0273 51.7986 41.2116 51.9852 41.3421C52.1719 41.4727 52.3939 41.5433 52.6217 41.5446H54.9199V27.2178C54.7373 27.2069 54.4851 27.1996 54.1892 27.1996Z" fill="url(#paint3_linear_3270_1938)"/>
<defs>
<linearGradient id="paint0_linear_3270_1938" x1="32.1893" y1="28.7773" x2="49.0289" y2="42.2732" gradientUnits="userSpaceOnUse">
<stop stop-color="#EF6A24"/>
<stop offset="1" stop-color="#F99D3C"/>
</linearGradient>
<linearGradient id="paint1_linear_3270_1938" x1="22.0628" y1="25.4492" x2="29.0724" y2="27.6602" gradientUnits="userSpaceOnUse">
<stop stop-color="#EF6A24"/>
<stop offset="1" stop-color="#F99D3C"/>
</linearGradient>
<linearGradient id="paint2_linear_3270_1938" x1="37.6133" y1="27.082" x2="49.6711" y2="38.0565" gradientUnits="userSpaceOnUse">
<stop stop-color="#EF6A24"/>
<stop offset="1" stop-color="#F99D3C"/>
</linearGradient>
<linearGradient id="paint3_linear_3270_1938" x1="49.9197" y1="27.1992" x2="57.5868" y2="29.9034" gradientUnits="userSpaceOnUse">
<stop stop-color="#EF6A24"/>
<stop offset="1" stop-color="#F99D3C"/>
</linearGradient>
</defs>
</svg>
