<svg width="78" height="76" viewBox="0 0 78 76" fill="none" xmlns="http://www.w3.org/2000/svg">
<rect x="2" y="0.480469" width="75" height="75" rx="20" fill="white"/>
<path d="M31.2387 41.5469H20V56.639H31.2387V41.5469Z" fill="#0C84BC"/>
<path d="M57.9965 37.6719H46.7578V56.6417H57.9965V37.6719Z" fill="#0C84BC"/>
<path d="M44.6248 32.043H33.3828V56.6403H44.6248V32.043Z" fill="#0C84BC"/>
<path d="M52.4688 26.2344L54.0603 29.4631L57.625 29.9817L55.0485 32.4946L55.6551 36.0446L52.4688 34.3683L49.2824 36.0446L49.889 32.4946L47.3125 29.9817L50.874 29.4631L52.4688 26.2344Z" fill="#0C84BC"/>
<path d="M39.0625 20.6406L40.6557 23.871L44.2204 24.3896L41.6439 26.9042L42.2522 30.4509L39.0642 28.7762L35.8762 30.4509L36.4828 26.9042L33.9062 24.3896L37.4693 23.871L39.0625 20.6406Z" fill="#0C84BC"/>
<path d="M25.4218 30L27.0134 33.2304L30.5781 33.7506L28.0032 36.2619L28.6098 39.8103L25.4218 38.1355L22.2338 39.8119L22.8421 36.2635L20.2656 33.7522L23.8287 33.232L25.4218 30Z" fill="#0C84BC"/>
</svg>
