<svg width="202" height="44" viewBox="0 0 202 44" fill="none" xmlns="http://www.w3.org/2000/svg">
<path d="M191.386 5.46126C190.709 7.55426 189.193 9.18737 187.083 9.89711C186.931 9.9478 186.661 9.9985 186.538 10.0601C186.363 10.1506 186.36 10.4077 186.538 10.4982C186.658 10.5598 186.938 10.6105 187.087 10.6612C189.087 11.3311 190.677 12.9388 191.339 14.9341C191.382 15.0717 191.422 15.2926 191.481 15.412C191.521 15.4917 191.59 15.5279 191.67 15.5569H191.739C191.819 15.5315 191.888 15.4917 191.928 15.412C191.997 15.2636 192.048 14.9884 192.11 14.8182C192.786 12.8845 194.343 11.3419 196.289 10.6756C196.46 10.6177 196.645 10.5815 196.812 10.5236C196.932 10.4801 196.976 10.4185 197.005 10.2954V10.2737L196.976 10.1832C196.958 10.147 196.936 10.1108 196.903 10.089C196.827 10.0311 196.569 9.98402 196.46 9.9478C194.292 9.24531 192.732 7.65565 192.033 5.50109C191.975 5.32366 191.961 5.01587 191.713 5.01225H191.71C191.47 5.01225 191.455 5.29831 191.397 5.4685" fill="white"/>
<mask id="mask0_1707_443" style="mask-type:luminance" maskUnits="userSpaceOnUse" x="186" y="5" width="12" height="11">
<path d="M191.386 5.46126C190.709 7.55426 189.193 9.18737 187.083 9.89711C186.931 9.9478 186.661 9.9985 186.538 10.0601C186.363 10.1506 186.36 10.4077 186.538 10.4982C186.658 10.5598 186.938 10.6105 187.087 10.6612C189.087 11.3311 190.677 12.9388 191.339 14.9341C191.382 15.0717 191.422 15.2926 191.481 15.412C191.521 15.4917 191.59 15.5279 191.67 15.5569H191.739C191.819 15.5315 191.888 15.4917 191.928 15.412C191.997 15.2636 192.048 14.9884 192.11 14.8182C192.786 12.8845 194.343 11.3419 196.289 10.6756C196.46 10.6177 196.645 10.5815 196.812 10.5236C196.932 10.4801 196.976 10.4185 197.005 10.2954V10.2737L196.976 10.1832C196.958 10.147 196.936 10.1108 196.903 10.089C196.827 10.0311 196.569 9.98402 196.46 9.9478C194.292 9.24531 192.732 7.65565 192.033 5.50109C191.975 5.32366 191.961 5.01587 191.713 5.01225H191.71C191.47 5.01225 191.455 5.29831 191.397 5.4685" fill="white"/>
</mask>
<g mask="url(#mask0_1707_443)">
<path d="M193.406 -0.0165915L181.344 8.53336L189.926 20.5333L201.987 11.9833L193.406 -0.0165915Z" fill="white"/>
</g>
<path d="M53.4227 18.5439L52.7971 19.3695C52.9863 19.0798 53.1936 18.8046 53.4227 18.5439Z" fill="white"/>
<path d="M64.6856 29.1601C63.951 28.4286 62.8235 28.3164 61.9288 28.8378C60.925 29.4244 59.7538 29.7612 58.5063 29.7612C54.7602 29.7612 51.7233 26.7376 51.7233 23.0078C51.7233 21.6717 52.1125 20.426 52.7817 19.3795L47.6426 26.1691C49.0137 30.8512 53.3563 34.2731 58.5027 34.2731C60.6194 34.2731 62.6053 33.6937 64.3001 32.6834C65.5476 31.9411 65.7476 30.2211 64.722 29.1999L64.682 29.1601H64.6856ZM49.0755 16.7832L49.883 15.715C49.592 16.0553 49.3229 16.4102 49.0755 16.7832Z" fill="#EF6A24"/>
<path d="M64.7301 16.8174L64.6938 16.8536C63.9591 17.5851 62.8316 17.6974 61.9369 17.1759C60.9331 16.5893 59.762 16.2562 58.5145 16.2562C56.4887 16.2562 54.6702 17.1397 53.4263 18.5411C53.1935 18.8018 52.9862 19.0806 52.7971 19.3703V19.3775L47.6543 26.1671L44.0173 30.9723C41.9697 33.011 39.1437 34.2711 36.0195 34.2711H35.9795C35.9359 34.2711 35.8959 34.2711 35.8522 34.2711C29.6802 34.1842 24.7084 29.1726 24.7084 23.0095C24.7084 16.8464 29.7748 11.7479 36.0232 11.7479C38.1435 11.7479 40.1257 12.3273 41.8206 13.3376C43.0681 14.0799 43.2681 15.7999 42.2388 16.821L42.1988 16.8609C41.4641 17.5923 40.3367 17.7046 39.442 17.1832C38.4381 16.5965 37.267 16.2634 36.0195 16.2634C32.2734 16.2634 29.2365 19.287 29.2365 23.0131C29.2365 26.7392 32.2734 29.7665 36.0195 29.7665C37.8017 29.7665 39.4238 29.0821 40.6349 27.9559L40.7295 27.8328L49.0837 16.7921L49.8911 15.7239C51.9642 13.2941 55.0593 11.7515 58.5145 11.7515H58.569C60.6676 11.7624 62.6316 12.3417 64.3119 13.3412C65.5558 14.0835 65.7558 15.8035 64.7301 16.8247V16.8174Z" fill="white"/>
<path d="M11.3111 11.7515C5.06273 11.7515 0 16.7921 0 23.0095C0 29.2269 5.06273 34.2711 11.3111 34.2711C17.5595 34.2711 22.6186 29.2269 22.6186 23.0095C22.6186 16.7921 17.5559 11.7479 11.3111 11.7479V11.7515ZM11.3111 29.7592C7.565 29.7592 4.53172 26.7392 4.53172 23.0095C4.53172 19.2798 7.56863 16.2598 11.3111 16.2598C15.0536 16.2598 18.0905 19.2834 18.0905 23.0095C18.0905 26.7356 15.0536 29.7592 11.3111 29.7592Z" fill="white"/>
<path d="M78.5162 11.7505C72.1369 11.7868 67.0087 17.0808 67.2815 23.501C67.5288 29.2731 72.2169 33.9769 78.0143 34.2593C80.7748 34.3933 83.3316 33.5423 85.3611 32.0251C85.3611 32.6407 85.6121 33.1983 86.0158 33.6003C86.4231 34.0058 86.9796 34.2521 87.5979 34.2521H87.6561C88.889 34.2521 89.8928 33.2563 89.8928 32.0251V23.1932C89.8928 16.9215 84.8192 11.7143 78.5162 11.7505ZM78.5817 29.7583C74.8356 29.7583 71.8023 26.7383 71.8023 23.0085C71.8023 19.2788 74.8392 16.2588 78.5817 16.2588C82.3242 16.2588 85.3611 19.2824 85.3611 23.0085C85.3611 26.7347 82.3242 29.7583 78.5817 29.7583Z" fill="white"/>
<path d="M120.66 19.6988V32.0033C120.66 33.2454 119.649 34.2557 118.398 34.2557C117.15 34.2557 116.135 33.249 116.135 32.0033V19.6481C116.135 17.7941 114.611 16.2226 112.749 16.2552C110.945 16.2878 109.49 17.7579 109.49 19.5612V32.0033C109.49 33.2454 108.479 34.2557 107.228 34.2557C105.981 34.2557 104.966 33.249 104.966 32.0033V19.6481C104.966 17.7941 103.442 16.219 101.58 16.2552C99.776 16.2914 98.3248 17.7579 98.3248 19.5612V32.0033C98.3248 33.2454 97.3137 34.2557 96.0626 34.2557C94.8151 34.2557 93.8004 33.249 93.8004 32.0033V19.6988C93.8004 15.3535 97.3719 11.7034 101.733 11.7505C103.882 11.7759 105.821 12.6594 107.225 14.0753C108.629 12.6594 110.571 11.7759 112.724 11.7505C117.085 11.7034 120.652 15.3571 120.652 19.6988H120.66Z" fill="white"/>
<path d="M133.654 20.8949H133.636C129.449 19.9027 128.991 19.2473 128.991 18.0885V18.0269C128.991 16.8646 130.191 16.0498 131.912 16.0498C132.959 16.0498 134.003 16.2888 135.072 16.7777C135.258 16.861 135.872 17.2339 136.527 17.6395C137.582 18.2913 138.968 17.9835 139.644 16.9479C140.342 15.8796 140.022 14.4529 138.935 13.7794C138.291 13.3775 137.691 13.0153 137.505 12.9248C135.822 12.1137 133.996 11.7154 131.97 11.7154C127.405 11.7154 124.216 14.4457 124.216 18.3528V18.4108C124.216 22.604 126.951 24.0814 131.675 25.2148C135.411 26.073 136.043 26.7429 136.043 27.9234V27.985C136.043 29.256 134.749 30.1106 132.817 30.1106C132.115 30.1106 130.799 29.8028 129.62 29.2777C128.682 28.8613 127.747 28.3471 126.973 27.8908C125.922 27.2716 124.565 27.5794 123.899 28.6006L123.881 28.6259C123.194 29.6797 123.499 31.0919 124.565 31.769C125.358 32.2724 126.154 32.7721 126.42 32.9097C128.373 33.9163 130.519 34.445 132.73 34.445C137.644 34.445 140.819 31.769 140.819 27.6229V27.5649C140.819 24.0525 138.742 22.1188 133.654 20.8804V20.8949Z" fill="white"/>
<path d="M160.768 34.2487C162.513 34.2487 163.928 32.8399 163.928 31.102C163.928 29.3641 162.513 27.9552 160.768 27.9552C159.022 27.9552 157.607 29.3641 157.607 31.102C157.607 32.8399 159.022 34.2487 160.768 34.2487Z" fill="white"/>
<path d="M183.709 43.9995C179.839 43.9995 176.279 41.8992 174.42 38.5171L163.465 18.5794C162.945 17.6342 161.981 17.0694 160.909 17.0802C159.828 17.0875 158.879 17.6596 158.37 18.6119L147.823 38.3976C145.982 41.8522 142.4 43.9959 138.472 43.9959H3.22561C1.97084 43.9959 0.952477 42.982 0.952477 41.7327C0.952477 40.4834 1.97084 39.4695 3.22561 39.4695H138.472C140.712 39.4695 142.756 38.2456 143.804 36.2757L154.351 16.49C155.635 14.0783 158.137 12.5719 160.879 12.5538C160.894 12.5538 160.912 12.5538 160.927 12.5538C163.651 12.5538 166.149 14.0276 167.455 16.4067L178.41 36.3445C179.468 38.2745 181.498 39.4695 183.709 39.4695C187.037 39.4695 189.746 36.7718 189.746 33.4585V21.2047C189.746 19.9554 190.765 18.9415 192.02 18.9415C193.274 18.9415 194.293 19.9554 194.293 21.2047V33.4585C194.293 39.2703 189.543 43.9995 183.705 43.9995H183.709Z" fill="#EF6A24"/>
</svg>
