<svg width="169" height="37" viewBox="0 0 169 37" fill="none" xmlns="http://www.w3.org/2000/svg">
<path d="M160.12 4.59243C159.554 6.35245 158.285 7.72575 156.52 8.32257C156.392 8.3652 156.167 8.40783 156.064 8.4596C155.918 8.53572 155.915 8.75192 156.064 8.82804C156.164 8.87981 156.399 8.92244 156.523 8.96507C158.197 9.5284 159.527 10.8804 160.08 12.5582C160.117 12.6739 160.15 12.8596 160.199 12.9601C160.233 13.0271 160.29 13.0576 160.357 13.0819H160.415C160.482 13.0606 160.54 13.0271 160.573 12.9601C160.631 12.8353 160.674 12.6039 160.725 12.4607C161.291 10.8347 162.594 9.53753 164.222 8.97725C164.365 8.92853 164.52 8.89808 164.66 8.84936C164.76 8.81282 164.797 8.76105 164.821 8.65752V8.63925L164.797 8.56313C164.782 8.53268 164.763 8.50223 164.736 8.48396C164.672 8.43524 164.456 8.39565 164.365 8.3652C162.551 7.77447 161.246 6.43771 160.662 4.62592C160.613 4.47671 160.601 4.21789 160.394 4.21484H160.391C160.19 4.21484 160.178 4.4554 160.129 4.59852" fill="#1485BD"/>
<mask id="mask0_2452_3497" style="mask-type:luminance" maskUnits="userSpaceOnUse" x="155" y="4" width="10" height="10">
<path d="M160.12 4.59243C159.554 6.35245 158.285 7.72575 156.52 8.32257C156.392 8.3652 156.167 8.40783 156.064 8.4596C155.918 8.53572 155.915 8.75192 156.064 8.82804C156.164 8.87981 156.399 8.92244 156.523 8.96507C158.197 9.5284 159.527 10.8804 160.08 12.5582C160.117 12.6739 160.15 12.8596 160.199 12.9601C160.233 13.0271 160.29 13.0576 160.357 13.0819H160.415C160.482 13.0606 160.54 13.0271 160.573 12.9601C160.631 12.8353 160.674 12.6039 160.725 12.4607C161.291 10.8347 162.594 9.53753 164.222 8.97725C164.365 8.92853 164.52 8.89808 164.66 8.84936C164.76 8.81282 164.797 8.76105 164.821 8.65752V8.63925L164.797 8.56313C164.782 8.53268 164.763 8.50223 164.736 8.48396C164.672 8.43524 164.456 8.39565 164.365 8.3652C162.551 7.77447 161.246 6.43771 160.662 4.62592C160.613 4.47671 160.601 4.21789 160.394 4.21484H160.391C160.19 4.21484 160.178 4.4554 160.129 4.59852" fill="white"/>
</mask>
<g mask="url(#mask0_2452_3497)">
<path d="M161.81 -0.0139532L151.719 7.17578L158.898 17.2666L168.989 10.0769L161.81 -0.0139532Z" fill="#1485BD"/>
</g>
<path d="M44.6952 15.5938L44.1719 16.288C44.3301 16.0444 44.5035 15.813 44.6952 15.5938Z" fill="#1485BD"/>
<path d="M54.1182 24.521C53.5035 23.9059 52.5602 23.8115 51.8117 24.25C50.9719 24.7433 49.9921 25.0265 48.9484 25.0265C45.8142 25.0265 43.2735 22.4839 43.2735 19.3475C43.2735 18.2239 43.599 17.1764 44.1589 16.2964L39.8594 22.0058C41.0065 25.943 44.6397 28.8206 48.9453 28.8206C50.7163 28.8206 52.3777 28.3334 53.7956 27.4838C54.8393 26.8596 55.0067 25.4132 54.1486 24.5545L54.1151 24.521H54.1182ZM41.0583 14.1131L41.7338 13.2148C41.4903 13.5011 41.2652 13.7995 41.0583 14.1131Z" fill="#EF6A24"/>
<path d="M54.1554 14.1419L54.125 14.1724C53.5103 14.7875 52.567 14.8819 51.8185 14.4434C50.9787 13.9501 49.9989 13.67 48.9552 13.67C47.2603 13.67 45.7389 14.4129 44.6982 15.5914C44.5035 15.8106 44.33 16.0451 44.1718 16.2887V16.2948L39.8692 22.0042L36.8264 26.0449C35.1132 27.7592 32.749 28.8189 30.1351 28.8189H30.1017C30.0652 28.8189 30.0317 28.8189 29.9952 28.8189C24.8315 28.7458 20.6719 24.5315 20.6719 19.3489C20.6719 14.1663 24.9106 9.87891 30.1382 9.87891C31.9122 9.87891 33.5705 10.3661 34.9885 11.2157C36.0322 11.8399 36.1995 13.2863 35.3384 14.145L35.3049 14.1785C34.6903 14.7936 33.747 14.888 32.9985 14.4495C32.1586 13.9562 31.1788 13.676 30.1351 13.676C27.001 13.676 24.4602 16.2186 24.4602 19.352C24.4602 22.4853 27.001 25.0309 30.1351 25.0309C31.6261 25.0309 32.9833 24.4554 33.9965 23.5084L34.0756 23.4049L41.0651 14.1206L41.7406 13.2223C43.475 11.1791 46.0645 9.88195 48.9552 9.88195H49.0008C50.7566 9.89109 52.3997 10.3783 53.8055 11.2187C54.8461 11.8429 55.0135 13.2893 54.1554 14.148V14.1419Z" fill="#1485BD"/>
<path d="M9.46327 9.88195C4.23565 9.88195 0 14.1206 0 19.3489C0 24.5772 4.23565 28.8189 9.46327 28.8189C14.6909 28.8189 18.9235 24.5772 18.9235 19.3489C18.9235 14.1206 14.6878 9.87891 9.46327 9.87891V9.88195ZM9.46327 25.0248C6.32913 25.0248 3.79139 22.4853 3.79139 19.3489C3.79139 16.2125 6.33218 13.673 9.46327 13.673C12.5944 13.673 15.1351 16.2156 15.1351 19.3489C15.1351 22.4822 12.5944 25.0248 9.46327 25.0248Z" fill="#1485BD"/>
<path d="M65.6893 9.88102C60.3522 9.91147 56.0617 14.3633 56.29 19.7621C56.4969 24.6159 60.4191 28.5713 65.2694 28.8088C67.5789 28.9215 69.7181 28.2059 71.416 26.9301C71.416 27.4477 71.6259 27.9167 71.9637 28.2546C72.3045 28.5957 72.77 28.8027 73.2873 28.8027H73.336C74.3675 28.8027 75.2074 27.9654 75.2074 26.9301V19.5033C75.2074 14.2293 70.9626 9.85057 65.6893 9.88102ZM65.7441 25.0239C62.61 25.0239 60.0722 22.4843 60.0722 19.348C60.0722 16.2116 62.613 13.6721 65.7441 13.6721C68.8752 13.6721 71.416 16.2147 71.416 19.348C71.416 22.4813 68.8752 25.0239 65.7441 25.0239Z" fill="#1485BD"/>
<path d="M100.948 16.5651V26.912C100.948 27.9565 100.102 28.806 99.0554 28.806C98.0117 28.806 97.1627 27.9595 97.1627 26.912V16.5224C97.1627 14.9634 95.8878 13.6418 94.3298 13.6692C92.8206 13.6966 91.6034 14.9329 91.6034 16.4493V26.912C91.6034 27.9565 90.7575 28.806 89.7108 28.806C88.6671 28.806 87.8181 27.9595 87.8181 26.912V16.5224C87.8181 14.9634 86.5432 13.6388 84.9852 13.6692C83.476 13.6997 82.2619 14.9329 82.2619 16.4493V26.912C82.2619 27.9565 81.416 28.806 80.3692 28.806C79.3255 28.806 78.4766 27.9595 78.4766 26.912V16.5651C78.4766 12.911 81.4646 9.84165 85.113 9.88124C86.9113 9.90255 88.5332 10.6455 89.7077 11.8361C90.8823 10.6455 92.5072 9.90255 94.3085 9.88124C97.9569 9.84165 100.942 12.9141 100.942 16.5651H100.948Z" fill="#1485BD"/>
<path d="M111.819 17.5707H111.804C108.302 16.7363 107.918 16.1852 107.918 15.2108V15.159C107.918 14.1816 108.923 13.4964 110.362 13.4964C111.238 13.4964 112.111 13.6974 113.006 14.1085C113.161 14.1785 113.675 14.4922 114.223 14.8332C115.106 15.3813 116.265 15.1225 116.831 14.2516C117.415 13.3533 117.147 12.1536 116.238 11.5872C115.699 11.2492 115.197 10.9447 115.042 10.8686C113.633 10.1865 112.105 9.85156 110.41 9.85156C106.592 9.85156 103.923 12.1475 103.923 15.4331V15.4818C103.923 19.0079 106.211 20.2503 110.164 21.2034C113.289 21.9251 113.818 22.4884 113.818 23.4811V23.5328C113.818 24.6016 112.735 25.3202 111.119 25.3202C110.532 25.3202 109.431 25.0614 108.445 24.6199C107.66 24.2697 106.878 23.8373 106.23 23.4537C105.35 22.933 104.215 23.1918 103.658 24.0505L103.643 24.0718C103.068 24.9579 103.324 26.1454 104.215 26.7149C104.879 27.1381 105.545 27.5583 105.767 27.674C107.401 28.5206 109.196 28.9651 111.046 28.9651C115.157 28.9651 117.814 26.7149 117.814 23.2283V23.1796C117.814 20.2259 116.076 18.5999 111.819 17.5585V17.5707Z" fill="#1485BD"/>
<path d="M134.504 28.8001C135.964 28.8001 137.148 27.6153 137.148 26.1539C137.148 24.6925 135.964 23.5078 134.504 23.5078C133.043 23.5078 131.859 24.6925 131.859 26.1539C131.859 27.6153 133.043 28.8001 134.504 28.8001Z" fill="#1485BD"/>
<path d="M153.697 36.9996C150.46 36.9996 147.481 35.2335 145.926 32.3894L136.761 15.6235C136.326 14.8288 135.519 14.3538 134.622 14.3629C133.718 14.369 132.924 14.8501 132.498 15.651L123.673 32.2889C122.134 35.1939 119.136 36.9965 115.85 36.9965H2.69866C1.64887 36.9965 0.796875 36.1439 0.796875 35.0934C0.796875 34.0429 1.64887 33.1903 2.69866 33.1903H115.85C117.725 33.1903 119.435 32.161 120.311 30.5045L129.135 13.8666C130.209 11.8386 132.303 10.5719 134.597 10.5566C134.609 10.5566 134.625 10.5566 134.637 10.5566C136.916 10.5566 139.006 11.796 140.099 13.7965L149.264 30.5624C150.149 32.1854 151.847 33.1903 153.697 33.1903C156.481 33.1903 158.748 30.9217 158.748 28.1355V17.8312C158.748 16.7807 159.6 15.9281 160.65 15.9281C161.7 15.9281 162.552 16.7807 162.552 17.8312V28.1355C162.552 33.0228 158.578 36.9996 153.694 36.9996H153.697Z" fill="#EF6A24"/>
</svg>
