<svg width="1440" height="650" viewBox="0 0 1440 650" fill="none" xmlns="http://www.w3.org/2000/svg">
<rect width="1440" height="650" fill="url(#paint0_linear_3345_185)"/>
<g opacity="0.25" clip-path="url(#clip0_3345_185)">
<path d="M1573.91 174.299C1568.74 183.899 1563.66 193.231 1558.68 202.343C1558.67 202.343 1558.66 202.338 1558.65 202.338C1557.43 202.338 1556.38 202.92 1555.67 203.775C1529.39 176.762 1507.54 153.643 1490.79 130.386C1490.63 130.159 1490.47 129.932 1490.31 129.705C1491.24 129.015 1491.87 127.986 1491.87 126.77C1491.87 125.336 1491.01 124.133 1489.79 123.497C1501.08 105.604 1512.94 86.4113 1524.91 66.2064C1526.59 68.7685 1528.37 71.2875 1530.17 73.8048L1526.31 66.5163C1526.04 66.102 1525.73 65.696 1525.46 65.2784C1525.46 65.2668 1525.47 65.2551 1525.48 65.2452C1525.44 65.2137 1525.4 65.1806 1525.36 65.1507C1525.25 64.9718 1525.13 64.7895 1525.02 64.6105C1524.99 64.6635 1524.96 64.7165 1524.92 64.7696C1518.03 58.7422 1511.79 52.4613 1506.04 45.8092C1507.18 45.1513 1507.98 44.0012 1507.98 42.6257C1507.98 40.5475 1506.24 38.8621 1504.09 38.8621C1502.75 38.8621 1501.62 39.5598 1500.92 40.5558C1486.08 30.8859 1473.49 19.7029 1462.01 6.12688C1455.52 2.47269 1449.23 -1.54775 1443.05 -5.88471L1437.75 -8.55285C1445.47 -2.89507 1453.31 2.28708 1461.47 6.87097C1472.72 20.1503 1485 31.1593 1499.46 40.6851C1471.58 32.4487 1449.29 21.1811 1428.03 5.6728C1421.56 0.946381 1415.19 -4.17942 1408.81 -9.68474C1408.86 -9.93332 1408.96 -10.1687 1408.96 -10.4355C1408.96 -12.3446 1407.47 -13.8593 1405.56 -14.1029C1403.62 -17.3444 1401.67 -20.6457 1399.7 -24.0728C1398.74 -25.7367 1397.78 -27.4668 1396.82 -29.1737L1395.38 -29.8996C1398.48 -24.3893 1401.52 -19.1624 1404.55 -14.0979C1402.66 -13.8427 1401.18 -12.3363 1401.18 -10.4355C1401.18 -8.3573 1402.92 -6.6719 1405.07 -6.6719C1405.1 -6.6719 1405.13 -6.68847 1405.16 -6.69178C1404.41 -5.19696 1403.66 -3.69386 1402.91 -2.21561C1401.38 0.827065 1399.89 3.79515 1398.39 6.76822C1398.26 6.75497 1398.15 6.69532 1398.02 6.69532C1395.87 6.69532 1394.13 8.38071 1394.13 10.4589C1394.13 10.787 1394.24 11.0803 1394.32 11.3836C1365.73 25.9672 1339.99 39.5747 1316.59 51.2698C1315.88 50.5506 1314.89 50.0915 1313.78 50.0915C1311.91 50.0915 1310.42 51.3958 1310.04 53.0961C1298.81 53.4176 1287.66 53.4259 1276.43 53.1193C1276.06 51.4057 1274.57 50.0932 1272.69 50.0932C1271.44 50.0932 1270.38 50.6981 1269.67 51.5797C1258.02 45.7728 1245.86 39.5184 1233.01 32.8746C1220.05 26.1694 1206.38 19.0798 1192.07 11.7731C1192.23 11.3621 1192.34 10.9279 1192.34 10.4622C1192.34 8.38403 1190.6 6.69864 1188.45 6.69864C1188.05 6.69864 1187.68 6.81132 1187.32 6.91904C1186.79 5.8667 1186.26 4.8243 1185.73 3.76368C1183.97 0.278524 1182.18 -3.29447 1180.37 -6.87077C1180.71 -6.78128 1181.03 -6.6719 1181.4 -6.6719C1183.55 -6.6719 1185.29 -8.3573 1185.29 -10.4355C1185.29 -12.5136 1183.55 -14.199 1181.4 -14.199C1181.29 -14.199 1181.2 -14.1493 1181.1 -14.141C1184.13 -19.1972 1187.17 -24.4109 1190.26 -29.9062L1188.84 -29.1887C1186.49 -25.0174 1184.15 -20.9357 1181.84 -17.023C1181.22 -15.9706 1180.6 -14.9531 1179.98 -13.9206C1178.53 -13.3688 1177.5 -12.0248 1177.5 -10.4355C1177.5 -10.3824 1177.53 -10.341 1177.54 -10.2863C1154.28 9.8689 1131.34 24.6182 1102.8 35.1682C1097.47 37.1419 1091.95 38.9765 1086.17 40.6834C1100.61 31.1676 1112.87 20.1752 1124.11 6.91406C1132.33 2.30199 1140.22 -2.9133 1147.98 -8.61417L1142.7 -5.95432C1136.46 -1.57592 1130.12 2.48097 1123.57 6.16665C1112.25 19.5504 1099.86 30.6058 1085.29 40.1846C1084.57 39.3891 1083.55 38.8605 1082.38 38.8605C1080.23 38.8605 1078.48 40.5459 1078.48 42.624C1078.48 43.7857 1079.06 44.7851 1079.92 45.4778C1074.09 52.2559 1067.74 58.6428 1060.71 64.7679C1060.68 64.7149 1060.65 64.6619 1060.62 64.6088C1060.5 64.7911 1060.38 64.9734 1060.27 65.1541C1060.23 65.1822 1060.2 65.2121 1060.16 65.2435C1060.17 65.2551 1060.17 65.2668 1060.18 65.2767C1059.91 65.6827 1059.62 66.0771 1059.34 66.4832L1055.47 73.8015C1057.27 71.2875 1059.05 68.7668 1060.74 66.2064C1072.78 86.5522 1084.73 105.877 1096.09 123.876C1095.2 124.567 1094.6 125.582 1094.6 126.767C1094.6 127.733 1095 128.593 1095.62 129.259C1094.89 130.286 1094.17 131.317 1093.42 132.345C1076.97 154.802 1055.73 177.262 1030.39 203.321C1029.7 202.724 1028.81 202.335 1027.82 202.335C1027.54 202.335 1027.29 202.432 1027.03 202.489C1022.05 193.352 1016.94 183.991 1011.76 174.364V176.57C1016.6 185.532 1021.36 194.27 1026.02 202.808C1024.79 203.442 1023.92 204.653 1023.92 206.095C1023.92 208.173 1025.67 209.858 1027.82 209.858C1027.82 209.858 1027.83 209.855 1027.84 209.855C1027.93 220.607 1027.93 231.346 1027.83 242.1C1026.03 242.428 1024.64 243.889 1024.64 245.726C1024.64 246.801 1025.12 247.759 1025.87 248.444C1021.24 256.915 1016.52 265.569 1011.73 274.462V276.666C1016.82 267.203 1021.84 258.002 1026.74 249.012C1027.28 249.292 1027.87 249.488 1028.53 249.488C1029.56 249.488 1030.48 249.085 1031.18 248.455C1056.91 274.928 1078.36 297.695 1094.85 320.586C1095.07 320.899 1095.29 321.216 1095.51 321.529C1094.49 322.207 1093.78 323.291 1093.78 324.578C1093.78 325.939 1094.56 327.079 1095.68 327.739C1084.45 345.557 1072.64 364.657 1060.74 384.762C1059.05 382.197 1057.26 379.673 1055.46 377.152L1059.32 384.452C1059.6 384.87 1059.91 385.273 1060.18 385.69C1060.17 385.702 1060.17 385.715 1060.16 385.73C1060.2 385.762 1060.23 385.791 1060.27 385.825C1060.39 386 1060.5 386.181 1060.62 386.36C1060.65 386.31 1060.68 386.254 1060.71 386.201C1068.47 392.975 1075.43 400.053 1081.73 407.647C1081.64 407.798 1081.5 407.919 1081.43 408.081C1081.23 408.028 1081.03 407.972 1080.83 407.919C1081.02 408.033 1081.19 408.154 1081.37 408.268C1081.22 408.679 1081.1 409.114 1081.1 409.579C1081.1 411.657 1082.84 413.343 1084.99 413.343C1086.01 413.343 1086.92 412.945 1087.61 412.327C1101.21 421.554 1112.9 432.161 1123.62 444.847C1130.11 448.501 1136.4 452.518 1142.59 456.858L1147.9 459.531C1140.18 453.87 1132.33 448.685 1124.17 444.096C1113.44 431.438 1101.75 420.858 1088.16 411.644C1088.3 411.442 1088.48 411.271 1088.58 411.044C1115.33 419.216 1136.98 430.253 1157.62 445.314C1164.5 450.334 1171.27 455.794 1178.05 461.696C1180.66 465.983 1183.28 470.428 1185.93 475.043C1186.89 476.707 1187.85 478.437 1188.82 480.144L1190.26 480.867C1186.35 473.934 1182.53 467.347 1178.72 461.122C1180.07 458.451 1181.4 455.806 1182.73 453.183C1184.26 450.125 1185.77 447.14 1187.27 444.151C1187.79 444.394 1188.35 444.56 1188.96 444.56C1191.11 444.56 1192.85 442.875 1192.85 440.796C1192.85 440.158 1192.65 439.587 1192.36 439.061C1220.56 424.662 1245.99 411.225 1269.13 399.666C1269.78 400.869 1271.05 401.717 1272.55 401.717C1274.7 401.717 1276.44 400.032 1276.44 397.954C1276.44 397.921 1276.42 397.889 1276.42 397.856C1287.66 397.551 1298.81 397.556 1310.04 397.876C1310.04 397.904 1310.03 397.926 1310.03 397.954C1310.03 400.032 1311.77 401.717 1313.92 401.717C1315.29 401.717 1316.43 401 1317.12 399.972C1328.41 405.622 1340.19 411.679 1352.63 418.107C1365.69 424.864 1379.47 432.012 1393.91 439.383C1393.73 439.82 1393.62 440.296 1393.62 440.796C1393.62 442.875 1395.36 444.56 1397.51 444.56C1397.85 444.56 1398.16 444.451 1398.47 444.373C1398.95 445.322 1399.42 446.26 1399.9 447.215C1402.2 451.772 1404.53 456.406 1406.91 461.116C1403.11 467.345 1399.27 473.941 1395.37 480.88L1396.79 480.164C1399.15 475.989 1401.48 471.904 1403.8 467.99C1405.06 465.857 1406.32 463.759 1407.58 461.699C1431.31 441.045 1454.68 426.049 1483.96 415.393C1488.43 413.764 1493.06 412.241 1497.84 410.796C1497.9 410.958 1497.96 411.109 1498.04 411.26C1484.23 420.555 1472.38 431.239 1461.52 444.056C1453.31 448.668 1445.42 453.884 1437.66 459.585L1442.94 456.928C1449.17 452.546 1455.52 448.493 1462.07 444.805C1472.92 431.98 1484.74 421.276 1498.53 411.974C1499.25 412.794 1500.28 413.346 1501.48 413.346C1503.63 413.346 1505.37 411.661 1505.37 409.583C1505.37 408.616 1504.97 407.756 1504.35 407.09C1510.54 399.71 1517.35 392.808 1524.93 386.204C1524.96 386.257 1524.99 386.31 1525.02 386.363C1525.14 386.181 1525.25 385.997 1525.37 385.815C1525.41 385.79 1525.45 385.762 1525.48 385.733C1525.48 385.722 1525.47 385.712 1525.46 385.7C1525.72 385.298 1526.02 384.905 1526.29 384.502L1530.17 377.175C1528.36 379.69 1526.58 382.207 1524.9 384.769C1513.07 364.789 1501.34 345.807 1490.17 328.082C1491.64 327.541 1492.69 326.192 1492.69 324.585C1492.69 323.065 1491.75 321.768 1490.4 321.174C1491.01 320.329 1491.6 319.477 1492.22 318.632C1508.59 296.27 1529.72 273.905 1554.91 247.99C1555.62 248.883 1556.69 249.493 1557.94 249.493C1558.33 249.493 1558.68 249.38 1559.04 249.281C1563.89 258.17 1568.84 267.27 1573.88 276.623V274.411C1569.18 265.687 1564.54 257.176 1559.99 248.848C1561.07 248.178 1561.83 247.061 1561.83 245.729C1561.83 243.651 1560.09 241.965 1557.94 241.965C1557.89 241.965 1557.85 241.99 1557.81 241.99C1557.71 231.22 1557.71 220.463 1557.8 209.694C1558.08 209.756 1558.35 209.86 1558.65 209.86C1560.8 209.86 1562.55 208.175 1562.55 206.096C1562.55 204.396 1561.36 203.017 1559.76 202.548C1564.39 194.07 1569.11 185.406 1573.91 176.505V174.296L1573.91 174.299ZM1405.92 -6.8343C1407.03 -7.08123 1407.95 -7.74413 1408.47 -8.69372C1436.12 15.0792 1463.38 31.1113 1500.37 41.7987C1500.31 42.0738 1500.2 42.334 1500.2 42.6273C1500.2 44.7055 1501.94 46.3909 1504.09 46.3909C1504.47 46.3909 1504.81 46.2782 1505.16 46.1838C1511.01 52.995 1517.38 59.4217 1524.45 65.5783C1512.41 85.9191 1500.48 105.234 1489.14 123.235C1488.77 123.121 1488.39 123.008 1487.98 123.008C1486.21 123.008 1484.77 124.173 1484.3 125.737C1474.08 124.382 1464.58 122.996 1455.67 121.538C1455.68 121.409 1455.74 121.299 1455.74 121.172C1455.74 119.094 1454 117.408 1451.85 117.408C1450.97 117.408 1450.21 117.738 1449.56 118.209C1426.92 91.6797 1412.72 61.2662 1398.33 14.1678C1400.33 14.0103 1401.91 12.4376 1401.91 10.4639C1401.91 8.71879 1400.66 7.31345 1398.99 6.89086C1401.26 2.38816 1403.57 -2.18246 1405.92 -6.8343ZM1394.57 12.1261C1395.14 13.2182 1396.23 13.9623 1397.53 14.1313C1412.01 61.5595 1426.23 92.0956 1448.94 118.732C1448.35 119.393 1447.96 120.227 1447.96 121.17C1447.96 121.621 1448.07 122.04 1448.22 122.441C1413.12 138.392 1384.67 151.574 1361.28 162.241C1345.58 136.668 1333.15 105.71 1314.93 57.3966C1316.51 56.9176 1317.67 55.5438 1317.67 53.8584C1317.67 53.1275 1317.4 52.4812 1317.03 51.9045C1340.37 40.2426 1366.05 26.6782 1394.57 12.1277V12.1261ZM1309.91 53.933C1309.95 55.9747 1311.66 57.6203 1313.78 57.6203C1313.98 57.6203 1314.15 57.5391 1314.33 57.5109C1332.65 105.97 1345.12 136.972 1360.85 162.583C1356.73 168.341 1352.85 173.775 1349.19 178.931C1347.68 181.056 1346.25 183.074 1344.81 185.108C1344.42 184.982 1344.02 184.869 1343.59 184.869C1341.66 184.869 1340.13 186.253 1339.82 188.029C1305.49 190.641 1280.84 190.664 1246.66 188.094C1246.38 186.283 1244.83 184.869 1242.88 184.869C1242.2 184.869 1241.59 185.084 1241.03 185.384C1236.05 178.346 1230.67 170.811 1224.78 162.583C1240.53 136.947 1253.01 105.904 1271.36 57.3601C1271.78 57.5093 1272.22 57.6203 1272.69 57.6203C1274.8 57.6203 1276.5 55.9846 1276.56 53.9545C1287.7 54.2561 1298.76 54.2511 1309.91 53.933ZM1339.76 262.54C1305.46 259.953 1280.85 259.933 1246.7 262.479C1246.55 260.636 1245.05 259.194 1243.15 259.056C1244.95 235.625 1244.96 215.723 1243.18 192.336C1245.18 192.182 1246.78 190.606 1246.78 188.629C1246.78 188.581 1246.75 188.545 1246.75 188.498C1280.86 191.04 1305.47 191.019 1339.74 188.434C1339.74 188.503 1339.7 188.56 1339.7 188.629C1339.7 190.326 1340.89 191.703 1342.48 192.174C1340.68 215.687 1340.69 235.661 1342.51 259.219C1340.98 259.661 1339.87 260.944 1339.76 262.54H1339.76ZM1269.23 52.2111C1268.98 52.7116 1268.8 53.2585 1268.8 53.8567C1268.8 55.267 1269.64 56.452 1270.83 57.0966C1259.41 87.3576 1250.25 110.937 1241.16 130.49C1235.7 142.243 1230.26 152.593 1224.36 162.239C1211.04 156.164 1196.15 149.305 1179.3 141.571C1166.72 135.795 1152.98 129.509 1138.13 122.759C1138.36 122.272 1138.52 121.743 1138.52 121.168C1138.52 119.998 1137.93 118.992 1137.07 118.301C1159.56 91.7708 1173.7 61.3176 1188.11 14.1562C1188.22 14.1678 1188.33 14.2241 1188.45 14.2241C1189.84 14.2241 1190.99 13.4883 1191.68 12.4376C1220.21 26.9931 1245.9 40.5641 1269.24 52.2094L1269.23 52.2111ZM1061.2 65.5766C1068.33 59.3521 1074.77 52.8607 1080.67 45.9667C1081.19 46.2152 1081.76 46.3893 1082.38 46.3893C1084.53 46.3893 1086.27 44.7038 1086.27 42.6257C1086.27 42.2478 1086.16 41.9031 1086.05 41.5584C1122.91 30.7964 1150.1 14.6798 1177.76 -9.20249C1178.08 -8.32913 1178.72 -7.63143 1179.55 -7.18729C1182 -2.33824 1184.4 2.42463 1186.76 7.1063C1185.47 7.71948 1184.56 8.97731 1184.56 10.4605C1184.56 12.1658 1185.75 13.548 1187.36 14.0103C1173.4 59.7233 1159.67 89.754 1138.2 115.721C1137.61 116.437 1136.98 117.143 1136.38 117.854C1135.85 117.59 1135.26 117.403 1134.62 117.403C1132.47 117.403 1130.73 119.089 1130.73 121.167C1130.73 121.251 1130.77 121.321 1130.78 121.399C1121.87 122.872 1112.36 124.262 1102.15 125.623C1101.64 124.113 1100.22 123.003 1098.49 123.003C1097.83 123.003 1097.23 123.21 1096.67 123.498C1085.28 105.423 1073.29 86.0153 1061.19 65.5733L1061.2 65.5766ZM1031.78 247.688C1032.15 247.108 1032.43 246.465 1032.43 245.731C1032.43 243.813 1030.92 242.292 1029 242.057C1029.1 231.243 1029.1 220.441 1029 209.63C1030.56 209.142 1031.71 207.77 1031.71 206.1C1031.71 205.336 1031.42 204.67 1031.01 204.076C1038.91 195.943 1046.44 188.129 1053.52 180.575C1070.25 162.76 1084.51 146.391 1096.32 129.812C1096.95 130.232 1097.67 130.535 1098.49 130.535C1100.64 130.535 1102.39 128.85 1102.39 126.771C1102.39 126.592 1102.31 126.438 1102.28 126.264C1112.49 124.904 1122 123.51 1130.91 122.042C1131.33 123.687 1132.79 124.934 1134.62 124.934C1135.99 124.934 1137.13 124.214 1137.82 123.187C1144.8 126.347 1151.56 129.425 1158.02 132.37C1183.92 144.176 1205.7 154.22 1224.35 162.708C1230.28 170.971 1235.69 178.535 1240.69 185.603C1239.69 186.286 1238.99 187.356 1238.99 188.633C1238.99 190.663 1240.66 192.292 1242.74 192.368C1244.53 215.73 1244.52 235.63 1242.71 259.037C1240.64 259.123 1238.97 260.745 1238.97 262.769C1238.97 263.964 1239.58 264.981 1240.48 265.669C1235.53 272.654 1230.2 280.118 1224.35 288.268C1201.01 298.891 1172.67 311.997 1137.64 327.878C1137.02 326.602 1135.69 325.702 1134.14 325.702C1132.21 325.702 1130.69 327.077 1130.37 328.849C1121.41 327.379 1111.84 325.985 1101.56 324.618C1101.56 324.607 1101.57 324.595 1101.57 324.585C1101.57 322.507 1099.82 320.821 1097.67 320.821C1097.17 320.821 1096.69 320.931 1096.25 321.098C1079.63 297.771 1057.95 274.669 1031.78 247.688ZM1178.3 460.627C1151.14 437.081 1124.48 421.044 1088.76 410.222C1088.8 410.007 1088.89 409.811 1088.89 409.584C1088.89 407.506 1087.15 405.821 1085 405.821C1083.93 405.821 1082.98 406.238 1082.27 406.905C1075.94 399.298 1068.98 392.195 1061.2 385.405C1073.16 365.187 1085.02 345.983 1096.3 328.078C1096.73 328.238 1097.19 328.347 1097.67 328.347C1099.58 328.347 1101.09 326.998 1101.43 325.248C1111.71 326.612 1121.28 328.01 1130.25 329.48C1130.26 331.55 1131.99 333.226 1134.14 333.226C1134.83 333.226 1135.45 332.999 1136.02 332.689C1158.78 359.337 1173.01 389.886 1187.47 437.326C1186.06 437.891 1185.07 439.23 1185.07 440.798C1185.07 442.074 1185.77 443.146 1186.77 443.828C1184.01 449.323 1181.19 454.906 1178.3 460.627H1178.3ZM1192.01 438.377C1191.98 438.394 1191.95 438.408 1191.91 438.425C1191.2 437.596 1190.17 437.036 1188.96 437.036C1188.69 437.036 1188.46 437.134 1188.21 437.185C1173.69 389.563 1159.46 358.951 1136.7 332.251C1137.5 331.56 1138.03 330.582 1138.03 329.465C1138.03 329.076 1137.91 328.718 1137.8 328.365C1172.72 312.492 1201.05 299.367 1224.36 288.737C1240.16 314.476 1252.65 345.655 1271.05 394.487C1269.65 395.055 1268.66 396.393 1268.66 397.959C1268.66 398.312 1268.77 398.628 1268.86 398.953C1245.7 410.519 1220.27 423.956 1192.01 438.38V438.377ZM1276.25 397.029C1275.81 395.412 1274.36 394.194 1272.55 394.194C1272.23 394.194 1271.95 394.3 1271.65 394.369C1253.14 345.391 1240.62 314.163 1224.79 288.393C1228.91 282.637 1232.79 277.201 1236.46 272.044C1237.96 269.928 1239.39 267.914 1240.82 265.888C1241.42 266.257 1242.1 266.529 1242.87 266.529C1244.98 266.529 1246.67 264.9 1246.74 262.875C1280.85 260.309 1305.47 260.333 1339.75 262.939C1339.85 264.93 1341.52 266.529 1343.61 266.529C1344.13 266.529 1344.62 266.423 1345.07 266.244C1349.92 273.098 1355.15 280.417 1360.85 288.393C1345.04 314.134 1332.53 345.327 1314.05 394.217C1314.01 394.213 1313.97 394.192 1313.92 394.192C1312.11 394.192 1310.65 395.422 1310.22 397.047C1298.87 396.718 1287.6 396.711 1276.25 397.027L1276.25 397.029ZM1317.53 399.328C1317.7 398.9 1317.82 398.443 1317.82 397.955C1317.82 396.124 1316.43 394.671 1314.64 394.333C1326.14 363.856 1335.35 340.14 1344.48 320.488C1349.94 308.732 1355.38 298.386 1361.29 288.736C1374.61 294.811 1389.49 301.671 1406.34 309.403C1419.24 315.319 1433.32 321.768 1448.6 328.708C1448.54 328.96 1448.44 329.195 1448.44 329.464C1448.44 330.352 1448.81 331.136 1449.34 331.779C1426.37 358.561 1412.06 389.225 1397.48 437.041C1396.15 437.053 1395.03 437.744 1394.34 438.735C1366.12 424.335 1340.67 410.898 1317.53 399.328H1317.53ZM1524.45 385.405C1516.78 392.089 1509.92 399.082 1503.66 406.555C1503.03 406.127 1502.31 405.821 1501.48 405.821C1499.33 405.821 1497.58 407.506 1497.58 409.584C1497.58 409.727 1497.66 409.849 1497.67 409.987C1461.56 420.817 1434.7 436.915 1407.34 460.635C1404.52 455.055 1401.78 449.606 1399.07 444.237C1400.44 443.655 1401.41 442.338 1401.41 440.798C1401.41 438.962 1400.02 437.504 1398.22 437.172C1412.21 391.341 1425.93 361.261 1447.44 335.256C1448.25 334.276 1449.1 333.312 1449.92 332.344C1450.59 332.868 1451.41 333.226 1452.34 333.226C1454.49 333.226 1456.23 331.54 1456.23 329.462C1456.23 329.421 1456.21 329.386 1456.21 329.348C1465.18 327.886 1474.74 326.494 1485.03 325.137C1485.32 326.94 1486.86 328.345 1488.81 328.345C1489.03 328.345 1489.23 328.256 1489.44 328.223C1500.69 346.087 1512.52 365.238 1524.45 385.404L1524.45 385.405ZM1556.64 242.219C1555.14 242.739 1554.05 244.098 1554.05 245.731C1554.05 246.246 1554.16 246.737 1554.35 247.184C1546.55 255.213 1539.12 262.941 1532.11 270.405C1515.46 288.144 1501.25 304.443 1489.47 320.952C1489.24 320.913 1489.04 320.821 1488.8 320.821C1486.68 320.821 1484.97 322.467 1484.92 324.505C1474.63 325.866 1465.05 327.255 1456.07 328.716C1455.7 327.011 1454.21 325.7 1452.34 325.7C1450.65 325.7 1449.25 326.748 1448.71 328.194C1441.41 324.888 1434.35 321.677 1427.61 318.606C1401.71 306.8 1379.94 296.755 1361.29 288.267C1355.54 280.262 1350.29 272.918 1345.42 266.038C1346.64 265.405 1347.5 264.199 1347.5 262.765C1347.5 260.687 1345.76 259.002 1343.61 259.002C1343.37 259.002 1343.16 259.095 1342.94 259.133C1341.12 235.648 1341.11 215.7 1342.9 192.257C1343.14 192.298 1343.35 192.391 1343.59 192.391C1345.74 192.391 1347.48 190.706 1347.48 188.628C1347.48 187.113 1346.54 185.822 1345.21 185.225C1350.15 178.265 1355.46 170.822 1361.29 162.704C1384.73 152.039 1413.21 138.866 1448.44 122.894C1449.1 124.087 1450.35 124.929 1451.85 124.929C1453.63 124.929 1455.07 123.744 1455.53 122.163C1464.44 123.624 1473.95 125.01 1484.17 126.369C1484.15 126.506 1484.08 126.626 1484.08 126.767C1484.08 128.845 1485.83 130.53 1487.98 130.53C1488.56 130.53 1489.1 130.388 1489.6 130.164C1506.46 153.769 1528.47 177.141 1555.11 204.568C1554.89 205.039 1554.76 205.551 1554.76 206.096C1554.76 207.445 1555.54 208.574 1556.64 209.24C1556.54 220.238 1556.54 231.218 1556.64 242.216L1556.64 242.219Z" fill="white"/>
<path d="M1574.72 282.872L1574.73 168.187C1576.53 168.187 1577.98 166.782 1577.98 165.045C1577.98 163.308 1576.53 161.903 1574.73 161.903C1574.44 161.903 1574.17 161.996 1573.9 162.065L1570.34 149.354C1571.72 148.993 1572.75 147.827 1572.75 146.375C1572.75 144.64 1571.3 143.233 1569.5 143.233C1568.98 143.233 1568.5 143.382 1568.06 143.594L1527.69 67.3267C1528.74 66.8063 1529.48 65.7804 1529.48 64.564C1529.48 62.8289 1528.02 61.4219 1526.22 61.4219C1525.49 61.4219 1524.84 61.702 1524.3 62.0997L1508.13 41.4308C1508.82 40.8541 1509.28 40.0304 1509.28 39.0825C1509.28 37.3474 1507.82 35.9404 1506.03 35.9404C1505.15 35.9404 1504.37 36.2818 1503.78 36.8221L1466.23 5.63465C1466.58 5.13416 1466.83 4.55911 1466.83 3.90782C1466.83 2.1727 1465.38 0.765709 1463.58 0.765709C1462.45 0.765709 1461.51 1.35568 1460.92 2.20252L1373.58 -41.7936C1373.79 -42.2129 1373.94 -42.6669 1373.94 -43.1658C1373.94 -44.9009 1372.48 -46.3079 1370.69 -46.3079C1369.14 -46.3079 1367.91 -45.2439 1367.58 -43.8502L1345.05 -48.8202C1345.1 -49.0473 1345.19 -49.2627 1345.19 -49.5063C1345.19 -51.2414 1343.74 -52.6484 1341.94 -52.6484C1340.15 -52.6484 1338.69 -51.2431 1338.69 -49.5063L1247.29 -49.498V-49.5063C1247.29 -51.2414 1245.84 -52.6484 1244.04 -52.6484C1242.24 -52.6484 1240.79 -51.2431 1240.79 -49.5063C1240.79 -49.2909 1240.87 -49.1036 1240.92 -48.9014L1218.38 -43.9546C1218.01 -45.2986 1216.8 -46.3095 1215.29 -46.3095C1213.5 -46.3095 1212.04 -44.9042 1212.04 -43.1674C1212.04 -42.7249 1212.14 -42.3057 1212.31 -41.9212L1124.97 2.07989C1124.38 1.30099 1123.48 0.76405 1122.4 0.76405C1120.6 0.76405 1119.15 2.16938 1119.15 3.90616C1119.15 4.47956 1119.35 4.98667 1119.62 5.44904L1082.01 36.6978C1081.44 36.2437 1080.75 35.9387 1079.96 35.9387C1078.16 35.9387 1076.71 37.3441 1076.71 39.0808C1076.71 39.9459 1077.07 40.7265 1077.65 41.2933L1061.46 61.9522C1060.96 61.644 1060.4 61.4203 1059.76 61.4203C1057.96 61.4203 1056.51 62.8256 1056.51 64.5624C1056.51 65.6744 1057.14 66.6041 1058.04 67.1626L1017.65 143.46C1017.29 143.322 1016.9 143.229 1016.48 143.229C1014.69 143.229 1013.23 144.635 1013.23 146.371C1013.23 147.711 1014.1 148.832 1015.32 149.287L1011.75 161.997C1011.58 161.969 1011.43 161.9 1011.25 161.9C1009.46 161.9 1008 163.305 1008 165.042C1008 166.666 1009.29 167.954 1010.92 168.119L1010.91 282.937C1009.29 283.113 1008.01 284.395 1008.01 286.011C1008.01 287.746 1009.46 289.153 1011.26 289.153C1011.44 289.153 1011.61 289.08 1011.78 289.049L1015.39 301.939C1014.35 302.459 1013.61 303.485 1013.61 304.7C1013.61 306.435 1015.07 307.842 1016.86 307.842C1017.17 307.842 1017.45 307.749 1017.73 307.671L1058.02 383.776C1057.32 384.353 1056.84 385.185 1056.84 386.148C1056.84 387.883 1058.3 389.288 1060.09 389.288C1060.58 389.288 1061.03 389.174 1061.44 388.991L1077.79 409.889C1077.22 410.454 1076.86 411.222 1076.86 412.073C1076.86 413.808 1078.31 415.215 1080.11 415.215C1080.92 415.215 1081.63 414.902 1082.19 414.437L1119.48 445.392C1119.07 445.919 1118.78 446.537 1118.78 447.243C1118.78 448.978 1120.24 450.385 1122.04 450.385C1123.23 450.385 1124.22 449.736 1124.79 448.814L1212.18 492.83C1212.07 493.15 1211.97 493.476 1211.97 493.833C1211.97 495.568 1213.43 496.975 1215.22 496.975C1216.64 496.975 1217.81 496.09 1218.26 494.872L1243.7 500.485H1341.98L1367.72 494.829C1368.15 496.068 1369.33 496.973 1370.76 496.973C1372.55 496.973 1374.01 495.568 1374.01 493.831C1374.01 493.42 1373.91 493.032 1373.77 492.674L1461.1 448.675C1461.64 449.678 1462.7 450.384 1463.95 450.384C1465.74 450.384 1467.2 448.978 1467.2 447.241C1467.2 446.461 1466.87 445.766 1466.38 445.218L1503.6 414.311C1504.19 414.867 1504.99 415.215 1505.87 415.215C1507.67 415.215 1509.12 413.81 1509.12 412.073C1509.12 411.119 1508.66 410.292 1507.96 409.715L1524.32 388.842C1524.79 389.099 1525.31 389.288 1525.89 389.288C1527.69 389.288 1529.14 387.883 1529.14 386.148C1529.14 385.079 1528.55 384.182 1527.71 383.614L1567.94 307.613C1568.3 307.754 1568.7 307.844 1569.12 307.844C1570.91 307.844 1572.37 306.438 1572.37 304.702C1572.37 303.369 1571.5 302.245 1570.29 301.79L1573.89 288.991C1574.16 289.061 1574.43 289.153 1574.72 289.153C1576.52 289.153 1577.97 287.748 1577.97 286.011C1577.97 284.275 1576.52 282.869 1574.72 282.869V282.872ZM1567.55 143.929C1566.78 144.502 1566.25 145.362 1566.25 146.376C1566.25 147.6 1567 148.634 1568.05 149.151L1552.61 201.65C1552.23 201.544 1551.84 201.471 1551.42 201.471C1550.72 201.471 1550.08 201.645 1549.49 201.925L1508.4 121.929L1507.9 120.96C1509.05 120.201 1509.8 118.929 1509.8 117.484C1509.8 115.824 1508.8 114.402 1507.36 113.716L1525.21 67.5106C1525.54 67.6133 1525.86 67.7062 1526.22 67.7062C1526.54 67.7062 1526.82 67.6134 1527.11 67.5355L1567.55 143.929H1567.55ZM1546.83 244.408C1546.83 246.062 1547.83 247.479 1549.26 248.172L1537.34 271.388L1507.36 329.755C1506.93 329.616 1506.48 329.523 1506 329.523C1503.59 329.523 1501.63 331.411 1501.63 333.739C1501.63 334.203 1501.73 334.644 1501.87 335.064L1482.01 343.787C1480.97 341.785 1478.85 340.4 1476.37 340.4C1473.9 340.4 1471.7 341.828 1470.68 343.883L1457.39 339.177L1400.08 318.877C1400.32 318.074 1400.49 317.24 1400.49 316.357C1400.49 311.387 1396.32 307.361 1391.19 307.361C1389.56 307.361 1388.05 307.804 1386.71 308.515L1377.74 294.241C1381.13 292.024 1383.36 288.272 1383.36 284.013C1383.36 277.352 1377.89 271.965 1371.07 271.719V179.258C1377.89 179.011 1383.36 173.625 1383.36 166.964C1383.36 162.705 1381.13 158.953 1377.74 156.736L1386.71 142.462C1388.05 143.173 1389.56 143.616 1391.19 143.616C1396.32 143.616 1400.49 139.59 1400.49 134.62C1400.49 133.738 1400.32 132.903 1400.08 132.099L1470.67 107.094C1471.7 109.148 1473.85 110.579 1476.37 110.579C1478.89 110.579 1480.97 109.193 1482.02 107.188L1501.48 115.739C1501.23 116.271 1501.08 116.86 1501.08 117.481C1501.08 119.811 1503.03 121.697 1505.44 121.697C1506.14 121.697 1506.79 121.523 1507.37 121.243L1548.96 202.209C1547.81 202.969 1547.06 204.242 1547.06 205.684C1547.06 207.938 1548.89 209.761 1551.19 209.878V240.189C1548.78 240.189 1546.83 242.076 1546.83 244.405V244.408ZM1401.9 444.083C1399.11 444.083 1396.77 445.833 1395.92 448.249L1326.16 428.018C1326.41 427.197 1326.59 426.345 1326.59 425.444C1326.59 422.171 1324.76 419.332 1322.06 417.758L1363.95 356.299L1386.07 323.864C1387.54 324.799 1389.29 325.354 1391.19 325.354C1395.2 325.354 1398.59 322.885 1399.9 319.444L1438.35 333.062L1470.44 344.427C1470.19 345.085 1470.03 345.788 1470.03 346.53C1470.03 348.605 1471.1 350.433 1472.74 351.541L1405 444.898C1404.08 444.394 1403.03 444.083 1401.9 444.083H1401.9ZM1277.99 425.204C1277.86 420.35 1273.77 416.448 1268.71 416.448C1267.07 416.448 1265.56 416.891 1264.22 417.607L1200.19 323.673C1202.55 322.044 1204.11 319.385 1204.11 316.357C1204.11 313.076 1202.28 310.233 1199.56 308.662L1207.59 295.895L1208.53 294.392C1210.52 295.622 1212.86 296.354 1215.4 296.354C1222.45 296.354 1228.17 290.83 1228.17 284.013H1357.82C1357.82 290.83 1363.54 296.354 1370.59 296.354C1373.02 296.354 1375.27 295.663 1377.2 294.523L1386.18 308.793C1383.6 310.394 1381.88 313.175 1381.88 316.355C1381.88 319.282 1383.35 321.854 1385.59 323.498L1321.52 417.473C1320.24 416.838 1318.82 416.445 1317.28 416.445C1312.23 416.445 1308.14 420.345 1308 425.2H1277.99V425.204ZM1184.09 444.083C1182.86 444.083 1181.71 444.439 1180.74 445.026L1113.02 351.686C1114.78 350.597 1115.96 348.701 1115.96 346.528C1115.96 345.748 1115.79 345.005 1115.51 344.319L1186.06 319.333C1187.33 322.833 1190.75 325.352 1194.8 325.352C1196.59 325.352 1198.25 324.84 1199.67 323.992L1263.68 417.889C1261.11 419.489 1259.4 422.265 1259.4 425.442C1259.4 426.311 1259.57 427.133 1259.8 427.926L1190.04 448.158C1189.16 445.79 1186.84 444.081 1184.09 444.081L1184.09 444.083ZM1079.99 329.522C1079.4 329.522 1078.85 329.636 1078.33 329.842L1036.46 248.303C1038.04 247.673 1039.16 246.17 1039.16 244.408C1039.16 242.078 1037.2 240.192 1034.8 240.192C1034.68 240.192 1034.57 240.217 1034.46 240.225V209.891C1034.49 209.895 1034.53 209.903 1034.57 209.903C1036.98 209.903 1038.93 208.015 1038.93 205.687C1038.93 204.139 1038.06 202.8 1036.77 202.068L1048.3 179.596L1078.35 121.107C1079 121.477 1079.74 121.7 1080.55 121.7C1082.96 121.7 1084.91 119.813 1084.91 117.484C1084.91 116.813 1084.73 116.185 1084.44 115.623L1103.9 107.079C1104.93 109.145 1107.09 110.584 1109.61 110.584C1112.14 110.584 1114.21 109.2 1115.25 107.201L1128.25 111.803L1185.87 132.209C1185.65 132.981 1185.49 133.78 1185.49 134.622C1185.49 139.592 1189.66 143.617 1194.8 143.617C1196.32 143.617 1197.74 143.228 1199.02 142.598L1208.02 156.92C1204.77 159.157 1202.63 162.811 1202.63 166.966C1202.63 173.512 1207.91 178.812 1214.57 179.226V271.754C1207.91 272.168 1202.63 277.468 1202.63 284.014C1202.63 288.169 1204.77 291.827 1208.02 294.062L1199.02 308.381C1197.74 307.751 1196.32 307.361 1194.8 307.361C1189.66 307.361 1185.49 311.387 1185.49 316.357C1185.49 317.2 1185.65 317.997 1185.87 318.77L1115.25 343.781C1114.21 341.782 1112.09 340.398 1109.61 340.398C1107.14 340.398 1104.92 341.837 1103.9 343.907L1084.07 335.193C1084.24 334.737 1084.35 334.25 1084.35 333.736C1084.35 331.406 1082.4 329.52 1079.99 329.52L1079.99 329.522ZM1184.09 6.89911C1186.84 6.89911 1189.16 5.19382 1190.04 2.82564L1260.16 23.1516C1260 23.8062 1259.89 24.484 1259.89 25.185C1259.89 28.2873 1261.52 31.0234 1263.99 32.6375L1221.69 94.6809L1199.67 126.985C1198.25 126.137 1196.59 125.625 1194.8 125.625C1190.75 125.625 1187.34 128.145 1186.06 131.644L1147.3 117.917L1115.52 106.661C1115.8 105.975 1115.96 105.232 1115.96 104.452C1115.96 102.279 1114.79 100.383 1113.02 99.2946L1180.75 5.95449C1181.72 6.54281 1182.86 6.89745 1184.09 6.89745L1184.09 6.89911ZM1401.9 6.89911C1403.04 6.89911 1404.08 6.58756 1405.01 6.08376L1472.74 99.4404C1471.1 100.549 1470.03 102.377 1470.03 104.452C1470.03 105.194 1470.19 105.897 1470.44 106.552L1399.9 131.534C1398.59 128.094 1395.2 125.625 1391.19 125.625C1389.3 125.625 1387.54 126.18 1386.07 127.114L1321.75 32.7718C1324.36 31.1759 1326.1 28.3851 1326.1 25.185C1326.1 24.4508 1325.98 23.7482 1325.81 23.0654L1395.92 2.73616C1396.78 5.15239 1399.12 6.89911 1401.9 6.89911H1401.9ZM1316.79 34.1821C1318.4 34.1821 1319.89 33.7512 1321.21 33.0535L1385.59 127.479C1383.35 129.123 1381.88 131.695 1381.88 134.622C1381.88 137.805 1383.6 140.583 1386.18 142.184L1378.07 155.082L1377.2 156.454C1375.27 155.314 1373.02 154.623 1370.59 154.623C1363.54 154.623 1357.82 160.146 1357.82 166.964H1228.17C1228.17 160.146 1222.45 154.623 1215.4 154.623C1212.87 154.623 1210.52 155.357 1208.54 156.585L1199.56 142.318C1202.28 140.745 1204.11 137.903 1204.11 134.622C1204.11 131.596 1202.56 128.936 1200.19 127.303L1264.53 32.9242C1265.91 33.7031 1267.49 34.1821 1269.21 34.1821C1274.14 34.1821 1278.13 30.4666 1278.45 25.7766H1307.54C1307.87 30.4666 1311.86 34.1821 1316.79 34.1821H1316.79ZM1215.4 271.673C1215.33 271.673 1215.26 271.693 1215.19 271.693V179.287C1215.26 179.287 1215.33 179.307 1215.4 179.307C1222.24 179.307 1227.78 174.094 1228.11 167.556H1357.88C1358.21 174.049 1363.68 179.226 1370.46 179.292V271.686C1363.68 271.754 1358.21 276.93 1357.88 283.426H1228.11C1227.78 276.888 1222.24 271.673 1215.4 271.673ZM1523.83 62.4842C1523.31 63.0411 1522.97 63.7586 1522.97 64.564C1522.97 65.7374 1523.67 66.7234 1524.65 67.2604L1506.79 113.494C1506.36 113.359 1505.92 113.267 1505.44 113.267C1503.89 113.267 1502.54 114.047 1501.77 115.221L1482.27 106.653C1482.55 105.97 1482.71 105.231 1482.71 104.452C1482.71 101.066 1479.87 98.3235 1476.37 98.3235C1475.24 98.3235 1474.19 98.635 1473.27 99.1388L1405.53 5.78214C1407.16 4.67346 1408.24 2.84554 1408.24 0.770683C1408.24 -1.62898 1406.8 -3.68395 1404.72 -4.68823L1406.44 -8.0176C1406.99 -7.78228 1407.59 -7.64473 1408.22 -7.64473C1409.75 -7.64473 1411.09 -8.40871 1411.87 -9.56049L1503.09 37.7766C1502.9 38.1776 1502.78 38.6135 1502.78 39.0842C1502.78 40.8193 1504.23 42.2263 1506.03 42.2263C1506.62 42.2263 1507.14 42.0324 1507.62 41.7672L1523.83 62.4859L1523.83 62.4842ZM1460.59 2.69141C1460.43 3.06594 1460.34 3.4786 1460.34 3.90948C1460.34 5.6446 1461.79 7.04993 1463.59 7.04993C1464.49 7.04993 1465.3 6.69362 1465.89 6.12353L1503.33 37.2264L1431.54 -0.0231361L1412.17 -10.0858C1412.43 -10.6261 1412.59 -11.226 1412.59 -11.864C1412.59 -14.1941 1410.63 -16.08 1408.23 -16.08C1406.98 -16.08 1405.87 -15.5712 1405.07 -14.7642L1398.18 -20.4949L1373.2 -41.245C1373.21 -41.2616 1373.23 -41.2815 1373.24 -41.3014L1460.59 2.68975L1460.59 2.69141ZM1241.04 -48.3264C1241.52 -47.1763 1242.68 -46.3609 1244.04 -46.3609C1245.62 -46.3609 1246.88 -47.4696 1247.17 -48.9114L1338.82 -48.9164C1339.11 -47.4713 1340.36 -46.3609 1341.95 -46.3609C1343.28 -46.3609 1344.42 -47.1398 1344.92 -48.2485L1367.47 -43.2984C1367.47 -43.2503 1367.44 -43.2122 1367.44 -43.1641C1367.44 -41.429 1368.9 -40.022 1370.69 -40.022C1371.5 -40.022 1372.22 -40.3352 1372.79 -40.8092L1404.68 -14.3068C1404.17 -13.6174 1403.86 -12.7788 1403.86 -11.8624C1403.86 -10.3593 1404.68 -9.0484 1405.91 -8.30099L1405.26 -7.04316L1404.17 -4.93681C1403.46 -5.197 1402.7 -5.3561 1401.9 -5.3561C1398.4 -5.3561 1395.56 -2.61172 1395.56 0.772343C1395.56 1.25625 1395.64 1.72193 1395.74 2.17269L1325.63 22.5019C1324.44 18.8544 1320.96 16.1912 1316.79 16.1912C1311.65 16.1912 1307.48 20.2166 1307.48 25.1866H1278.51C1278.51 20.2166 1274.35 16.1912 1269.21 16.1912C1265.01 16.1912 1261.5 18.8991 1260.34 22.5914L1226.81 12.8701L1190.23 2.26219C1190.35 1.78325 1190.44 1.28774 1190.44 0.772343C1190.44 -2.61338 1187.6 -5.3561 1184.1 -5.3561C1183.18 -5.3561 1182.32 -5.1622 1181.54 -4.8291L1179.82 -8.15847C1181.19 -8.86942 1182.13 -10.2499 1182.13 -11.8591C1182.13 -12.8501 1181.77 -13.7516 1181.17 -14.4709L1213.02 -40.9285C1213.61 -40.3684 1214.41 -40.0187 1215.3 -40.0187C1217.1 -40.0187 1218.56 -41.424 1218.56 -43.1608C1218.56 -43.2337 1218.52 -43.295 1218.51 -43.3646L1241.05 -48.3231L1241.04 -48.3264ZM1122.4 7.05159C1124.2 7.05159 1125.65 5.64624 1125.65 3.91113C1125.65 3.42722 1125.52 2.98143 1125.32 2.57209L1212.67 -41.424V-41.4207L1182.25 -16.1413L1180.77 -14.91C1179.98 -15.6293 1178.93 -16.0767 1177.77 -16.0767C1175.36 -16.0767 1173.4 -14.1891 1173.4 -11.8607C1173.4 -11.279 1173.53 -10.7239 1173.75 -10.2168L1097.16 29.5236L1082.46 37.1502C1082.46 37.1419 1082.45 37.1303 1082.44 37.122L1119.97 5.94123C1120.57 6.60744 1121.42 7.05325 1122.4 7.05325V7.05159ZM1078.14 41.6181C1078.67 41.9744 1079.27 42.2263 1079.96 42.2263C1081.76 42.2263 1083.21 40.8209 1083.21 39.0842C1083.21 38.5572 1083.05 38.0815 1082.81 37.6457L1174.04 -9.69969C1174.8 -8.47334 1176.18 -7.64473 1177.77 -7.64473C1178.29 -7.64473 1178.79 -7.74748 1179.26 -7.9132L1181 -4.54737C1179.07 -3.49669 1177.75 -1.52292 1177.75 0.772343C1177.75 2.75108 1178.73 4.49115 1180.24 5.60978L1113.22 97.9887L1112.48 99.0129C1111.62 98.587 1110.66 98.3235 1109.62 98.3235C1106.12 98.3235 1103.28 101.068 1103.28 104.452C1103.28 105.183 1103.43 105.874 1103.67 106.523L1084.15 115.101C1083.36 113.993 1082.04 113.265 1080.55 113.265C1079.96 113.265 1079.4 113.379 1078.89 113.585L1061.06 67.436C1062.21 66.9521 1063.01 65.8517 1063.01 64.564C1063.01 63.6592 1062.61 62.8588 1061.98 62.287L1078.14 41.6164V41.6181ZM1058.58 67.4741C1058.95 67.6167 1059.34 67.7062 1059.77 67.7062C1060.01 67.7062 1060.23 67.62 1060.46 67.5719L1078.35 113.862C1077.06 114.596 1076.19 115.937 1076.19 117.484C1076.19 118.82 1076.84 119.995 1077.84 120.769L1076.06 124.238L1036.22 201.789C1035.71 201.585 1035.15 201.469 1034.57 201.469C1034.04 201.469 1033.54 201.572 1033.07 201.741L1017.64 149.293C1018.86 148.842 1019.74 147.717 1019.74 146.376C1019.74 145.256 1019.1 144.322 1018.19 143.765L1058.58 67.4758V67.4741ZM1012.39 288.936C1013.63 288.494 1014.52 287.365 1014.52 286.013C1014.52 284.369 1013.2 283.061 1011.53 282.926V168.133C1013.19 167.99 1014.51 166.686 1014.51 165.045C1014.51 163.688 1013.61 162.559 1012.37 162.12L1015.93 149.409C1016.12 149.442 1016.29 149.519 1016.49 149.519C1016.68 149.519 1016.85 149.442 1017.04 149.413L1024.93 176.263L1032.5 201.996C1031.14 202.707 1030.2 204.085 1030.2 205.689C1030.2 207.777 1031.78 209.499 1033.84 209.835V240.303C1031.89 240.723 1030.43 242.398 1030.43 244.41C1030.43 246.026 1031.38 247.408 1032.76 248.12L1018.37 297.07L1017.03 301.594C1016.98 301.591 1016.93 301.563 1016.87 301.563C1016.55 301.563 1016.27 301.656 1015.98 301.737L1012.39 288.938L1012.39 288.936ZM1018.32 307.474C1019.38 306.954 1020.12 305.923 1020.12 304.702C1020.12 303.228 1019.05 302.05 1017.63 301.709L1033.32 248.361C1033.78 248.52 1034.27 248.624 1034.79 248.624C1035.16 248.624 1035.52 248.566 1035.86 248.482L1077.24 329.051L1077.79 330.115C1076.5 330.849 1075.63 332.187 1075.63 333.738C1075.63 335.436 1076.67 336.893 1078.17 337.559L1060.58 383.102C1060.41 383.077 1060.27 383.007 1060.1 383.007C1059.52 383.007 1059.01 383.19 1058.54 383.445L1018.32 307.474ZM1061.19 383.219L1078.75 337.762C1079.15 337.874 1079.56 337.955 1079.99 337.955C1081.65 337.955 1083.08 337.051 1083.81 335.733L1103.67 344.455C1103.43 345.108 1103.28 345.799 1103.28 346.53C1103.28 349.916 1106.12 352.658 1109.62 352.658C1110.66 352.658 1111.62 352.395 1112.48 351.969L1180.24 445.37C1178.73 446.492 1177.75 448.232 1177.75 450.211C1177.75 452.505 1179.07 454.48 1181 455.531L1179.36 458.695C1179.02 458.608 1178.66 458.549 1178.28 458.549C1176.58 458.549 1175.12 459.498 1174.4 460.867L1083.01 413.441C1083.22 413.023 1083.36 412.571 1083.36 412.075C1083.36 410.34 1081.91 408.933 1080.11 408.933C1079.42 408.933 1078.81 409.19 1078.29 409.546L1061.95 388.662C1062.77 388.09 1063.35 387.203 1063.35 386.148C1063.35 384.787 1062.44 383.655 1061.19 383.219H1061.19ZM1125.07 448.292C1125.19 447.962 1125.29 447.614 1125.29 447.241C1125.29 445.506 1123.83 444.099 1122.04 444.099C1121.19 444.099 1120.44 444.429 1119.86 444.94L1082.62 413.999C1082.64 413.978 1082.65 413.951 1082.66 413.931L1154.13 451.008L1174.16 461.412C1174.01 461.838 1173.92 462.286 1173.92 462.761C1173.92 465.091 1175.87 466.977 1178.28 466.977C1179.3 466.977 1180.22 466.624 1180.97 466.059L1187.47 471.468L1212.48 492.245C1212.47 492.262 1212.46 492.277 1212.45 492.293L1125.07 448.289V448.292ZM1341.91 499.89L1243.77 499.895L1218.38 494.32C1218.4 494.153 1218.48 494.003 1218.48 493.829C1218.48 492.094 1217.02 490.687 1215.23 490.687C1214.26 490.687 1213.42 491.11 1212.83 491.755L1181.43 465.668C1182.18 464.912 1182.64 463.89 1182.64 462.761C1182.64 461.006 1181.53 459.505 1179.96 458.87L1180.4 458.018L1181.54 455.809C1182.32 456.146 1183.18 456.336 1184.09 456.336C1187.59 456.336 1190.43 453.592 1190.43 450.208C1190.43 449.692 1190.34 449.2 1190.22 448.721L1259.98 428.49C1261.28 431.95 1264.68 434.436 1268.71 434.436C1273.72 434.436 1277.78 430.595 1277.98 425.794H1308.01C1308.21 430.595 1312.26 434.436 1317.28 434.436C1321.27 434.436 1324.65 431.995 1325.97 428.579L1358.84 438.113L1395.74 448.811C1395.63 449.262 1395.56 449.726 1395.56 450.208C1395.56 453.592 1398.4 456.336 1401.9 456.336C1402.7 456.336 1403.46 456.177 1404.16 455.917L1405.76 459.008C1404.34 459.699 1403.35 461.112 1403.35 462.763C1403.35 463.814 1403.76 464.762 1404.41 465.501L1373.02 491.587C1372.44 491.032 1371.64 490.689 1370.76 490.689C1368.96 490.689 1367.51 492.094 1367.51 493.831C1367.51 493.98 1367.58 494.106 1367.6 494.249L1341.91 499.89H1341.91ZM1373.45 492.172C1373.43 492.139 1373.41 492.104 1373.38 492.071L1403.4 467.122L1404.84 465.923C1405.61 466.576 1406.61 466.982 1407.71 466.982C1410.12 466.982 1412.07 465.095 1412.07 462.766C1412.07 462.238 1411.96 461.734 1411.77 461.265L1489.53 420.92L1503.23 413.805C1503.23 413.805 1503.24 413.817 1503.25 413.825L1465.94 444.822C1465.39 444.396 1464.71 444.103 1463.95 444.103C1462.15 444.103 1460.7 445.508 1460.7 447.245C1460.7 447.558 1460.79 447.845 1460.88 448.133L1373.45 492.174L1373.45 492.172ZM1507.48 409.399C1507 409.13 1506.47 408.935 1505.88 408.935C1504.08 408.935 1502.63 410.34 1502.63 412.077C1502.63 412.516 1502.72 412.933 1502.89 413.315L1411.51 460.738C1410.77 459.439 1409.36 458.55 1407.71 458.55C1407.23 458.55 1406.77 458.645 1406.33 458.786L1404.72 455.675C1406.8 454.667 1408.24 452.612 1408.24 450.213C1408.24 448.138 1407.17 446.31 1405.54 445.201L1472.43 352.998L1473.26 351.841C1474.18 352.348 1475.24 352.658 1476.37 352.658C1479.87 352.658 1482.71 349.914 1482.71 346.53C1482.71 345.751 1482.55 345.012 1482.27 344.326L1502.11 335.612C1502.82 336.996 1504.29 337.955 1506 337.955C1506.32 337.955 1506.63 337.916 1506.93 337.853L1524.51 383.334C1523.41 383.841 1522.64 384.898 1522.64 386.151C1522.64 387.111 1523.11 387.942 1523.82 388.518L1507.48 409.402V409.399ZM1527.2 383.279C1526.8 383.108 1526.36 383.007 1525.89 383.007C1525.61 383.007 1525.36 383.097 1525.1 383.165L1507.52 337.679C1509.17 337.079 1510.36 335.551 1510.36 333.739C1510.36 332.084 1509.36 330.669 1507.93 329.976L1509.59 326.744L1549.83 248.394C1550.27 248.531 1550.72 248.624 1551.19 248.624C1551.6 248.624 1551.98 248.555 1552.35 248.457L1568.03 301.773C1566.78 302.207 1565.87 303.338 1565.87 304.702C1565.87 305.818 1566.5 306.751 1567.41 307.308L1527.2 383.279ZM1569.69 301.672C1569.5 301.639 1569.32 301.559 1569.12 301.559C1568.95 301.559 1568.8 301.629 1568.64 301.654L1560.72 274.722L1552.94 248.266C1554.48 247.617 1555.56 246.135 1555.56 244.405C1555.56 242.28 1553.93 240.539 1551.81 240.247V209.863C1554.04 209.669 1555.79 207.886 1555.79 205.684C1555.79 203.965 1554.72 202.492 1553.2 201.837L1567.29 153.91L1568.63 149.343C1568.92 149.421 1569.19 149.514 1569.5 149.514C1569.59 149.514 1569.66 149.474 1569.74 149.466L1573.32 162.241C1572.24 162.752 1571.48 163.801 1571.48 165.04C1571.48 166.566 1572.63 167.776 1574.12 168.061V282.985C1572.62 283.269 1571.47 284.48 1571.47 286.01C1571.47 287.248 1572.23 288.292 1573.3 288.8L1569.7 301.669L1569.69 301.672Z" fill="white"/>
</g>
<defs>
<linearGradient id="paint0_linear_3345_185" x1="168.804" y1="62.731" x2="396.364" y2="815.367" gradientUnits="userSpaceOnUse">
<stop stop-color="#0C84BC"/>
<stop offset="1" stop-color="#1658A5"/>
</linearGradient>
<clipPath id="clip0_3345_185">
<rect width="432" height="500.159" fill="white" transform="translate(1008)"/>
</clipPath>
</defs>
</svg>
