<svg width="75" height="75" viewBox="0 0 75 75" fill="none" xmlns="http://www.w3.org/2000/svg">
<rect width="75" height="75" rx="20" fill="white"/>
<g clip-path="url(#clip0_3270_1919)">
<rect width="38" height="38" transform="translate(18.5 18.5)" fill="white"/>
<path d="M52.8223 43.5629C53.0138 43.9184 53.0435 44.3244 52.9381 44.6903C52.8305 45.054 52.5886 45.3783 52.2375 45.572L40.6052 51.9823C40.056 52.2829 39.4919 52.4618 38.9219 52.5167C38.3497 52.5716 37.7626 52.5018 37.1674 52.3066L34.6536 51.488C33.9196 51.2483 33.1915 51.1622 32.4738 51.2312C31.8177 51.2921 31.1735 51.4836 30.5508 51.799L26.8502 45.2922L31.2559 42.8668C32.0381 42.4355 32.8419 42.181 33.6583 42.103C34.477 42.0251 35.3141 42.1238 36.1617 42.4021L43.0411 44.645C43.3127 44.7334 43.5398 44.8974 43.712 45.1082C44.0237 45.4889 44.1328 45.9958 43.994 46.4738C43.9859 46.4968 43.977 46.5198 43.971 46.545C43.7164 47.2857 42.9208 47.6962 42.1786 47.475C42.1534 47.4646 42.1282 47.4557 42.1007 47.4498L36.305 45.5602C36.0229 45.4674 35.7201 45.6255 35.6296 45.9112C35.539 46.197 35.6949 46.5027 35.9769 46.5948L41.815 48.4985C42.48 48.7152 43.1702 48.6373 43.7461 48.3367C44.3354 48.0316 44.8104 47.4824 45.0064 46.8412C45.0798 46.6059 45.1199 46.3639 45.1266 46.1175L50.8385 42.9699C51.1895 42.7762 51.5896 42.745 51.9518 42.8541C52.311 42.961 52.6309 43.2052 52.8223 43.5629ZM45.4146 42.1936L43.0433 43.4998L43.3713 43.6052C43.83 43.7566 44.2338 44.0364 44.541 44.4112C44.6902 44.5923 44.8104 44.7898 44.9032 44.9983L48.2082 43.1785C48.1829 43.1198 48.1555 43.0605 48.1258 43.0041C47.6003 42.0251 46.3802 41.6614 45.4146 42.1936ZM24.8263 43.9229C24.6853 43.6728 24.3654 43.5859 24.1175 43.7314L21.5191 45.2462C21.2712 45.3917 21.1844 45.7153 21.3254 45.9639L27.1701 56.2373C27.3134 56.4874 27.6332 56.5742 27.8811 56.4287L30.4773 54.9139C30.7252 54.7707 30.8143 54.4471 30.671 54.1963L24.8263 43.9229ZM33.8454 32.5407C33.8454 28.3243 37.2832 24.885 41.4988 24.885C45.7166 24.885 49.1545 28.3251 49.1545 32.5407C49.1545 36.7563 45.7166 40.1964 41.4988 40.1964C37.2832 40.1971 33.8454 36.7571 33.8454 32.5407ZM36.0949 32.5407C36.0949 35.5258 38.5167 37.9453 41.4995 37.9453C44.4846 37.9453 46.9064 35.5258 46.9064 32.5407C46.9064 29.5556 44.4846 27.1361 41.4995 27.1361C38.5159 27.1361 36.0949 29.5556 36.0949 32.5407ZM41.4995 22.8989C41.8343 22.8989 42.1037 22.6273 42.1037 22.2948V19.1019C42.1037 18.7694 41.8343 18.5 41.4995 18.5C41.167 18.5 40.8976 18.7694 40.8976 19.1019V22.2955C40.8976 22.628 41.167 22.8989 41.4995 22.8989ZM46.3215 24.1889C46.6095 24.3551 46.9776 24.2564 47.1439 23.9699L48.7403 21.203C48.9066 20.9173 48.8079 20.5484 48.5214 20.3829C48.2334 20.2145 47.8653 20.3132 47.699 20.6019L46.1026 23.3665C45.9363 23.6545 46.035 24.0226 46.3215 24.1889ZM29.56 26.3434L32.3246 27.9384C32.6126 28.1069 32.9807 28.0082 33.147 27.7195C33.3132 27.4337 33.2167 27.0648 32.928 26.8971L30.1634 25.3021C29.8754 25.1337 29.5073 25.2324 29.341 25.5211C29.1748 25.8068 29.2742 26.175 29.56 26.3434ZM35.8567 23.9677C36.0207 24.2534 36.3888 24.3529 36.6768 24.1889C36.9633 24.0226 37.062 23.6567 36.898 23.3688L35.3015 20.6041C35.1375 20.3161 34.7694 20.2167 34.4807 20.3829C34.1949 20.547 34.0955 20.9151 34.2595 21.2016L35.8567 23.9677ZM53.6595 25.5226C53.4933 25.2346 53.1274 25.1352 52.8387 25.3014L50.074 26.8964C49.7861 27.0626 49.6866 27.4285 49.8529 27.7172C50.0169 28.0052 50.385 28.1046 50.6715 27.9384L53.4384 26.3434C53.7248 26.1772 53.8236 25.8105 53.6595 25.5226ZM41.2613 33.13C41.3014 33.1382 41.3452 33.1448 41.3897 33.1448H41.5203C41.6636 33.1448 41.7942 33.2035 41.8884 33.2985C41.9849 33.3935 42.0443 33.5234 42.0443 33.6666C42.0443 33.8098 41.9857 33.9405 41.8884 34.037C41.7934 34.132 41.6636 34.1906 41.5203 34.1906H41.2598C41.1737 34.1906 41.0936 34.1698 41.026 34.1357C40.9503 34.0978 40.8872 34.0429 40.8368 33.9761C40.6393 33.7089 40.2623 33.654 39.9951 33.8521C39.7302 34.0496 39.673 34.4266 39.8712 34.6938C40.0307 34.9105 40.2415 35.0871 40.4835 35.2089C40.6141 35.2764 40.7529 35.3269 40.8976 35.358V35.8019C40.8976 36.1344 41.167 36.4038 41.4995 36.4038C41.8343 36.4038 42.1037 36.1344 42.1037 35.8019V35.295C42.3456 35.2066 42.5646 35.0679 42.7434 34.889C43.0566 34.5758 43.2504 34.1446 43.2504 33.6666C43.2504 33.1909 43.0566 32.7574 42.7434 32.4442C42.4785 32.1815 42.1289 32.0004 41.74 31.9521C41.6977 31.944 41.6561 31.9373 41.6116 31.9373H41.481C41.3377 31.9373 41.2071 31.8787 41.1129 31.7837C41.0164 31.6887 40.957 31.5588 40.957 31.4155C40.957 31.2723 41.0156 31.1402 41.1129 31.0452C41.2079 30.9502 41.3377 30.8916 41.481 30.8916H41.7415C41.8276 30.8916 41.9077 30.9109 41.9753 30.9465C42.051 30.9843 42.1141 31.0393 42.1645 31.1061C42.362 31.371 42.739 31.4282 43.0062 31.23C43.2711 31.0326 43.3283 30.6555 43.1301 30.3884C42.9705 30.1716 42.7598 29.995 42.5178 29.8711C42.3872 29.8057 42.2484 29.7553 42.1037 29.7241V29.2803C42.1037 28.9478 41.8343 28.6784 41.4995 28.6784C41.167 28.6784 40.8976 28.9478 40.8976 29.2803V29.7872C40.6557 29.8733 40.4367 30.0143 40.2579 30.1932C39.9447 30.5064 39.7509 30.9376 39.7509 31.4155C39.7509 31.8913 39.9447 32.3225 40.2579 32.6357C40.5228 32.9007 40.8724 33.0795 41.2613 33.13Z" fill="#EF6A24"/>
</g>
<defs>
<clipPath id="clip0_3270_1919">
<rect width="38" height="38" fill="white" transform="translate(18.5 18.5)"/>
</clipPath>
</defs>
</svg>
