<svg width="481" height="415" viewBox="0 0 481 415" fill="none" xmlns="http://www.w3.org/2000/svg">
<path opacity="0.6" d="M614.677 -8.94247L614.544 -8.86615L562.479 -38.9258L562.346 -39.0024V-59.2568L529.736 -40.4293C529.917 -40.0418 530.021 -39.6111 530.021 -39.1555C530.021 -37.4868 528.668 -36.1343 527 -36.1343C525.331 -36.1343 523.978 -37.4868 523.978 -39.1555C523.978 -40.8241 525.331 -42.1766 527 -42.1766C528.022 -42.1766 528.925 -41.6669 529.471 -40.889L562.346 -59.8692V-99.2754L578.667 -108.698V-128.953L526.867 -158.859L526.99 -159.073L475.332 -129.248V-93.2402L508.66 -73.9988L508.793 -73.9221V-17.0548C510.337 -16.9203 511.549 -15.6259 511.549 -14.0468C511.549 -12.3781 510.196 -11.0256 508.527 -11.0256C506.859 -11.0256 505.506 -12.3781 505.506 -14.0468C505.506 -15.6259 506.718 -16.92 508.262 -17.0548V-73.6158L475.333 -92.6277V-68.9861L423.4 -39.0028V-38.5627L474.675 -8.95905L474.808 -8.88235V51.2372H474.278V-8.57629L423.4 -37.9503V36.9772C426.479 37.1161 428.933 39.6552 428.933 42.7686C428.933 45.9708 426.337 48.5664 423.135 48.5664C419.933 48.5664 417.337 45.9705 417.337 42.7686C417.337 39.6555 419.791 37.1161 422.87 36.9772V-37.8813L371.202 -67.7116L319.402 -37.8047L300.046 -26.6293L333.304 -7.42715L333.437 -7.35049V52.9225L281.239 83.0591L267.602 75.1856V111.199L294.482 126.719V105.279L346.415 75.2954V22.6321L371.257 8.39612C371.075 8.00699 370.97 7.57425 370.97 7.11621C370.97 5.44754 372.323 4.09506 373.991 4.09506C375.66 4.09506 377.012 5.44754 377.012 7.11621C377.012 8.78488 375.659 10.1374 373.991 10.1374C372.97 10.1374 372.07 9.62973 371.523 8.85483L346.945 22.9395V75.6007L295.013 105.584V127.024L319.402 141.105L319.274 141.327L319.402 141.401L319.335 141.517L319.531 141.631H319.534V141.633L366.008 168.465C367.025 166.789 368.866 165.669 370.97 165.669C374.172 165.669 376.767 168.264 376.767 171.466C376.767 174.668 374.171 177.264 370.97 177.264C367.768 177.264 365.172 174.668 365.172 171.466C365.172 170.557 365.382 169.697 365.755 168.931L319.534 142.245V201.444L371.335 231.351L371.238 231.518L423.005 261.406L474.804 231.499L474.937 231.729L475.07 231.499L475.123 231.529L474.935 231.203L526.735 201.297V142.163L475.203 171.915V203.982L440.218 224.696C440.583 225.196 440.801 225.809 440.801 226.475C440.801 228.143 439.448 229.496 437.78 229.496C436.111 229.496 434.759 228.143 434.759 226.475C434.759 224.806 436.111 223.454 437.78 223.454C438.589 223.454 439.321 223.773 439.863 224.29L474.672 203.68V171.609L474.933 171.458L474.805 171.237L526.405 141.446L475.067 111.806L427.451 139.297C427.943 139.835 428.246 140.549 428.246 141.335C428.246 143.004 426.893 144.356 425.225 144.356C423.557 144.356 422.204 143.003 422.204 141.335C422.204 139.666 423.557 138.314 425.225 138.314C425.856 138.314 426.442 138.508 426.927 138.839L474.802 111.199V51.3852H475.023L475.07 51.3031L475.197 51.3764V51.2318L527.262 21.1718L527.395 21.0955L565.795 43.2655L604.062 21.1718L604.195 21.0955L656.26 51.1552L656.393 51.2318V111.505L604.195 141.641L565.795 119.471L527.395 141.641L527.266 141.567V141.701L578.936 171.532L579.069 171.609V191.439L597.123 181.015L649.188 211.075L649.321 211.152V271.425L597.123 301.562L550.122 274.426C549.1 276.076 547.274 277.176 545.19 277.176C541.988 277.176 539.392 274.58 539.392 271.378C539.392 268.176 541.988 265.58 545.19 265.58C548.392 265.58 550.988 268.176 550.988 271.378C550.988 272.307 550.768 273.184 550.38 273.963L597.123 300.95L648.79 271.119V211.459L597.123 181.629L579.069 192.052V231.882L526.871 262.019L474.938 232.035L423.006 262.019L370.94 231.959L371.037 231.792L319.138 201.828L319.005 201.751V141.939L318.613 141.713L318.68 141.596L295.013 127.932V162.39C296.557 162.524 297.769 163.819 297.769 165.398C297.769 167.067 296.417 168.419 294.748 168.419C293.079 168.419 291.727 167.067 291.727 165.398C291.727 163.819 292.939 162.525 294.483 162.39V127.626L267.337 111.953L215.67 141.784V141.928L266.945 171.532L267.078 171.609V231.87L318.878 261.777L319.011 261.854V321.665L319.403 321.891L319.468 321.929L371.598 291.831L371.602 291.834L371.73 291.612L423.53 321.519L472.367 293.324C472.215 292.963 472.131 292.568 472.131 292.152C472.131 290.483 473.483 289.13 475.152 289.13C476.821 289.13 478.173 290.483 478.173 292.152C478.173 293.82 476.821 295.173 475.152 295.173C474.181 295.173 473.319 294.713 472.767 294.001L423.796 322.274V381.934L475.463 411.765L527.131 381.934V325.154C527.115 325.154 527.1 325.156 527.085 325.156C525.416 325.156 524.064 323.803 524.064 322.135C524.064 320.467 525.416 319.114 527.085 319.114C528.753 319.114 530.106 320.466 530.106 322.135C530.106 323.606 529.054 324.831 527.661 325.1V382.241L475.463 412.377L423.531 382.394L371.598 412.377L319.533 382.317L319.4 382.241V382.088H319.005V322.274L318.485 321.974H318.481V321.971L267.338 292.444L216.355 321.879L216.457 322.055L216.005 322.316L264.418 350.267C264.97 349.548 265.836 349.083 266.813 349.083C268.481 349.083 269.834 350.436 269.834 352.104C269.834 353.773 268.481 355.125 266.813 355.125C265.144 355.125 263.792 353.772 263.792 352.104C263.792 351.603 263.916 351.131 264.132 350.715L215.67 322.736V381.934L264.865 410.337C265.412 409.559 266.315 409.049 267.338 409.049C269.006 409.049 270.359 410.402 270.359 412.071C270.359 413.739 269.006 415.092 267.338 415.092C265.669 415.092 264.316 413.739 264.316 412.071C264.316 411.615 264.42 411.184 264.601 410.797L215.273 382.317L215.14 382.24V322.816L164.392 352.115L112.327 322.055L112.194 321.978V320.523L109.665 321.984L57.5999 291.924L57.4675 291.847V231.574L109.665 201.437V142.307L109.574 142.254L57.7327 172.185L8.14227 143.554C7.58826 144.234 6.74512 144.668 5.79999 144.668C4.13135 144.668 2.77887 143.316 2.77887 141.647C2.77887 139.979 4.13165 138.626 5.79999 138.626C7.46869 138.626 8.82123 139.979 8.82123 141.647C8.82123 142.18 8.68237 142.679 8.44049 143.114L57.7327 171.573L109.35 141.771L57.5999 111.894L57.4675 111.817V52.4053L10.9418 79.2671C11.3604 80.0687 11.5981 80.9793 11.5981 81.9461C11.5981 85.1483 9.00226 87.7438 5.80035 87.7438C2.59814 87.7438 0.00256348 85.1479 0.00256348 81.9461C0.00256348 78.7442 2.59851 76.1483 5.80035 76.1483C7.84601 76.1483 9.64301 77.2086 10.6749 78.8087L57.4679 51.7929V51.5446V-4.99649C55.9238 -5.13092 54.7119 -6.42529 54.7119 -8.00409C54.7119 -9.67276 56.0647 -11.0253 57.733 -11.0253C59.4017 -11.0253 60.7542 -9.67276 60.7542 -8.00409C60.7542 -6.42496 59.5422 -5.13092 57.9982 -4.99649V51.2379L106.929 22.9874C106.748 22.6 106.645 22.1693 106.645 21.7137C106.645 20.045 107.997 18.6925 109.666 18.6925C111.334 18.6925 112.687 20.045 112.687 21.7137C112.687 23.3823 111.334 24.7348 109.666 24.7348C108.643 24.7348 107.74 24.2251 107.193 23.4472L58.0482 51.8213L109.68 81.6309L161.333 51.8091V51.697V-2.2131C158.254 -2.35196 155.801 -4.89105 155.801 -8.00409C155.801 -11.2063 158.396 -13.8019 161.598 -13.8019C164.801 -13.8019 167.396 -11.206 167.396 -8.00409C167.396 -4.89105 164.942 -2.35162 161.863 -2.2131V51.6973V51.8094L213.529 81.6397L246.155 62.803L232.583 54.9671C232.029 55.623 231.201 56.0409 230.275 56.0409C228.606 56.0409 227.254 54.6884 227.254 53.0197C227.254 51.3511 228.606 49.9986 230.275 49.9986C231.943 49.9986 233.296 51.3514 233.296 53.0197C233.296 53.571 233.146 54.0861 232.888 54.531L246.685 62.497L260.462 54.5428C260.2 54.0952 260.047 53.5757 260.047 53.0197C260.047 51.3511 261.4 49.9986 263.068 49.9986C264.736 49.9986 266.089 51.3514 266.089 53.0197C266.089 54.6884 264.737 56.0409 263.068 56.0409C262.147 56.0409 261.324 55.6274 260.77 54.9775L247.216 62.803L267.071 74.2665V51.9159V51.3855V-8.2041L298.984 -26.6293L281.239 -36.8748L232.268 -8.60132C232.307 -8.40811 232.327 -8.2088 232.327 -8.00409C232.327 -6.33545 230.975 -4.98294 229.306 -4.98294C227.638 -4.98294 226.285 -6.33545 226.285 -8.00409C226.285 -9.67276 227.638 -11.0253 229.306 -11.0253C230.579 -11.0253 231.666 -10.2369 232.111 -9.12286L281.106 -37.4101L281.239 -37.4865L299.515 -26.935L319.136 -38.2637L320.432 -39.0116L268.648 -68.9087L268.515 -68.9854V-96.1144C266.971 -96.2488 265.759 -97.5432 265.759 -99.1224C265.759 -100.791 267.112 -102.144 268.78 -102.144C270.449 -102.144 271.802 -100.791 271.802 -99.1224C271.802 -97.5432 270.59 -96.2491 269.046 -96.1144V-69.2921L320.846 -39.3855L320.73 -39.1842L371.069 -68.2473L371.202 -68.3237L422.58 -38.6606L422.742 -38.942L422.869 -38.8687V-39.3085L474.802 -69.2918V-92.9334L456.594 -103.445L406.193 -74.3461C406.276 -74.0701 406.322 -73.7779 406.322 -73.4749C406.322 -71.8062 404.969 -70.4538 403.301 -70.4538C401.632 -70.4538 400.28 -71.8066 400.28 -73.4749C400.28 -75.1436 401.632 -76.4961 403.301 -76.4961C404.477 -76.4961 405.493 -75.8232 405.993 -74.8426L456.462 -103.982L456.595 -104.058L474.802 -93.5462V-128.953L423.135 -158.783L397.433 -143.944V-99.2362L358.352 -76.6721L358.219 -76.5957L319.137 -99.1595L319.004 -99.2362V-99.6476L299.398 -110.967V-85.0377C299.602 -85.0596 299.81 -85.0715 300.02 -85.0715C303.222 -85.0715 305.818 -82.4756 305.818 -79.2737C305.818 -76.0715 303.222 -73.476 300.02 -73.476C296.818 -73.476 294.222 -76.0718 294.222 -79.2737C294.222 -82.0811 296.218 -84.4222 298.868 -84.9566V-111.274L268.256 -128.947L216.589 -99.117V-47.8204C219.668 -47.6815 222.121 -45.1424 222.121 -42.029C222.121 -38.8268 219.525 -36.2313 216.323 -36.2313C213.122 -36.2313 210.526 -38.8271 210.526 -42.029C210.526 -45.1421 212.979 -47.6815 216.058 -47.8204V-98.8214L196.451 -110.142V-82.2813C197.995 -82.1469 199.207 -80.8525 199.207 -79.2737C199.207 -77.605 197.855 -76.2525 196.186 -76.2525C194.517 -76.2525 193.165 -77.6054 193.165 -79.2737C193.165 -80.8528 194.377 -82.1469 195.921 -82.2813V-110.448L164.391 -128.652L112.724 -98.8214V-42.0159C114.268 -41.8811 115.48 -40.587 115.48 -39.0078C115.48 -37.3392 114.127 -35.9867 112.458 -35.9867C110.79 -35.9867 109.437 -37.3395 109.437 -39.0078C109.437 -40.587 110.649 -41.8811 112.194 -42.0159V-99.1274L164.126 -129.111V-189.373L195.921 -207.73V-220.024L144.253 -249.854L92.5858 -220.024V-166.001C95.6647 -165.863 98.1185 -163.323 98.1185 -160.21C98.1185 -157.008 95.5225 -154.413 92.3207 -154.413C89.1188 -154.413 86.5229 -157.009 86.5229 -160.21C86.5229 -163.323 88.9766 -165.863 92.0555 -166.001V-220.33L144.121 -250.39L144.254 -250.466L196.319 -220.407L196.452 -220.33V-208.036L216.059 -219.356V-279.618L267.992 -309.602V-309.744V-309.75V-369.864L320.057 -399.924L320.189 -400L372.254 -369.94L372.387 -369.864V-309.75V-309.744V-309.602L423.332 -280.188L474.41 -309.679L474.542 -309.755L526.608 -279.695L526.74 -279.618V-219.807L527.132 -219.581L527.265 -219.504V-159.242L579.065 -129.335L579.198 -129.259V-109.004L614.411 -129.335L614.544 -129.412L666.609 -99.3521L666.742 -99.2754V-39.0028L614.677 -8.94247ZM475.727 111.199L526.605 140.573V81.6691L475.727 52.2952V111.199ZM604.194 141.029L655.861 111.198V51.5382L604.194 21.7079L566.325 43.5718L579.46 51.1552L579.592 51.2318V111.505L566.325 119.165L604.194 141.029ZM565.264 119.165L554.734 113.085C554.187 113.863 553.284 114.373 552.262 114.373C550.593 114.373 549.24 113.02 549.24 111.352C549.24 109.683 550.593 108.331 552.262 108.331C553.93 108.331 555.283 109.683 555.283 111.352C555.283 111.807 555.179 112.238 554.998 112.626L565.795 118.859L579.062 111.199V51.5382L565.795 43.8782L557.41 48.7193C557.824 49.5175 558.06 50.4238 558.06 51.3855C558.06 54.5874 555.464 57.1833 552.262 57.1833C549.06 57.1833 546.464 54.5874 546.464 51.3855C546.464 48.1833 549.06 45.5877 552.262 45.5877C554.313 45.5877 556.113 46.6535 557.144 48.2607L565.264 43.5725L527.395 21.7086L475.728 51.5389V51.6835L527.003 81.287L527.136 81.3637V140.88L527.395 141.03L565.264 119.165ZM578.537 231.575V192.357L547.565 210.239C547.777 210.652 547.898 211.119 547.898 211.614C547.898 213.283 546.546 214.635 544.877 214.635C543.209 214.635 541.856 213.283 541.856 211.614C541.856 209.946 543.209 208.593 544.877 208.593C545.86 208.593 546.73 209.064 547.282 209.79L578.537 191.745V171.915L527.265 142.313V201.603L475.276 231.618L526.87 261.405L578.537 231.575ZM319.929 381.935L371.596 411.765L423.264 381.935V322.274L371.596 292.444L319.929 322.274V381.935ZM318.479 321.359V262.16L266.812 232.33L215.144 262.16V321.821L215.269 321.893L267.336 291.832L318.479 321.359ZM109.929 141.177L161.331 111.499V52.5104L109.929 82.1873V141.177ZM109.399 141.188V82.0988L57.9965 52.4219V111.511L109.399 141.188ZM246.686 63.1094L213.53 82.2521L161.862 52.4219V111.499L161.995 111.729L161.862 111.806V111.817L110.195 141.647V142.001L161.332 171.525V156.461C159.788 156.326 158.576 155.032 158.576 153.453C158.576 151.784 159.929 150.432 161.597 150.432C163.266 150.432 164.618 151.784 164.618 153.453C164.618 155.032 163.406 156.326 161.862 156.461V172.443L110.195 142.613V201.296L157.094 228.373C158.157 227.063 159.779 226.225 161.597 226.225C164.799 226.225 167.395 228.821 167.395 232.023C167.395 235.225 164.799 237.821 161.597 237.821C158.395 237.821 155.799 235.225 155.799 232.023C155.799 230.97 156.081 229.983 156.572 229.133L109.665 202.05L57.9972 231.881V291.541L109.665 321.372L112.194 319.911V267.65C109.115 267.511 106.661 264.972 106.661 261.859C106.661 258.656 109.257 256.061 112.458 256.061C115.661 256.061 118.256 258.657 118.256 261.859C118.256 264.972 115.803 267.511 112.724 267.65V319.605L159.025 292.873C158.908 292.551 158.841 292.205 158.841 291.842C158.841 290.173 160.193 288.821 161.862 288.821C163.53 288.821 164.883 290.174 164.883 291.842C164.883 293.511 163.53 294.863 161.862 294.863C160.745 294.863 159.773 294.256 159.25 293.355L112.723 320.217V321.672L164.39 351.502L214.943 322.316L214.746 322.203L214.614 322.126V261.854L214.874 261.703L214.746 261.482L266.546 231.575V171.915L215.669 142.541V199.572C216.953 199.92 217.9 201.09 217.9 202.486C217.9 204.154 216.547 205.507 214.879 205.507C213.21 205.507 211.858 204.154 211.858 202.486C211.858 200.817 213.21 199.464 214.879 199.464C214.967 199.464 215.053 199.47 215.139 199.478V142.235L214.746 142.008L215.011 141.549L215.139 141.622V141.477L267.071 111.494V74.8789L246.686 63.1094ZM267.602 -7.89804V51.3852V51.9155V74.5725L281.239 82.4464L332.907 52.6161V-7.04446L299.515 -26.3233L267.602 -7.89804ZM423.135 -159.395L423.139 -159.392L423.267 -159.614L475.067 -129.707L526.734 -159.537V-219.198L526.609 -219.27L474.675 -189.285L474.542 -189.209L423.332 -218.775L399.439 -204.981V-181.646L371.467 -166.693V-159.509L397.301 -144.594L397.399 -144.537L423.002 -159.319L423.135 -159.395ZM423.862 -219.082L474.542 -189.821L526.079 -219.576L475.067 -249.028L424.319 -219.728V-219.345L423.862 -219.082ZM371.467 -158.897V-129.565L396.869 -144.231L371.467 -158.897ZM396.903 -99.5426V-143.638L370.937 -128.646V-159.203L358.219 -166.546L319.534 -144.211V-99.954L320.322 -99.4997L320.143 -99.1909L358.219 -77.2081L396.903 -99.5426ZM164.656 -189.067V-129.406L195.921 -111.356V-207.118L164.656 -189.067ZM196.451 -111.049L216.323 -99.576L268.124 -129.483L268.256 -129.253L268.389 -129.483L298.868 -111.886V-135.164L267.991 -153.844V-189.067L216.323 -218.897L196.451 -207.424V-111.049ZM216.589 -279.312V-219.651L268.389 -189.745L268.261 -189.523L268.389 -189.449L268.256 -189.219H268.521V-154.142L299.398 -135.462V-111.579L319.004 -100.26V-144.517L358.086 -167.081L358.218 -167.157L370.936 -159.815V-167.01L398.909 -181.964V-204.674L372.254 -189.285L372.121 -189.209L320.454 -219.039V-183.982C321.998 -183.848 323.21 -182.554 323.21 -180.974C323.21 -179.306 321.857 -177.953 320.188 -177.953C318.52 -177.953 317.167 -179.306 317.167 -180.974C317.167 -182.554 318.379 -183.848 319.923 -183.982V-219.345V-219.493L268.123 -249.4L267.991 -249.476V-308.989L216.589 -279.312ZM319.924 -276.457C318.38 -276.592 317.168 -277.886 317.168 -279.465C317.168 -281.134 318.52 -282.486 320.189 -282.486C321.857 -282.486 323.21 -281.134 323.21 -279.465C323.21 -277.886 321.998 -276.592 320.454 -276.458V-220.106L371.856 -249.783V-309.443L320.189 -339.273L268.521 -309.443V-249.783L319.924 -220.105V-276.457ZM320.189 -399.388L268.521 -369.558V-310.056L320.056 -339.809L320.189 -339.886L371.856 -310.056V-369.558L320.189 -399.388ZM372.387 -308.989V-249.477L320.591 -219.572L372.121 -189.821L398.909 -205.287V-229.846C398.894 -229.846 398.879 -229.844 398.864 -229.844C395.662 -229.844 393.066 -232.44 393.066 -235.642C393.066 -238.844 395.662 -241.44 398.864 -241.44C402.066 -241.44 404.662 -238.844 404.662 -235.642C404.662 -232.634 402.371 -230.162 399.439 -229.873V-205.593L422.801 -219.081L422.477 -219.268L422.742 -219.727L423.004 -219.576L423.002 -219.58L423.788 -220.034V-279.311L423.331 -279.575L422.741 -279.235L422.476 -279.694L422.801 -279.881L372.387 -308.989ZM526.21 -279.312L474.542 -309.143L423.862 -279.882L424.186 -279.695L424.319 -279.618V-220.341L474.935 -249.564L475.067 -249.64L526.21 -220.113V-279.312ZM562.877 -98.9694V-60.1756L578.667 -69.2921V-108.086L562.877 -98.9694ZM666.212 -98.9694L614.544 -128.8L579.197 -108.392V-68.9861L562.877 -59.5632V-39.3088L614.544 -9.47855L666.212 -39.3088V-98.9694Z" fill="#F5FBFE"/>
</svg>
