<svg width="38" height="41" viewBox="0 0 38 41" fill="none" xmlns="http://www.w3.org/2000/svg">
<path d="M37.1719 20.1184V20.2001C37.0662 20.6738 36.9153 20.9024 36.4926 21.0657C35.9191 21.2944 35.27 21.4251 34.6663 21.6537C27.8742 24.169 22.4406 30.0327 20.086 37.3662C19.8747 38.0196 19.7087 39.0648 19.4521 39.6202C19.3162 39.9142 19.0747 40.0612 18.7879 40.1592H18.5464C18.2596 40.0448 18.0181 39.9305 17.8823 39.6202C17.6861 39.1792 17.5503 38.3299 17.3843 37.8072C15.0749 30.245 9.53558 24.1527 2.54727 21.6047C2.03409 21.4087 1.05298 21.2291 0.630359 20.9841C0.0115235 20.6411 0.0266171 19.6611 0.630359 19.3344C1.06807 19.0894 2.00389 18.9098 2.53216 18.7138C9.88272 16.0188 15.1806 9.82857 17.5352 1.89067C17.7314 1.23734 17.7766 0.143028 18.637 0.159361C19.4973 0.175694 19.5576 1.35165 19.7539 2.02131C22.1839 10.1879 27.6328 16.2148 35.1946 18.8771C35.572 19.0078 36.4775 19.1874 36.7492 19.4161C36.87 19.5141 36.9455 19.6448 37.0059 19.7754L37.1114 20.1184H37.1719Z" fill="url(#paint0_linear_3323_510)"/>
<defs>
<linearGradient id="paint0_linear_3323_510" x1="34.1551" y1="35.6431" x2="2.03802" y2="5.43768" gradientUnits="userSpaceOnUse">
<stop offset="0.0277004" stop-color="#0C84BC"/>
<stop offset="0.578478" stop-color="white"/>
</linearGradient>
</defs>
</svg>
