<svg width="1440" height="650" viewBox="0 0 1440 650" fill="none" xmlns="http://www.w3.org/2000/svg">
<rect width="1440" height="650" fill="url(#paint0_linear_3345_182)"/>
<g opacity="0.25" clip-path="url(#clip0_3345_182)">
<path d="M988.679 34.9843L963.126 145.544V145.548L949.463 208.324C949.46 208.342 949.46 208.354 949.467 208.371L979.486 330.717C979.486 330.729 979.498 330.729 979.499 330.734C979.505 330.747 979.503 330.757 979.505 330.764L1068.63 430.799C1068.65 430.811 1068.66 430.817 1068.67 430.822V430.827H1068.68L1200.92 487.89V487.896H1200.93L1230.46 498.68C1230.48 498.685 1230.49 498.685 1230.49 498.685L1373.74 501.599L1373.75 501.594C1373.75 501.594 1373.77 501.599 1373.78 501.599L1504.19 457.861C1504.21 457.856 1504.22 457.849 1504.23 457.837L1523.14 439.771L1640.31 341.266C1640.32 341.261 1640.32 341.249 1640.32 341.243C1640.32 341.238 1640.33 341.238 1640.33 341.231L1704.26 217.25C1704.26 217.238 1704.26 217.226 1704.26 217.215C1704.26 217.21 1704.27 217.21 1704.27 217.198L1706.47 87.9577C1706.47 87.9491 1706.46 87.9422 1706.46 87.9353C1706.46 87.9267 1706.46 87.9181 1706.46 87.9095L1654.49 -19.9584C1654.49 -19.9584 1654.48 -19.9722 1654.47 -19.9808L1613.8 -66.3786C1613.8 -66.3786 1613.79 -66.3837 1613.79 -66.3855C1613.79 -66.3855 1613.79 -66.3906 1613.78 -66.3924L1524.2 -135.867C1524.2 -135.867 1524.18 -135.867 1524.18 -135.867C1524.17 -135.872 1524.17 -135.881 1524.16 -135.881H1524.16L1410.33 -173.882C1410.32 -173.885 1410.31 -173.882 1410.3 -173.882L1410.29 -173.887L1282.24 -170.711C1282.24 -170.711 1282.23 -170.704 1282.22 -170.702L1282.21 -170.706L1156.65 -130.401L1156.65 -130.393C1156.64 -130.389 1156.64 -130.393 1156.63 -130.386L1057.11 -60.896C1057.11 -60.896 1057.1 -60.8822 1057.1 -60.8736C1057.1 -60.8702 1057.09 -60.8736 1057.08 -60.8702L988.714 34.9171C988.697 34.9309 988.685 34.9481 988.679 34.967C988.676 34.9722 988.679 34.9791 988.679 34.9843ZM1070.62 391.526L1072.66 346.693L1194.42 398.82L1200.85 487.624L1068.83 430.658L1070.62 391.526ZM1662.72 59.2022L1659.41 152.996L1571.91 117.856L1554.34 110.804L1555.38 95.5421L1560.07 26.3241L1585.27 28.8717L1663.51 36.7796L1662.72 59.2005V59.2022ZM1659.36 153.21L1599.76 266.953L1509.59 189.909L1554.28 111.009L1638.23 144.727L1659.36 153.21ZM1453.97 10.0192L1438.66 22.9949L1401.69 -7.45093L1461.05 -98.0397L1523.54 -48.9652L1453.97 10.0192ZM1364.95 -67.2548L1354.7 -21.8691L1326.3 -22.9381L1297.91 -24.0088L1284.33 -124.788L1378.02 -125.12L1364.95 -67.253V-67.2548ZM1284.88 -119.094L1297.69 -23.9795L1240.95 -6.40607L1192.56 -95.8019L1284.12 -124.754L1284.88 -119.094ZM1123.46 266.703L1135.75 247.37L1222.29 283.344L1200.34 374.189L1194.45 398.594L1072.72 346.485L1123.46 266.701L1123.46 266.703ZM1178.73 160.71L1180.05 160.395L1215.14 194.521L1174.36 221.514L1135.73 247.095L1075.72 185.255L1178.73 160.708V160.71ZM1456.83 75.1369L1453.24 115.157L1426.1 159.455L1420.03 164.433L1425.57 133.7L1448.08 87.2984L1457.47 67.9485L1456.83 75.1369H1456.83ZM1226.25 164.275L1230.76 130.766L1249.03 103.342L1243.72 117.309L1235.73 138.306C1235.72 138.315 1235.71 138.323 1235.71 138.332C1235.71 138.337 1235.71 138.344 1235.71 138.349L1226.25 164.273L1226.25 164.275ZM1164.36 114.94L1173.45 67.4562L1223.42 122.869L1230.54 130.765L1226.16 163.319L1225.93 165.041L1164.37 114.942L1164.36 114.94ZM1173.52 67.2117L1201.18 26.0573L1249.34 102.481L1230.64 130.551L1186.68 81.8073L1173.52 67.2117ZM1268.92 88.1212L1278.73 80.8089L1274.93 109.831L1236.05 138.075L1240.37 126.713L1249.56 102.551L1268.92 88.1212H1268.92ZM1275.16 109.735L1278.97 80.6505L1316.11 67.9829L1326.34 92.1303L1275.16 109.736L1275.16 109.735ZM1326.56 92.0855L1316.34 67.9623L1354.56 69.3704L1371.79 88.4052L1376.06 93.1235L1326.56 92.0855ZM1369.61 85.6752L1354.96 69.4977L1388.31 80.5885L1402.07 94.3681L1411.69 104.006L1376.36 93.1407L1369.61 85.6752ZM1297.95 -23.7902L1354.68 -21.654L1354.5 69.1535L1321.2 67.9244L1316.26 67.7419L1297.95 -23.7919V-23.7902ZM1420.21 8.07925L1438.54 23.1722L1422.51 72.0712L1412.02 104.037L1408.24 100.248L1388.48 80.456L1401.62 -7.222L1420.21 8.08098V8.07925ZM1425.36 133.679L1419.77 164.645L1383.03 194.796L1325.8 213.38L1265.68 212.816L1250.23 207.175L1237.51 194.047L1226.12 165.245L1235.91 138.447L1275.07 109.991L1326.5 92.3042L1376.29 93.349L1412 104.33L1425.36 133.682V133.679ZM1432.37 250.212L1328.46 284.5L1325.93 213.564L1383.06 195.017L1432.37 250.214L1432.37 250.212ZM1326.02 222.324L1328.25 284.542L1222.61 283.175L1226.16 277.393L1265.72 213.034L1325.71 213.592L1326.02 222.323V222.324ZM1147.04 251.825L1135.94 247.212L1215.33 194.662L1250.13 207.371L1265.5 212.977L1222.37 283.145L1147.04 251.825ZM1202.07 173.375L1237.35 194.19L1249.77 207.004L1215.37 194.447L1180.8 160.827L1202.07 173.375ZM1509.24 189.968L1432.57 250.114L1383.24 194.906L1426.2 159.649L1509.24 189.968ZM1075.59 185.064L1053.3 105.273L1164.17 115.085L1179.94 160.197L1075.59 185.064ZM1175.06 145.591L1164.47 115.31L1225.92 165.314L1237.2 193.853L1183 161.866L1180.17 160.204L1175.06 145.591H1175.06ZM1249.5 102.326L1201.32 25.8851L1240.85 -6.1031L1244.27 1.70847L1278.74 80.5352L1249.5 102.324V102.326ZM1296.76 -23.4666L1297.73 -23.7661L1316.04 67.7764L1278.93 80.437L1241.04 -6.20811L1296.76 -23.4666ZM1363.85 -18.8688L1401.42 -7.35283L1388.28 80.351L1354.72 69.1879L1354.89 -21.6126L1363.85 -18.8688ZM1457.51 67.3684L1425.47 133.412L1412.19 104.232L1438.68 23.439L1457.52 67.3667L1457.51 67.3684ZM1482.38 114.057L1554.04 110.991L1541.56 133.027L1509.41 189.799L1426.34 159.472L1428.77 155.511L1453.41 115.297L1482.38 114.057H1482.38ZM1395.33 386.793L1346.61 403.073L1334.79 325.915L1328.48 284.729L1395.19 262.708L1432.5 250.395L1490.74 354.909L1395.33 386.794V386.793ZM1285.7 401.321L1194.66 398.639L1203.8 360.774L1222.5 283.388L1328.27 284.755L1346.4 403.106L1285.7 401.321H1285.7ZM1556.36 77.9531L1554.13 110.771L1497.56 113.191L1453.46 115.078L1457.73 67.4476L1559.86 26.3723L1556.36 77.9531H1556.36ZM1490.83 355.106L1522.92 439.628L1365.07 493.772L1353.47 436.795L1346.65 403.287L1408.92 382.475L1490.83 355.104L1490.83 355.106ZM1075.39 185.163L990.967 258.909L963.355 145.63L1053.09 105.301L1075.39 185.163H1075.39ZM1066.52 45.2953L1071 25.0898L1173.26 67.2909L1164.16 114.871L1053.29 105.053L1066.52 45.2953ZM1159.85 -8.31851L1201.03 25.8817L1173.35 67.0913L1071.09 24.8953L1118.68 -42.5187L1159.85 -8.31679V-8.31851ZM1378.23 -125.089L1460.85 -98.1361L1401.49 -7.55594L1354.91 -21.8313L1378.23 -125.089H1378.23ZM1543.73 -7.21338L1559.83 26.1519L1493.29 52.914L1457.69 67.2341L1438.8 23.1688L1448.96 14.5499L1523.67 -48.7948L1543.73 -7.21165V-7.21338ZM1599.62 267.121L1490.93 354.803L1432.69 250.288L1509.45 190.071L1599.62 267.12L1599.62 267.121ZM1324.59 492.295L1201.06 487.689L1194.63 398.856L1346.44 403.323L1357.58 458.066L1364.86 493.802L1324.59 492.295ZM1058.74 331.573L991.064 259.113L1075.51 185.344L1135.58 247.248L1072.55 346.359L1058.74 331.575V331.573ZM1138.06 -56.5427L1192.36 -95.7056L1194.13 -92.4418L1240.76 -6.3028L1201.33 25.5994L1201.18 25.7233L1118.83 -42.6719L1138.06 -56.5427ZM1636.5 -19.0375L1663.44 36.5576L1654.43 35.647L1560.05 26.1054L1556.35 18.454L1523.86 -48.8912L1546.41 -53.2359L1613.66 -66.1909L1636.5 -19.0392V-19.0375ZM1068.62 430.455L979.701 330.659L990.979 259.339L1020.31 290.747L1072.46 346.578L1070.81 382.506L1068.62 430.457L1068.62 430.455ZM988.871 35.1048L1016.78 31.6827L1070.78 25.0675L1053.06 105.075L963.384 145.379L988.871 35.103V35.1048ZM1057.21 -60.6826L1086.81 -51.957L1118.48 -42.6185L1070.86 24.8402L1012.73 31.9615L989.012 34.8689L1057.21 -60.6826H1057.21ZM1057.42 -60.8478L1156.68 -130.162L1174.4 -113.067L1192.23 -95.876L1169.54 -79.5075L1118.63 -42.7958L1117.39 -43.1642L1057.41 -60.8478H1057.42ZM1156.89 -130.255L1282.14 -170.461L1284.1 -124.974L1192.43 -95.9861L1190.31 -98.0329L1156.89 -130.253V-130.255ZM1410.09 -173.67L1378.1 -125.337L1284.31 -125.003L1282.36 -170.501L1410.09 -173.67ZM1523.87 -135.757L1461.01 -98.3117L1450.32 -101.797L1378.33 -125.289L1405.73 -166.695L1410.34 -173.656L1523.87 -135.758V-135.757ZM1613.46 -66.37L1523.73 -49.084L1461.21 -98.1843L1524.12 -135.653L1613.46 -66.37ZM1705.88 87.2175L1663.72 36.6282L1615.15 -63.5831L1614.16 -65.6384L1654.3 -19.85L1705.88 87.2175H1705.88ZM1704.06 216.868L1693.66 201.949L1659.62 153.118L1663.72 36.9707L1706.25 87.9956L1704.06 216.868H1704.06ZM1640.24 340.954L1599.91 267.121L1659.52 153.365L1704.04 217.212L1640.24 340.954ZM1640.1 341.157L1523.11 439.511L1491.03 355.006L1545.99 310.662L1599.76 267.288L1603.36 273.873L1640.1 341.156V341.157ZM1504.1 457.665L1373.77 501.376L1365.2 493.955L1522.64 439.955L1504.1 457.667L1504.1 457.665ZM1201.64 487.927L1364.95 494.017L1372.8 500.816L1373.45 501.381L1230.52 498.473L1201.65 487.928L1201.64 487.927ZM963.234 146.049L990.798 259.112L979.565 330.148L949.68 208.342L963.234 146.05V146.049Z" fill="#FFF5F0"/>
<path d="M1385.42 79.3919C1384.55 80.8035 1385 82.6505 1386.4 83.5163C1387.82 84.3839 1389.67 83.9432 1390.53 82.5317C1391.4 81.1202 1390.96 79.2732 1389.54 78.4056C1388.13 77.538 1386.29 77.9787 1385.42 79.3902L1385.42 79.3919Z" fill="#FFF5F0"/>
<path d="M1272.37 107.899C1271.5 109.309 1271.94 111.156 1273.35 112.023C1274.76 112.891 1276.61 112.45 1277.48 111.04C1278.34 109.627 1277.9 107.78 1276.49 106.914C1275.08 106.045 1273.24 106.487 1272.37 107.9V107.899Z" fill="#FFF5F0"/>
<path d="M1422.75 129.276C1421.88 130.689 1422.32 132.537 1423.74 133.402C1425.15 134.268 1426.99 133.829 1427.86 132.416C1428.73 131.006 1428.29 129.159 1426.88 128.292C1425.46 127.426 1423.62 127.865 1422.75 129.275L1422.75 129.276Z" fill="#FFF5F0"/>
<path d="M1379.64 193.427C1378.77 194.836 1379.21 196.684 1380.63 197.552C1382.04 198.419 1383.88 197.982 1384.75 196.569C1385.62 195.156 1385.18 193.312 1383.76 192.439C1382.35 191.574 1380.51 192.014 1379.64 193.429V193.427Z" fill="#FFF5F0"/>
<path d="M1263.39 210.169C1262.53 211.582 1262.97 213.432 1264.39 214.298C1265.79 215.164 1267.64 214.723 1268.51 213.315C1269.38 211.902 1268.94 210.052 1267.52 209.186C1266.11 208.32 1264.27 208.761 1263.39 210.169Z" fill="#FFF5F0"/>
<path d="M1220.98 281.174C1220.12 282.582 1220.56 284.43 1221.97 285.298C1223.38 286.164 1225.23 285.723 1226.1 284.315C1226.96 282.902 1226.52 281.051 1225.11 280.186C1223.7 279.32 1221.85 279.76 1220.98 281.174Z" fill="#FFF5F0"/>
<path d="M1072.91 182.802C1072.05 184.215 1072.49 186.066 1073.9 186.932C1075.31 187.798 1077.16 187.357 1078.02 185.944C1078.89 184.536 1078.45 182.687 1077.04 181.819C1075.63 180.952 1073.78 181.394 1072.91 182.802Z" fill="#FFF5F0"/>
<path d="M1051.49 102.579C1050.62 103.989 1051.07 105.836 1052.48 106.705C1053.89 107.571 1055.74 107.132 1056.6 105.719C1057.47 104.306 1057.03 102.462 1055.62 101.595C1054.2 100.725 1052.36 101.164 1051.49 102.578V102.579Z" fill="#FFF5F0"/>
<path d="M959.781 142.671C958.912 144.084 959.355 145.931 960.764 146.797C962.178 147.663 964.025 147.224 964.89 145.811C965.758 144.402 965.317 142.554 963.904 141.686C962.494 140.82 960.647 141.259 959.78 142.669L959.781 142.671Z" fill="#FFF5F0"/>
<path d="M1070.64 344.931C1069.77 346.344 1070.21 348.188 1071.62 349.055C1073.04 349.923 1074.88 349.485 1075.75 348.072C1076.62 346.659 1076.18 344.815 1074.77 343.948C1073.35 343.075 1071.51 343.517 1070.64 344.931Z" fill="#FFF5F0"/>
<path d="M1066.54 427.837C1065.67 429.25 1066.11 431.1 1067.53 431.966C1068.94 432.834 1070.78 432.391 1071.65 430.978C1072.52 429.57 1072.07 427.721 1070.67 426.854C1069.26 425.988 1067.41 426.429 1066.54 427.837Z" fill="#FFF5F0"/>
<path d="M977.929 328.364C977.06 329.777 977.504 331.628 978.916 332.494C980.327 333.359 982.173 332.919 983.042 331.505C983.908 330.097 983.464 328.249 982.055 327.381C980.646 326.515 978.799 326.956 977.929 328.364Z" fill="#FFF5F0"/>
<path d="M1429.51 249.799C1428.64 251.207 1429.08 253.055 1430.49 253.923C1431.9 254.789 1433.75 254.348 1434.62 252.94C1435.48 251.527 1435.04 249.676 1433.63 248.81C1432.22 247.945 1430.37 248.385 1429.51 249.8L1429.51 249.799Z" fill="#FFF5F0"/>
<path d="M1198.9 24.1568C1198.04 25.5683 1198.48 27.4171 1199.89 28.2829C1201.3 29.1505 1203.15 28.7098 1204.02 27.2966C1204.88 25.8868 1204.44 24.0398 1203.03 23.1705C1201.62 22.3046 1199.77 22.7436 1198.9 24.1551V24.1568Z" fill="#FFF5F0"/>
<path d="M1171.17 65.2887C1170.3 66.6985 1170.74 68.5472 1172.16 69.4148C1173.57 70.2806 1175.41 69.84 1176.28 68.4284C1177.15 67.0186 1176.71 65.1699 1175.3 64.304C1173.89 63.4365 1172.03 63.8771 1171.17 65.2887H1171.17Z" fill="#FFF5F0"/>
<path d="M985.919 255.321C984.218 258.079 985.082 261.696 987.843 263.395C990.603 265.094 994.217 264.226 995.916 261.463C997.615 258.707 996.751 255.089 993.992 253.39C991.229 251.698 987.614 252.559 985.919 255.321Z" fill="#FFF5F0"/>
<path d="M1160.8 112.034C1159.1 114.797 1159.96 118.409 1162.73 120.108C1165.48 121.807 1169.1 120.942 1170.8 118.183C1172.5 115.42 1171.63 111.805 1168.87 110.11C1166.11 108.411 1162.5 109.271 1160.8 112.034Z" fill="#FFF5F0"/>
<path d="M1068.15 20.6437C1066.45 23.4048 1067.32 27.0197 1070.08 28.7169C1072.84 30.4142 1076.45 29.5518 1078.15 26.7907C1079.85 24.0296 1078.98 20.4165 1076.23 18.7175C1073.46 17.0202 1069.85 17.8826 1068.15 20.6437Z" fill="#FFF5F0"/>
<path d="M983.868 32.2258C982.173 34.9868 983.037 38.6 985.796 40.299C988.559 41.9963 992.174 41.1338 993.869 38.3728C995.568 35.6117 994.704 31.9968 991.941 30.2995C989.182 28.6023 985.567 29.4647 983.868 32.2258Z" fill="#FFF5F0"/>
<path d="M1324.08 281.287C1322.38 284.049 1323.25 287.668 1326.01 289.36C1328.77 291.059 1332.39 290.196 1334.08 287.435C1335.78 284.673 1334.92 281.061 1332.15 279.362C1329.39 277.663 1325.78 278.531 1324.08 281.287Z" fill="#FFF5F0"/>
<path d="M1359.26 493.058C1357.56 495.821 1358.42 499.439 1361.19 501.136C1363.95 502.828 1367.56 501.968 1369.26 499.205C1370.96 496.447 1370.1 492.831 1367.33 491.132C1364.57 489.433 1360.96 490.3 1359.26 493.056V493.058Z" fill="#FFF5F0"/>
<path d="M1125.92 242.038C1122.42 247.744 1124.2 255.212 1129.91 258.72C1135.61 262.233 1143.08 260.448 1146.59 254.742C1150.1 249.03 1148.32 241.561 1142.61 238.055C1136.9 234.547 1129.43 236.333 1125.92 242.038H1125.92Z" fill="#FFF5F0"/>
<path d="M1187.79 482.158C1184.28 487.865 1186.06 495.332 1191.77 498.845C1197.48 502.352 1204.95 500.567 1208.46 494.86C1211.97 489.154 1210.18 481.68 1204.48 478.173C1198.77 474.665 1191.3 476.445 1187.79 482.158H1187.79Z" fill="#FFF5F0"/>
<path d="M1711.79 228.072C1711.8 228.05 1711.79 228.026 1711.79 228.009L1703.7 110.604C1703.7 110.596 1703.69 110.596 1703.69 110.587C1703.69 110.582 1703.69 110.575 1703.69 110.566L1655.3 -0.749496C1655.3 -0.749496 1655.28 -0.758087 1655.28 -0.76326C1655.28 -0.766693 1655.28 -0.771851 1655.28 -0.775299L1569.42 -100.857C1569.42 -100.857 1569.41 -100.857 1569.41 -100.863C1569.4 -100.866 1569.4 -100.875 1569.4 -100.876L1461.97 -170.635C1461.97 -170.635 1461.96 -170.635 1461.96 -170.635C1461.95 -170.638 1461.95 -170.647 1461.93 -170.649L1345.05 -197.886C1345.05 -197.886 1345.04 -197.881 1345.03 -197.881C1345.03 -197.881 1345.03 -197.889 1345.02 -197.886L1232.32 -185.611L1232.31 -185.606C1232.31 -185.606 1232.3 -185.609 1232.3 -185.606L1173.35 -167.375C1173.34 -167.371 1173.33 -167.369 1173.32 -167.363L1072.57 -102.679C1072.56 -102.675 1072.56 -102.667 1072.55 -102.66C1072.55 -102.655 1072.53 -102.651 1072.53 -102.644L1006.72 8.61304C1006.72 8.61304 1006.73 8.62682 1006.73 8.63715C1006.72 8.64575 1006.71 8.64919 1006.71 8.65952L996.25 147.763C996.25 147.763 996.253 147.769 996.253 147.775V147.805L1044.5 293.081L1051.14 318.372C1051.15 318.389 1051.15 318.401 1051.16 318.413L1139.37 423.962C1139.37 423.962 1139.39 423.974 1139.39 423.974C1139.4 423.98 1139.39 423.986 1139.4 423.986L1262.96 496.511C1262.96 496.511 1262.98 496.523 1262.99 496.523L1293.8 502.799L1293.81 502.805L1436.35 523.435H1436.36C1436.37 523.435 1436.4 523.435 1436.41 523.43L1564.72 484.88C1564.73 484.875 1564.73 484.863 1564.74 484.858C1564.75 484.858 1564.76 484.858 1564.76 484.852L1654.4 396.34C1654.42 396.328 1654.43 396.315 1654.43 396.298L1675.66 335.663L1711.78 228.089L1711.8 228.077L1711.79 228.072ZM1436.32 523.206L1294.01 502.61L1345.99 430.319L1477.01 449.664L1455.28 488.935L1436.32 523.206ZM1135.92 -123.753L1206.72 -89.5205L1229.52 -78.4951L1197.27 -17.0681L1190.16 -3.52605L1171.5 -6.71402L1078.56 -22.5936L1124.86 -104.237L1135.92 -123.753H1135.92ZM1100.94 -18.5519L1190.12 -3.31604L1186.87 87.3003L1069.71 105.724L1078.49 -22.3871L1100.94 -18.5519H1100.94ZM1300.07 -123.506L1379.01 -132.591L1382.14 -24.3322L1334.7 -17.7583L1328.46 -36.8242L1300.08 -123.506H1300.07ZM1463.92 -112.189L1543.57 -62.8462L1479.23 15.9031L1454.48 1.94618L1429.73 -12.0124L1444.76 -56.0468L1463.92 -112.191L1463.92 -112.189ZM1543.73 -62.7067L1606.58 9.90234L1518.54 60.7224L1479.4 16.0373L1540.12 -58.2845L1543.73 -62.7085L1543.73 -62.7067ZM1477.07 449.454L1346.08 430.115L1353.84 406.232L1382.71 317.346L1475.27 332.003L1475.62 354.92L1477.07 449.452V449.454ZM1558.94 310.531L1475.44 331.79L1455.92 289.773L1435.31 245.418L1483.07 234.717L1484.03 235.675L1558.94 310.531H1558.94ZM1295.14 10.6925L1293 32.0925L1287.88 83.4117L1276.51 112.496L1273.95 105.08L1274.03 53.1311L1291.92 17.1562L1295.14 10.6959L1295.14 10.6925ZM1447.2 186.787C1447.2 186.787 1447.2 186.782 1447.21 186.775C1447.21 186.768 1447.21 186.758 1447.21 186.746L1451.4 164.674L1454.18 149.991L1455.39 182.924L1441.69 213.831L1447.2 186.785V186.787ZM1441.56 214.654L1442.27 213.067L1455.58 183.038L1465.78 180.037L1537.37 158.997L1520.24 204.209L1441.56 214.654ZM1518.58 164.294L1455.6 182.802L1454.37 149.092L1535.43 109.206L1537.43 158.751L1518.58 164.294ZM1454.15 149.037L1449.32 174.438L1447.06 186.381L1428.73 141.959L1440.68 115.242L1445.21 126.606L1454.15 149.037H1454.15ZM1394.19 99.9575L1415.55 84.744L1440.56 114.983L1428.58 141.756L1394.19 99.9575ZM1351.31 74.7687L1357.42 72.9854L1382.07 65.7901L1415.37 84.6064L1394.03 99.8078L1351.31 74.7687ZM1351.04 74.6241L1315.26 65.3856L1328.51 62.2113L1347.44 57.6738L1381.66 65.6868L1360.71 71.8011L1351.04 74.6241H1351.04ZM1415.55 84.4618L1411.25 82.0312L1382.23 65.6369L1429.63 -11.8179L1479.09 16.0683L1415.56 84.4635L1415.55 84.4618ZM1382.08 -24.105L1347.36 57.4724L1320.16 63.9895L1314.96 65.2358L1322.77 32.5143L1334.71 -17.5414L1358.23 -20.8017L1382.08 -24.105ZM1314.83 65.4974L1351 74.8359L1393.96 100.018L1428.52 142.017L1446.98 186.77L1441.28 214.723L1416.5 233.295L1398.79 237.82L1382.67 234.534L1331.16 203.539L1292.13 157.734L1276.62 112.808L1288.08 83.5047L1314.83 65.4974H1314.83ZM1292 157.914L1330.96 203.632L1291.65 262.737L1221.09 179.115L1292 157.914ZM1331.13 203.766L1382.53 234.703L1382.53 310.245V317.033L1291.81 262.882L1326.29 211.041L1331.13 203.765L1331.13 203.766ZM1382.74 317.132L1382.74 234.773L1398.77 238.037L1435.08 245.441L1475.19 331.78L1463.32 329.895L1382.74 317.134L1382.74 317.132ZM1482.21 234.691L1435.16 245.231L1399.27 237.92L1416.56 233.505L1457.52 234.243L1482.21 234.691ZM1273.76 105.189L1291.9 157.716L1220.96 178.929L1187.14 87.5396L1273.76 105.189ZM1483.27 234.61L1520.33 204.434L1619.92 254.123L1559.16 310.438L1483.27 234.61ZM1483.07 234.488L1479.8 234.429L1416.87 233.295L1441.43 214.892L1519.95 204.464L1495.08 224.716L1483.07 234.488ZM1440.81 115.004L1511.46 65.8985L1518.46 61.0339L1535.39 108.988L1454.32 148.879L1440.82 115.004H1440.81ZM1518.35 60.8411L1440.7 114.82L1415.72 84.6012L1479.25 16.2009L1479.92 16.9634L1518.35 60.8411H1518.35ZM1429.43 -11.8936L1382.03 65.5542L1347.59 57.4896L1382.32 -24.1085L1420.36 -14.2433L1429.43 -11.8919L1429.43 -11.8936ZM1334.45 -17.3865L1314.72 65.315L1288.12 83.2189L1295.41 10.1778L1334.45 -17.3865ZM1273.81 53.1586L1273.74 100.321L1273.74 104.962L1187.09 87.3055L1189.42 22.1017L1190.33 -3.20587L1249.78 36.933L1273.81 53.1586H1273.81ZM1116.54 237.745L1220.87 179.196L1246.21 209.227L1291.52 262.918L1264.57 294.705L1214.1 354.252L1181.12 314.869L1116.54 237.745ZM1214.26 354.386L1291.69 263.052L1382.51 317.272L1357.91 392.99L1345.88 430.046L1266.91 384.65L1214.26 354.388L1214.26 354.386ZM1229.68 -78.3402L1295.17 10.1296L1273.87 52.9435L1237.29 28.2435L1190.37 -3.43997L1205.65 -32.5656L1229.68 -78.3402ZM1171.8 304.074L1213.96 354.414L1190.6 379.384L1150.88 421.849L1044.75 293.069L1116.35 237.86L1171.8 304.074ZM1620.09 254.263L1675.42 335.61L1592.58 417.655L1559.27 310.617L1620.09 254.263ZM1620.05 253.95L1520.45 204.255L1537.61 158.954L1646.83 176.552L1640.07 196.108L1620.05 253.951L1620.05 253.95ZM1641.61 93.9809L1646.86 176.335L1537.65 158.741L1535.63 109.132L1588.63 101.56L1641.61 93.9809H1641.61ZM1429.53 -12.0916L1382.36 -24.3219L1379.23 -132.574L1463.73 -112.275L1429.53 -12.0916ZM1299.87 -123.431L1330.35 -30.3467L1334.5 -17.6809L1295.33 9.96776L1272.5 -20.874L1229.82 -78.5158L1261.01 -98.5129L1299.87 -123.433V-123.431ZM1186.91 87.5155L1220.76 179.01L1116.43 237.559L1069.74 105.939L1186.91 87.5155ZM1151.05 421.99L1175.96 395.357L1214.12 354.555L1345.79 430.237L1293.79 502.551L1186.14 441.794L1151.05 421.99ZM1477.28 449.442L1475.49 331.998L1559.08 310.717L1592.39 417.779L1496.79 444.075L1477.28 449.444L1477.28 449.442ZM1641.56 93.7709L1535.59 108.921L1535.53 108.737L1518.65 60.9117L1603.48 11.9422L1606.69 10.0883L1632.44 71.8837L1641.56 93.7709ZM1232.32 -185.366L1282.82 -139.124L1299.75 -123.614L1236.81 -83.2513L1229.66 -78.6656L1144.25 -119.961L1136.1 -123.905L1188.16 -157.162L1232.32 -185.365V-185.366ZM1459.84 481.148L1477.25 449.676L1550.91 429.412L1592.35 418.018L1564.61 484.685L1436.6 523.149L1459.84 481.15L1459.84 481.148ZM1675.53 335.384L1620.23 254.084L1647.03 176.643L1689.57 210.554L1711.56 228.084L1675.53 335.384H1675.53ZM1711.56 227.811L1692.88 212.921L1647.08 176.41L1641.83 94.005L1673.71 102.631L1703.49 110.695L1711.56 227.812V227.811ZM1643.05 94.1083L1641.8 93.7675L1617.66 35.8382L1606.89 10.0091L1631.08 4.69864L1655.14 -0.584229L1703.41 110.446L1643.05 94.1083H1643.05ZM1609.66 9.18111L1606.78 9.81458L1543.86 -62.8823L1569.35 -100.611L1655 -0.773575L1609.66 9.18111ZM1569.19 -100.756L1543.7 -63.02L1463.97 -112.416L1462.03 -170.344L1569.19 -100.758L1569.19 -100.756ZM1461.81 -170.459L1462.09 -162.116L1463.75 -112.49L1390.11 -130.179L1379.19 -132.806L1345.24 -197.624L1461.81 -170.461V-170.459ZM1344.97 -197.666L1378.94 -132.803L1299.97 -123.712L1232.58 -185.423L1344.97 -197.667V-197.666ZM1173.43 -167.173L1231.59 -185.163L1229.67 -183.936L1135.82 -123.989L1073.41 -102.97L1173.42 -167.173H1173.43ZM1072.69 -102.5L1135.64 -123.7L1078.32 -22.5988L1023.74 1.175L1007.08 8.43748L1072.69 -102.5H1072.69ZM1006.92 8.74214L1078.28 -22.3423L1069.49 105.788L996.475 147.578L1006.92 8.74042V8.74214ZM1063.02 109.737L1069.54 106.008L1092.63 171.122L1116.24 237.674L1044.65 292.871L996.488 147.822L1063.02 109.737ZM1044.83 293.5L1150.68 421.936L1139.49 423.775L1051.34 318.296L1044.83 293.501V293.5ZM1263.05 496.31L1139.76 423.949L1140.61 423.809L1150.86 422.129L1293.17 502.453L1263.05 496.312L1263.05 496.31ZM1654.23 396.2L1564.99 484.319L1592.62 417.919L1675.31 336.03L1654.24 396.2H1654.23Z" fill="#FFF5F0"/>
<path d="M1298.86 11.2113C1298.86 12.8673 1297.52 14.2099 1295.86 14.2099C1294.2 14.2099 1292.87 12.8673 1292.87 11.2113C1292.87 9.55534 1294.21 8.21094 1295.86 8.21094C1297.52 8.21094 1298.86 9.55361 1298.86 11.2113Z" fill="#FFF5F0"/>
<path d="M1350.51 58.1705C1350.51 59.8264 1349.17 61.1708 1347.51 61.1708C1345.86 61.1708 1344.52 59.8264 1344.52 58.1705C1344.52 56.5145 1345.86 55.1719 1347.51 55.1719C1349.17 55.1719 1350.51 56.5145 1350.51 58.1705Z" fill="#FFF5F0"/>
<path d="M1431.91 141.647C1431.91 143.301 1430.57 144.646 1428.91 144.646C1427.25 144.646 1425.91 143.303 1425.91 141.647C1425.91 139.991 1427.26 138.648 1428.91 138.648C1430.57 138.648 1431.91 139.991 1431.91 141.647Z" fill="#FFF5F0"/>
<path d="M1292.6 81.1253C1292.6 82.7813 1291.26 84.1257 1289.6 84.1257C1287.94 84.1257 1286.6 82.7813 1286.6 81.1253C1286.6 79.4694 1287.94 78.125 1289.6 78.125C1291.26 78.125 1292.6 79.4694 1292.6 81.1253Z" fill="#FFF5F0"/>
<path d="M1009.81 9.64705C1009.81 11.303 1008.47 12.6457 1006.81 12.6457C1005.15 12.6457 1003.81 11.303 1003.81 9.64705C1003.81 7.99109 1005.15 6.64844 1006.81 6.64844C1008.47 6.64844 1009.81 7.98937 1009.81 9.64705Z" fill="#FFF5F0"/>
<path d="M1295.73 158.344C1295.73 160.002 1294.39 161.343 1292.73 161.343C1291.08 161.343 1289.73 160.002 1289.73 158.344C1289.73 156.686 1291.08 155.344 1292.73 155.344C1294.39 155.344 1295.73 156.688 1295.73 158.344Z" fill="#FFF5F0"/>
<path d="M1386 233.472C1386 235.129 1384.65 236.474 1383 236.474C1381.34 236.474 1380 235.129 1380 233.472C1380 231.814 1381.34 230.477 1383 230.477C1384.65 230.477 1386 231.814 1386 233.472Z" fill="#FFF5F0"/>
<path d="M1384.96 316.171C1384.96 317.829 1383.62 319.171 1381.96 319.171C1380.3 319.171 1378.96 317.827 1378.96 316.171C1378.96 314.515 1380.3 313.176 1381.96 313.176C1383.62 313.176 1384.96 314.52 1384.96 316.171Z" fill="#FFF5F0"/>
<path d="M1439.74 522.008C1439.74 523.666 1438.4 525.003 1436.74 525.003C1435.08 525.003 1433.74 523.666 1433.74 522.008C1433.74 520.35 1435.09 519.008 1436.74 519.008C1438.4 519.008 1439.74 520.352 1439.74 522.008Z" fill="#FFF5F0"/>
<path d="M1223.73 180.256C1223.73 181.912 1222.39 183.257 1220.73 183.257C1219.08 183.257 1217.73 181.912 1217.73 180.256C1217.73 178.6 1219.08 177.258 1220.73 177.258C1222.39 177.258 1223.73 178.599 1223.73 180.256Z" fill="#FFF5F0"/>
<path d="M1189.82 88.4283C1189.82 90.086 1188.48 91.4287 1186.82 91.4287C1185.16 91.4287 1183.82 90.0843 1183.82 88.4283C1183.82 86.7724 1185.16 85.4297 1186.82 85.4297C1188.47 85.4297 1189.82 86.7724 1189.82 88.4283Z" fill="#FFF5F0"/>
<path d="M1051.73 291.642C1051.73 294.881 1049.1 297.51 1045.86 297.51C1042.62 297.51 1039.99 294.881 1039.99 291.642C1039.99 288.402 1042.62 285.773 1045.86 285.773C1049.1 285.773 1051.73 288.402 1051.73 291.642Z" fill="#FFF5F0"/>
<path d="M1279.46 48.6416C1279.46 51.8846 1276.83 54.5097 1273.59 54.5097C1270.35 54.5097 1267.72 51.8829 1267.72 48.6416C1267.72 45.4002 1270.35 42.7734 1273.59 42.7734C1276.83 42.7734 1279.46 45.4002 1279.46 48.6416Z" fill="#FFF5F0"/>
<path d="M1196.11 -4.17873C1196.11 -0.937393 1193.48 1.68941 1190.24 1.68941C1187 1.68941 1184.38 -0.937393 1184.38 -4.17873C1184.38 -7.42007 1187 -10.0469 1190.24 -10.0469C1193.48 -10.0469 1196.11 -7.41835 1196.11 -4.17873Z" fill="#FFF5F0"/>
<path d="M1297.07 262.29C1297.07 265.537 1294.45 268.158 1291.2 268.158C1287.96 268.158 1285.34 265.535 1285.34 262.29C1285.34 259.045 1287.96 256.422 1291.2 256.422C1294.45 256.422 1297.07 259.05 1297.07 262.29Z" fill="#FFF5F0"/>
<path d="M1156.21 424.286C1156.21 427.531 1153.58 430.154 1150.34 430.154C1147.1 430.154 1144.47 427.531 1144.47 424.286C1144.47 421.041 1147.1 418.418 1150.34 418.418C1153.58 418.418 1156.21 421.047 1156.21 424.286Z" fill="#FFF5F0"/>
<path d="M1307.99 504.79C1307.99 511.485 1302.56 516.917 1295.86 516.917C1289.16 516.917 1283.73 511.485 1283.73 504.79C1283.73 498.096 1289.16 492.656 1295.86 492.656C1302.56 492.656 1307.99 498.089 1307.99 504.79Z" fill="#FFF5F0"/>
<path d="M1007.47 146.343C1007.47 153.041 1002.04 158.47 995.341 158.47C988.647 158.47 983.211 153.041 983.211 146.343C983.211 139.645 988.64 134.211 995.341 134.211C1002.04 134.211 1007.47 139.644 1007.47 146.343Z" fill="#FFF5F0"/>
</g>
<defs>
<linearGradient id="paint0_linear_3345_182" x1="168.804" y1="62.731" x2="396.364" y2="815.367" gradientUnits="userSpaceOnUse">
<stop stop-color="#0C84BC"/>
<stop offset="1" stop-color="#1658A5"/>
</linearGradient>
<clipPath id="clip0_3345_182">
<rect width="491" height="525" fill="white" transform="translate(949)"/>
</clipPath>
</defs>
</svg>
