<svg width="32" height="31" viewBox="0 0 32 31" fill="none" xmlns="http://www.w3.org/2000/svg">
<path d="M31.03 15.4684V15.5317C30.9414 15.8988 30.8148 16.076 30.4603 16.2026C29.9793 16.3798 29.435 16.4811 28.9287 16.6583C23.2325 18.6076 18.6756 23.1519 16.7009 28.8355C16.5237 29.3418 16.3845 30.1519 16.1693 30.5823C16.0554 30.8101 15.8528 30.924 15.6123 31H15.4098C15.1693 30.9114 14.9667 30.8228 14.8528 30.5823C14.6882 30.2405 14.5744 29.5823 14.4351 29.1772C12.4984 23.3165 7.85286 18.595 1.99212 16.6203C1.56174 16.4684 0.738936 16.3292 0.384507 16.1393C-0.134478 15.8735 -0.12182 15.114 0.384507 14.8608C0.751594 14.671 1.53641 14.5317 1.97945 14.3798C8.14398 12.2912 12.587 7.49378 14.5617 1.3419C14.7262 0.835576 14.7642 -0.0125181 15.4857 0.000140095C16.2072 0.0127983 16.2578 0.924167 16.4224 1.44315C18.4604 7.77224 23.03 12.4431 29.3718 14.5064C29.6882 14.6077 30.4477 14.7469 30.6755 14.9241C30.7768 15 30.8401 15.1013 30.8908 15.2026L30.9793 15.4684H31.03Z" fill="#EF6A24"/>
</svg>
