<svg width="41" height="41" viewBox="0 0 41 41" fill="none" xmlns="http://www.w3.org/2000/svg">
<path d="M40.1728 19.9834L40.1732 20.0652C40.0607 20.5399 39.8982 20.7696 39.441 20.9351C38.8205 21.1667 38.1179 21.3005 37.4648 21.5322C30.1167 24.0821 24.2549 29.978 21.7353 37.3314C21.5091 37.9865 21.3337 39.0338 21.0581 39.591C20.9122 39.886 20.6512 40.0343 20.3409 40.1338L20.0792 40.1349C19.768 40.0217 19.5059 39.9084 19.3574 39.5983C19.1429 39.1577 18.9921 38.308 18.81 37.7854C16.2756 30.2248 10.2479 24.1508 2.66559 21.6322C2.10875 21.4383 1.04501 21.263 0.586074 21.0197C-0.0858665 20.6792 -0.0737154 19.6979 0.579001 19.368C1.05218 19.1207 2.06531 18.9365 2.63682 18.7378C10.5891 16.0055 16.3025 9.78314 18.8195 1.8247C19.0293 1.16967 19.0736 0.073817 20.0058 0.0861782C20.938 0.0985394 21.0084 1.27564 21.2239 1.9452C23.8917 10.1104 29.821 16.1193 38.0253 18.7498C38.4347 18.8789 39.4165 19.0545 39.7119 19.2822C39.8431 19.3798 39.9255 19.5102 39.9915 19.6408L40.1073 19.9837L40.1728 19.9834Z" fill="url(#paint0_radial_1993_460)"/>
<defs>
<radialGradient id="paint0_radial_1993_460" cx="0" cy="0" r="1" gradientTransform="matrix(-27.5 23.5 -23.5 -27.5 24.5 14.5)" gradientUnits="userSpaceOnUse">
<stop stop-color="#EF6A24"/>
<stop offset="1" stop-color="#0C84BC"/>
</radialGradient>
</defs>
</svg>
