<svg width="26" height="26" viewBox="0 0 26 26" fill="none" xmlns="http://www.w3.org/2000/svg">
<path d="M21.4387 25.1648H4.5293C2.02913 25.1648 0 23.1357 0 20.6355V10.4416C0 8.96802 0.724689 7.57904 1.9325 6.73357L10.3872 0.815275C11.9453 -0.271758 14.0348 -0.271758 15.5808 0.815275L24.0355 6.73357C25.2433 7.57904 25.968 8.96802 25.968 10.4416V20.6355C25.968 23.1357 23.9389 25.1648 21.4387 25.1648ZM12.984 1.80568C12.4405 1.80568 11.897 1.97478 11.4259 2.30089L2.97122 8.21918C2.24654 8.72646 1.81172 9.55985 1.81172 10.4416V20.6355C1.81172 22.1332 3.03161 23.3531 4.5293 23.3531H21.4387C22.9364 23.3531 24.1563 22.1332 24.1563 20.6355V10.4416C24.1563 9.55985 23.7215 8.72646 22.9968 8.21918L14.5421 2.30089C14.071 1.97478 13.5275 1.81776 12.984 1.81776V1.80568Z" fill="white"/>
<path d="M17.8184 25.1645H8.15586C7.66066 25.1645 7.25 24.7538 7.25 24.2586V18.2195C7.25 15.0551 9.82265 12.4824 12.9871 12.4824C16.1516 12.4824 18.7242 15.0551 18.7242 18.2195V24.2586C18.7242 24.7538 18.3136 25.1645 17.8184 25.1645ZM9.06172 23.3528H16.9125V18.2195C16.9125 16.0576 15.1491 14.2941 12.9871 14.2941C10.8251 14.2941 9.06172 16.0576 9.06172 18.2195V23.3528Z" fill="white"/>
</svg>
