<svg width="31" height="31" viewBox="0 0 31 31" fill="none" xmlns="http://www.w3.org/2000/svg">
<path d="M15.5052 18.0846C16.9319 18.0846 18.0885 16.928 18.0885 15.5013C18.0885 14.0746 16.9319 12.918 15.5052 12.918C14.0785 12.918 12.9219 14.0746 12.9219 15.5013C12.9219 16.928 14.0785 18.0846 15.5052 18.0846Z" fill="black"/>
<path d="M5.16146 18.0846C6.58819 18.0846 7.74479 16.928 7.74479 15.5013C7.74479 14.0746 6.58819 12.918 5.16146 12.918C3.73472 12.918 2.57812 14.0746 2.57812 15.5013C2.57812 16.928 3.73472 18.0846 5.16146 18.0846Z" fill="black"/>
<path d="M25.8333 18.0846C27.2601 18.0846 28.4167 16.928 28.4167 15.5013C28.4167 14.0746 27.2601 12.918 25.8333 12.918C24.4066 12.918 23.25 14.0746 23.25 15.5013C23.25 16.928 24.4066 18.0846 25.8333 18.0846Z" fill="black"/>
</svg>
